<svg width="172" height="46" viewBox="0 0 172 46" fill="none" xmlns="http://www.w3.org/2000/svg">
<g clip-path="url(#clip0_67_3081)">
<path d="M36.9427 6.79188V33H30.9856V15.3067L28.6059 33H24.3809L21.8718 15.7114V33H15.9147V6.79188H24.737C24.996 8.3675 25.2712 10.2237 25.5626 12.3605L26.5015 19.0299L28.0556 6.79188H36.9427Z" fill="#E20613"/>
<path d="M14.5446 18.1558C15.5375 18.4903 16.2767 19.0407 16.7624 19.8069C17.248 20.5624 17.4908 22.343 17.4908 25.1489C17.4908 27.2318 17.2534 28.8505 16.7786 30.0053C16.3037 31.1492 15.4835 32.0234 14.318 32.6277C13.1525 33.2213 11.6578 33.518 9.83398 33.518C7.76193 33.518 6.13235 33.1727 4.94524 32.482C3.76892 31.7805 2.99191 30.928 2.61419 29.9243C2.24726 28.9099 2.0638 27.1562 2.0638 24.6633V22.5912H8.6037V26.8486C8.6037 27.9818 8.66845 28.7049 8.79795 29.0178C8.93825 29.32 9.24042 29.4711 9.70447 29.4711C10.2117 29.4711 10.5462 29.2768 10.7081 28.8883C10.87 28.4998 10.9509 27.4854 10.9509 25.845V24.032C10.9509 23.0283 10.8376 22.2945 10.611 21.8304C10.3844 21.3664 10.0498 21.0642 9.60735 20.9239C9.16488 20.7728 8.30692 20.6865 7.03348 20.6649V16.8607C8.58751 16.8607 9.54799 16.8014 9.91492 16.6827C10.2818 16.564 10.5462 16.3049 10.7081 15.9056C10.87 15.5063 10.9509 14.8804 10.9509 14.0279V12.5709C10.9509 11.6536 10.8538 11.0493 10.6596 10.7579C10.4761 10.4665 10.1847 10.3208 9.78541 10.3208C9.33215 10.3208 9.01919 10.4773 8.84652 10.7903C8.68464 11.0925 8.6037 11.7454 8.6037 12.749V14.902H2.0638V12.6681C2.0638 10.1643 2.63577 8.47541 3.77971 7.60127C4.92366 6.71633 6.74209 6.27386 9.23503 6.27386C12.3539 6.27386 14.4691 6.88361 15.5807 8.10309C16.6922 9.32258 17.248 11.0169 17.248 13.1861C17.248 14.6538 17.0484 15.7168 16.6491 16.3751C16.2498 17.0226 15.5483 17.6162 14.5446 18.1558Z" fill="white"/>
<path d="M13.4521 18.1557C14.445 18.4903 15.1842 19.0407 15.6699 19.8069C16.1555 20.5623 16.3983 22.343 16.3983 25.1489C16.3983 27.2317 16.1609 28.8505 15.686 30.0052C15.2112 31.1492 14.391 32.0233 13.2255 32.6277C12.06 33.2212 10.5653 33.518 8.74145 33.518C6.6694 33.518 5.03982 33.1727 3.85271 32.482C2.67639 31.7805 1.89938 30.928 1.52166 29.9243C1.15473 28.9099 0.971272 27.1562 0.971272 24.6632V22.5912H7.51117V26.8486C7.51117 27.9818 7.57592 28.7048 7.70542 29.0178C7.84572 29.32 8.14789 29.471 8.61194 29.471C9.11916 29.471 9.45371 29.2768 9.61559 28.8883C9.77747 28.4998 9.85841 27.4853 9.85841 25.845V24.0319C9.85841 23.0283 9.74509 22.2944 9.51846 21.8304C9.29183 21.3663 8.95729 21.0641 8.51482 20.9239C8.07235 20.7728 7.21439 20.6864 5.94095 20.6648V16.8607C7.49498 16.8607 8.45546 16.8013 8.82239 16.6826C9.18931 16.5639 9.45371 16.3049 9.61559 15.9056C9.77747 15.5063 9.85841 14.8804 9.85841 14.0278V12.5709C9.85841 11.6536 9.76128 11.0493 9.56703 10.7579C9.38357 10.4665 9.09218 10.3208 8.69288 10.3208C8.23962 10.3208 7.92666 10.4773 7.75399 10.7902C7.59211 11.0924 7.51117 11.7453 7.51117 12.749V14.902H0.971272V12.668C0.971272 10.1643 1.54324 8.47538 2.68719 7.60124C3.83113 6.7163 5.64956 6.27383 8.1425 6.27383C11.2614 6.27383 13.3766 6.88358 14.4881 8.10306C15.5997 9.32255 16.1555 11.0169 16.1555 13.1861C16.1555 14.6538 15.9558 15.7168 15.5565 16.3751C15.1572 17.0226 14.4558 17.6161 13.4521 18.1557Z" fill="#E20613"/>
<path d="M34.5959 12.0413C29.2635 19.7298 10.156 24.8555 1.26874 26.4573C19.6896 27.4184 33.586 18.8489 38.2316 14.444L40.6554 15.6453L41.8673 7.23596L32.1721 10.2393L34.5959 12.0413Z" fill="#00973A" stroke="white" stroke-width="1.03602" stroke-linejoin="round"/>
<path d="M60.0754 14.8727H53.7975V12.946C53.7975 12.0469 53.7172 11.4742 53.5566 11.228C53.3961 10.9818 53.1285 10.8587 52.7538 10.8587C52.3471 10.8587 52.0367 11.0246 51.8226 11.3564C51.6192 11.6883 51.5175 12.1914 51.5175 12.8657C51.5175 13.7327 51.6352 14.3857 51.8707 14.8246C52.0955 15.2634 52.7324 15.7933 53.7814 16.4141C56.7892 18.2017 58.6839 19.6681 59.4653 20.8135C60.2467 21.9588 60.6374 23.8053 60.6374 26.3528C60.6374 28.2046 60.4179 29.5694 59.9791 30.4471C59.5509 31.3248 58.716 32.0634 57.4743 32.6629C56.2326 33.2516 54.7876 33.5459 53.1392 33.5459C51.3302 33.5459 49.7834 33.2034 48.499 32.5183C47.2252 31.8333 46.3903 30.9609 45.9942 29.9012C45.5982 28.8415 45.4001 27.3376 45.4001 25.3895V23.6875H51.6781V26.8506C51.6781 27.8246 51.7637 28.4508 51.935 28.7291C52.1169 29.0074 52.4327 29.1466 52.8823 29.1466C53.3318 29.1466 53.6637 28.97 53.8777 28.6167C54.1025 28.2635 54.2149 27.739 54.2149 27.0432C54.2149 25.5125 54.0062 24.5117 53.5887 24.0407C53.1606 23.5698 52.1062 22.783 50.4257 21.6805C48.7452 20.5673 47.6319 19.7591 47.086 19.256C46.5401 18.7529 46.0852 18.0572 45.7213 17.1687C45.368 16.2803 45.1914 15.1457 45.1914 13.7649C45.1914 11.7739 45.443 10.3181 45.946 9.3976C46.4598 8.47705 47.2841 7.75988 48.4187 7.24609C49.5533 6.72159 50.9234 6.45934 52.529 6.45934C54.2845 6.45934 55.7777 6.74299 57.0087 7.31031C58.2504 7.87762 59.0692 8.5948 59.4653 9.46182C59.872 10.3181 60.0754 11.7793 60.0754 13.8451V14.8727ZM76.2689 19.1757V24.394C76.2689 26.31 76.1726 27.7176 75.9799 28.6167C75.7872 29.5052 75.3751 30.3401 74.7436 31.1215C74.112 31.8922 73.2985 32.4648 72.3031 32.8395C71.3183 33.2034 70.1837 33.3854 68.8992 33.3854C67.4648 33.3854 66.2499 33.2302 65.2544 32.9198C64.259 32.5986 63.4829 32.1223 62.9263 31.4908C62.3804 30.8485 61.9897 30.0778 61.7542 29.1787C61.5187 28.2688 61.401 26.9094 61.401 25.1004V19.6414C61.401 17.6611 61.6151 16.1144 62.0432 15.0012C62.4714 13.8879 63.2421 12.9942 64.3553 12.3198C65.4685 11.6454 66.8922 11.3083 68.6262 11.3083C70.082 11.3083 71.329 11.5277 72.3673 11.9666C73.4163 12.3947 74.2244 12.9567 74.7917 13.6525C75.3591 14.3482 75.7444 15.0654 75.9478 15.804C76.1619 16.5426 76.2689 17.6665 76.2689 19.1757ZM69.7823 17.5701C69.7823 16.4783 69.7234 15.7933 69.6056 15.515C69.4879 15.226 69.2363 15.0815 68.851 15.0815C68.4657 15.0815 68.2088 15.226 68.0803 15.515C67.9519 15.7933 67.8876 16.4783 67.8876 17.5701V27.1877C67.8876 28.1939 67.9519 28.8522 68.0803 29.1626C68.2088 29.4623 68.4603 29.6122 68.8349 29.6122C69.2203 29.6122 69.4718 29.473 69.5896 29.1947C69.718 28.9164 69.7823 28.317 69.7823 27.3965V17.5701ZM84.1133 7.00524V33H77.4339V7.00524H84.1133ZM100.323 11.6936V33H93.7238L93.8362 31.2339C93.3866 31.951 92.83 32.4916 92.1664 32.8555C91.5134 33.2088 90.7588 33.3854 89.9024 33.3854C88.9284 33.3854 88.1202 33.2141 87.478 32.8716C86.8357 32.5291 86.3594 32.0741 86.049 31.5068C85.7493 30.9395 85.562 30.3508 85.487 29.7406C85.4121 29.1198 85.3746 27.8942 85.3746 26.0638V11.6936H91.8613V26.1923C91.8613 27.8514 91.9095 28.8362 92.0058 29.1466C92.1128 29.457 92.3911 29.6122 92.8407 29.6122C93.3224 29.6122 93.606 29.4516 93.6917 29.1305C93.788 28.8094 93.8362 27.7765 93.8362 26.0317V11.6936H100.323ZM108.504 8.85169V12.2074H110.254V15.5792H108.504V26.979C108.504 28.3812 108.574 29.1626 108.713 29.3232C108.863 29.4837 109.468 29.564 110.527 29.564V33H107.91C106.433 33 105.379 32.9412 104.747 32.8234C104.116 32.695 103.559 32.4113 103.077 31.9724C102.596 31.5229 102.296 31.0144 102.178 30.4471C102.061 29.8691 102.002 28.5204 102.002 26.401V15.5792H100.605V12.2074H102.002V8.85169H108.504ZM117.376 7.00524V10.3931H110.697V7.00524H117.376ZM117.376 11.6936V33H110.697V11.6936H117.376ZM133.409 19.1757V24.394C133.409 26.31 133.313 27.7176 133.12 28.6167C132.928 29.5052 132.515 30.3401 131.884 31.1215C131.252 31.8922 130.439 32.4648 129.443 32.8395C128.459 33.2034 127.324 33.3854 126.04 33.3854C124.605 33.3854 123.39 33.2302 122.395 32.9198C121.399 32.5986 120.623 32.1223 120.067 31.4908C119.521 30.8485 119.13 30.0778 118.895 29.1787C118.659 28.2688 118.541 26.9094 118.541 25.1004V19.6414C118.541 17.6611 118.755 16.1144 119.184 15.0012C119.612 13.8879 120.382 12.9942 121.496 12.3198C122.609 11.6454 124.033 11.3083 125.767 11.3083C127.222 11.3083 128.469 11.5277 129.508 11.9666C130.557 12.3947 131.365 12.9567 131.932 13.6525C132.499 14.3482 132.885 15.0654 133.088 15.804C133.302 16.5426 133.409 17.6665 133.409 19.1757ZM126.923 17.5701C126.923 16.4783 126.864 15.7933 126.746 15.515C126.628 15.226 126.377 15.0815 125.991 15.0815C125.606 15.0815 125.349 15.226 125.221 15.515C125.092 15.7933 125.028 16.4783 125.028 17.5701V27.1877C125.028 28.1939 125.092 28.8522 125.221 29.1626C125.349 29.4623 125.601 29.6122 125.975 29.6122C126.361 29.6122 126.612 29.473 126.73 29.1947C126.858 28.9164 126.923 28.317 126.923 27.3965V17.5701ZM141.173 11.6936L141.061 13.6525C141.532 12.8711 142.105 12.2877 142.779 11.9023C143.464 11.5063 144.251 11.3083 145.139 11.3083C146.252 11.3083 147.162 11.5705 147.869 12.095C148.575 12.6195 149.03 13.2832 149.233 14.086C149.437 14.8781 149.539 16.2054 149.539 18.0679V33H143.052V18.2445C143.052 16.778 143.004 15.8843 142.907 15.5631C142.811 15.242 142.543 15.0815 142.105 15.0815C141.644 15.0815 141.355 15.2688 141.238 15.6434C141.12 16.0074 141.061 16.9921 141.061 18.5977V33H134.574V11.6936H141.173ZM164.046 18.5014H158.298V17.3454C158.298 16.3606 158.239 15.7397 158.121 15.4829C158.014 15.2153 157.736 15.0815 157.287 15.0815C156.923 15.0815 156.65 15.2045 156.468 15.4507C156.286 15.6862 156.195 16.0448 156.195 16.5265C156.195 17.1794 156.238 17.6611 156.323 17.9715C156.42 18.2713 156.693 18.6031 157.142 18.967C157.602 19.331 158.539 19.8608 159.952 20.5566C161.836 21.4771 163.072 22.3441 163.661 23.1577C164.25 23.9712 164.544 25.154 164.544 26.706C164.544 28.4401 164.319 29.7514 163.87 30.6398C163.42 31.5175 162.665 32.1972 161.606 32.6789C160.557 33.1499 159.288 33.3854 157.8 33.3854C156.152 33.3854 154.739 33.1285 153.562 32.6147C152.395 32.1009 151.592 31.4051 151.153 30.5274C150.714 29.6497 150.495 28.3224 150.495 26.5455V25.5179H156.243V26.8666C156.243 28.0119 156.313 28.7559 156.452 29.0984C156.602 29.4409 156.891 29.6122 157.319 29.6122C157.779 29.6122 158.1 29.4998 158.282 29.275C158.464 29.0395 158.555 28.5525 158.555 27.8139C158.555 26.797 158.437 26.1601 158.202 25.9032C157.956 25.6463 156.698 24.8864 154.429 23.6233C152.523 22.5529 151.362 21.5842 150.944 20.7171C150.527 19.8394 150.318 18.8011 150.318 17.6023C150.318 15.9003 150.543 14.6479 150.993 13.8451C151.442 13.0316 152.202 12.4054 153.273 11.9666C154.354 11.5277 155.606 11.3083 157.03 11.3083C158.443 11.3083 159.641 11.4902 160.626 11.8542C161.622 12.2074 162.382 12.6784 162.906 13.2671C163.441 13.8558 163.763 14.4017 163.87 14.9048C163.987 15.4079 164.046 16.1947 164.046 17.2651V18.5014Z" fill="#28348A"/>
<path d="M3.53114 36.7207V42.5223H4.67802V43.9738H1.64506V36.7207H3.53114ZM8.90966 41.1066H6.56661V42.3923C6.56661 42.6611 6.58603 42.8344 6.62485 42.912C6.66368 42.9897 6.73835 43.0285 6.84885 43.0285C6.98624 43.0285 7.07733 42.9777 7.12213 42.8762C7.16992 42.7717 7.19381 42.5715 7.19381 42.2759V41.4919H8.90966V41.9309C8.90966 42.2983 8.88576 42.5805 8.83798 42.7776C8.79318 42.9747 8.68566 43.1853 8.51541 43.4093C8.34517 43.6333 8.12864 43.8021 7.86581 43.9155C7.60597 44.0261 7.27893 44.0813 6.88469 44.0813C6.5024 44.0813 6.16491 44.0261 5.87221 43.9155C5.57952 43.805 5.35104 43.6542 5.18677 43.4631C5.02549 43.2689 4.91349 43.0569 4.85077 42.8269C4.78805 42.5939 4.75669 42.2565 4.75669 41.8144V40.0807C4.75669 39.561 4.82688 39.1518 4.96725 38.8531C5.10762 38.5515 5.3376 38.3215 5.65717 38.1632C5.97675 38.0019 6.34411 37.9213 6.75925 37.9213C7.26699 37.9213 7.68512 38.0184 8.01365 38.2125C8.34517 38.4036 8.57664 38.659 8.70806 38.9786C8.84246 39.2952 8.90966 39.7417 8.90966 40.3181V41.1066ZM7.09525 40.1389V39.7043C7.09525 39.3967 7.07883 39.1981 7.04597 39.1085C7.01312 39.0189 6.94592 38.9741 6.84437 38.9741C6.71893 38.9741 6.64128 39.0129 6.61141 39.0906C6.58155 39.1652 6.56661 39.3698 6.56661 39.7043V40.1389H7.09525ZM12.418 38.0288L12.3867 38.553C12.548 38.3409 12.7257 38.1826 12.9198 38.0781C13.1139 37.9736 13.326 37.9213 13.556 37.9213C13.8367 37.9213 14.0786 37.9975 14.2817 38.1498C14.4878 38.2991 14.6162 38.4723 14.667 38.6695C14.7178 38.8666 14.7432 39.2011 14.7432 39.673V42.1773C14.7432 42.7179 14.7103 43.1032 14.6446 43.3331C14.5819 43.5601 14.4505 43.7423 14.2504 43.8797C14.0532 44.0141 13.8143 44.0813 13.5336 44.0813C13.3096 44.0813 13.102 44.029 12.9108 43.9245C12.7197 43.82 12.545 43.6647 12.3867 43.4586V44.8205H10.5768V38.0288H12.418ZM12.9332 39.7581C12.9332 39.3907 12.9198 39.1682 12.8929 39.0906C12.866 39.0129 12.7914 38.9741 12.6689 38.9741C12.5495 38.9741 12.4718 39.0189 12.436 39.1085C12.4031 39.1981 12.3867 39.4146 12.3867 39.7581V42.2221C12.3867 42.5805 12.4046 42.8045 12.4404 42.8941C12.4763 42.9837 12.5539 43.0285 12.6734 43.0285C12.7899 43.0285 12.8616 42.9882 12.8884 42.9075C12.9183 42.8239 12.9332 42.6238 12.9332 42.3072V39.7581ZM16.8782 38.0288L16.8065 38.8083C17.0693 38.2498 17.4501 37.9542 17.9489 37.9213V40.0135C17.6174 40.0135 17.3739 40.0583 17.2186 40.1479C17.0633 40.2375 16.9678 40.3629 16.9319 40.5242C16.8961 40.6825 16.8782 41.0498 16.8782 41.6263V43.9738H15.0682V38.0288H16.8782ZM22.176 40.1165V41.5725C22.176 42.1071 22.1491 42.4999 22.0954 42.7507C22.0416 42.9986 21.9266 43.2316 21.7504 43.4496C21.5742 43.6647 21.3472 43.8245 21.0695 43.929C20.7947 44.0305 20.4781 44.0813 20.1197 44.0813C19.7195 44.0813 19.3805 44.038 19.1027 43.9514C18.825 43.8618 18.6084 43.7289 18.4531 43.5527C18.3008 43.3735 18.1918 43.1584 18.1261 42.9075C18.0604 42.6537 18.0275 42.2744 18.0275 41.7696V40.2464C18.0275 39.6939 18.0873 39.2623 18.2067 38.9517C18.3262 38.6411 18.5412 38.3917 18.8519 38.2035C19.1625 38.0154 19.5597 37.9213 20.0435 37.9213C20.4497 37.9213 20.7977 37.9825 21.0874 38.105C21.3801 38.2244 21.6056 38.3812 21.7639 38.5754C21.9222 38.7695 22.0297 38.9696 22.0864 39.1757C22.1462 39.3818 22.176 39.6954 22.176 40.1165ZM20.3661 39.6685C20.3661 39.3639 20.3497 39.1727 20.3168 39.0951C20.284 39.0144 20.2138 38.9741 20.1063 38.9741C19.9987 38.9741 19.9271 39.0144 19.8912 39.0951C19.8554 39.1727 19.8375 39.3639 19.8375 39.6685V42.352C19.8375 42.6328 19.8554 42.8165 19.8912 42.9031C19.9271 42.9867 19.9973 43.0285 20.1018 43.0285C20.2093 43.0285 20.2795 42.9897 20.3123 42.912C20.3482 42.8344 20.3661 42.6671 20.3661 42.4103V39.6685ZM24.8083 36.7207V37.6391C24.435 37.6391 24.214 37.657 24.1453 37.6928C24.0796 37.7257 24.0467 37.8227 24.0467 37.984V38.1722H24.8083V39.113H24.3782V43.9738H22.5683V39.113H22.1965V38.1722H22.5683C22.5683 37.7809 22.5817 37.5196 22.6086 37.3882C22.6355 37.2568 22.7012 37.1403 22.8057 37.0387C22.9133 36.9342 23.0626 36.8551 23.2537 36.8013C23.4449 36.7475 23.7421 36.7207 24.1453 36.7207H24.8083ZM28.9772 41.1066H26.6342V42.3923C26.6342 42.6611 26.6536 42.8344 26.6924 42.912C26.7312 42.9897 26.8059 43.0285 26.9164 43.0285C27.0538 43.0285 27.1449 42.9777 27.1897 42.8762C27.2375 42.7717 27.2614 42.5715 27.2614 42.2759V41.4919H28.9772V41.9309C28.9772 42.2983 28.9533 42.5805 28.9055 42.7776C28.8607 42.9747 28.7532 43.1853 28.583 43.4093C28.4127 43.6333 28.1962 43.8021 27.9334 43.9155C27.6735 44.0261 27.3465 44.0813 26.9522 44.0813C26.57 44.0813 26.2325 44.0261 25.9398 43.9155C25.6471 43.805 25.4186 43.6542 25.2543 43.4631C25.093 43.2689 24.981 43.0569 24.9183 42.8269C24.8556 42.5939 24.8242 42.2565 24.8242 41.8144V40.0807C24.8242 39.561 24.8944 39.1518 25.0348 38.8531C25.1752 38.5515 25.4052 38.3215 25.7247 38.1632C26.0443 38.0019 26.4117 37.9213 26.8268 37.9213C27.3345 37.9213 27.7527 38.0184 28.0812 38.2125C28.4127 38.4036 28.6442 38.659 28.7756 38.9786C28.91 39.2952 28.9772 39.7417 28.9772 40.3181V41.1066ZM27.1628 40.1389V39.7043C27.1628 39.3967 27.1464 39.1981 27.1135 39.1085C27.0807 39.0189 27.0135 38.9741 26.9119 38.9741C26.7865 38.9741 26.7088 39.0129 26.679 39.0906C26.6491 39.1652 26.6342 39.3698 26.6342 39.7043V40.1389H27.1628ZM32.9938 39.9283H31.39V39.6058C31.39 39.331 31.3735 39.1578 31.3407 39.0861C31.3108 39.0114 31.2332 38.9741 31.1077 38.9741C31.0062 38.9741 30.93 39.0084 30.8792 39.0771C30.8285 39.1428 30.8031 39.2429 30.8031 39.3773C30.8031 39.5595 30.815 39.6939 30.8389 39.7805C30.8658 39.8641 30.942 39.9567 31.0674 40.0583C31.1958 40.1598 31.4572 40.3076 31.8514 40.5018C32.3771 40.7586 32.722 41.0006 32.8863 41.2275C33.0506 41.4545 33.1327 41.7846 33.1327 42.2176C33.1327 42.7015 33.07 43.0673 32.9445 43.3152C32.8191 43.5601 32.6085 43.7498 32.3128 43.8842C32.0202 44.0156 31.6662 44.0813 31.2511 44.0813C30.7911 44.0813 30.3969 44.0096 30.0684 43.8663C29.7428 43.7229 29.5188 43.5288 29.3964 43.2839C29.2739 43.039 29.2127 42.6686 29.2127 42.1728V41.8861H30.8165V42.2624C30.8165 42.582 30.8359 42.7896 30.8748 42.8851C30.9166 42.9807 30.9972 43.0285 31.1167 43.0285C31.2451 43.0285 31.3347 42.9971 31.3855 42.9344C31.4363 42.8687 31.4616 42.7328 31.4616 42.5267C31.4616 42.243 31.4288 42.0653 31.3631 41.9936C31.2944 41.9219 30.9435 41.7099 30.3103 41.3575C29.7787 41.0588 29.4546 40.7885 29.3381 40.5466C29.2216 40.3017 29.1634 40.012 29.1634 39.6775C29.1634 39.2026 29.2261 38.8531 29.3516 38.6291C29.477 38.4022 29.6891 38.2274 29.9877 38.105C30.2894 37.9825 30.6388 37.9213 31.036 37.9213C31.4303 37.9213 31.7648 37.9721 32.0396 38.0736C32.3173 38.1722 32.5294 38.3036 32.6757 38.4679C32.8251 38.6321 32.9147 38.7844 32.9445 38.9248C32.9774 39.0652 32.9938 39.2847 32.9938 39.5834V39.9283ZM37.0373 39.9283H35.4334V39.6058C35.4334 39.331 35.417 39.1578 35.3842 39.0861C35.3543 39.0114 35.2766 38.9741 35.1512 38.9741C35.0497 38.9741 34.9735 39.0084 34.9227 39.0771C34.8719 39.1428 34.8466 39.2429 34.8466 39.3773C34.8466 39.5595 34.8585 39.6939 34.8824 39.7805C34.9093 39.8641 34.9854 39.9567 35.1109 40.0583C35.2393 40.1598 35.5006 40.3076 35.8949 40.5018C36.4205 40.7586 36.7655 41.0006 36.9298 41.2275C37.094 41.4545 37.1762 41.7846 37.1762 42.2176C37.1762 42.7015 37.1134 43.0673 36.988 43.3152C36.8626 43.5601 36.652 43.7498 36.3563 43.8842C36.0636 44.0156 35.7097 44.0813 35.2946 44.0813C34.8346 44.0813 34.4404 44.0096 34.1118 43.8663C33.7863 43.7229 33.5623 43.5288 33.4398 43.2839C33.3174 43.039 33.2562 42.6686 33.2562 42.1728V41.8861H34.86V42.2624C34.86 42.582 34.8794 42.7896 34.9182 42.8851C34.9601 42.9807 35.0407 43.0285 35.1602 43.0285C35.2886 43.0285 35.3782 42.9971 35.429 42.9344C35.4797 42.8687 35.5051 42.7328 35.5051 42.5267C35.5051 42.243 35.4723 42.0653 35.4066 41.9936C35.3379 41.9219 34.9869 41.7099 34.3538 41.3575C33.8221 41.0588 33.4981 40.7885 33.3816 40.5466C33.2651 40.3017 33.2069 40.012 33.2069 39.6775C33.2069 39.2026 33.2696 38.8531 33.395 38.6291C33.5205 38.4022 33.7325 38.2274 34.0312 38.105C34.3328 37.9825 34.6823 37.9213 35.0795 37.9213C35.4738 37.9213 35.8083 37.9721 36.083 38.0736C36.3608 38.1722 36.5729 38.3036 36.7192 38.4679C36.8685 38.6321 36.9581 38.7844 36.988 38.9248C37.0209 39.0652 37.0373 39.2847 37.0373 39.5834V39.9283ZM39.2484 36.7207V37.6659H37.3847V36.7207H39.2484ZM39.2484 38.0288V43.9738H37.3847V38.0288H39.2484ZM43.722 40.1165V41.5725C43.722 42.1071 43.6951 42.4999 43.6413 42.7507C43.5876 42.9986 43.4726 43.2316 43.2964 43.4496C43.1202 43.6647 42.8932 43.8245 42.6154 43.929C42.3406 44.0305 42.0241 44.0813 41.6657 44.0813C41.2654 44.0813 40.9265 44.038 40.6487 43.9514C40.3709 43.8618 40.1544 43.7289 39.9991 43.5527C39.8468 43.3735 39.7378 43.1584 39.6721 42.9075C39.6064 42.6537 39.5735 42.2744 39.5735 41.7696V40.2464C39.5735 39.6939 39.6332 39.2623 39.7527 38.9517C39.8722 38.6411 40.0872 38.3917 40.3978 38.2035C40.7084 38.0154 41.1057 37.9213 41.5895 37.9213C41.9957 37.9213 42.3436 37.9825 42.6333 38.105C42.926 38.2244 43.1515 38.3812 43.3098 38.5754C43.4681 38.7695 43.5756 38.9696 43.6324 39.1757C43.6921 39.3818 43.722 39.6954 43.722 40.1165ZM41.9121 39.6685C41.9121 39.3639 41.8956 39.1727 41.8628 39.0951C41.8299 39.0144 41.7597 38.9741 41.6522 38.9741C41.5447 38.9741 41.473 39.0144 41.4372 39.0951C41.4013 39.1727 41.3834 39.3639 41.3834 39.6685V42.352C41.3834 42.6328 41.4013 42.8165 41.4372 42.9031C41.473 42.9867 41.5432 43.0285 41.6477 43.0285C41.7553 43.0285 41.8254 42.9897 41.8583 42.912C41.8941 42.8344 41.9121 42.6671 41.9121 42.4103V39.6685ZM45.8883 38.0288L45.857 38.5754C45.9884 38.3574 46.1482 38.1946 46.3363 38.0871C46.5275 37.9766 46.747 37.9213 46.9949 37.9213C47.3055 37.9213 47.5594 37.9945 47.7565 38.1408C47.9536 38.2872 48.0806 38.4723 48.1373 38.6963C48.194 38.9174 48.2224 39.2877 48.2224 39.8074V43.9738H46.4125V39.8567C46.4125 39.4475 46.3991 39.1981 46.3722 39.1085C46.3453 39.0189 46.2706 38.9741 46.1482 38.9741C46.0198 38.9741 45.9391 39.0264 45.9063 39.1309C45.8734 39.2324 45.857 39.5072 45.857 39.9552V43.9738H44.0471V38.0288H45.8883ZM50.4157 38.0288L50.3843 38.5754C50.5157 38.3574 50.6755 38.1946 50.8637 38.0871C51.0548 37.9766 51.2743 37.9213 51.5222 37.9213C51.8328 37.9213 52.0867 37.9945 52.2838 38.1408C52.4809 38.2872 52.6079 38.4723 52.6646 38.6963C52.7214 38.9174 52.7497 39.2877 52.7497 39.8074V43.9738H50.9398V39.8567C50.9398 39.4475 50.9264 39.1981 50.8995 39.1085C50.8726 39.0189 50.7979 38.9741 50.6755 38.9741C50.5471 38.9741 50.4664 39.0264 50.4336 39.1309C50.4007 39.2324 50.3843 39.5072 50.3843 39.9552V43.9738H48.5744V38.0288H50.4157ZM54.719 40.3315H53.021V39.9328C53.021 39.4729 53.0733 39.119 53.1778 38.8711C53.2854 38.6202 53.4989 38.3992 53.8185 38.208C54.1381 38.0169 54.5532 37.9213 55.0639 37.9213C55.6762 37.9213 56.1376 38.0303 56.4482 38.2483C56.7589 38.4634 56.9455 38.7292 57.0082 39.0458C57.071 39.3594 57.1023 40.0075 57.1023 40.9901V43.9738H55.3417V43.4451C55.2312 43.6572 55.0878 43.817 54.9116 43.9245C54.7384 44.029 54.5308 44.0813 54.2889 44.0813C53.9723 44.0813 53.6811 43.9932 53.4153 43.817C53.1525 43.6378 53.021 43.248 53.021 42.6477V42.1594C53.021 41.7144 53.0912 41.4112 53.2316 41.2499C53.372 41.0887 53.7199 40.9005 54.2754 40.6855C54.8698 40.4525 55.1879 40.2957 55.2297 40.2151C55.2715 40.1344 55.2924 39.9702 55.2924 39.7223C55.2924 39.4116 55.2685 39.21 55.2207 39.1175C55.1759 39.0219 55.0998 38.9741 54.9922 38.9741C54.8698 38.9741 54.7936 39.0144 54.7638 39.0951C54.7339 39.1727 54.719 39.3773 54.719 39.7088V40.3315ZM55.2924 41.1469C55.0027 41.359 54.834 41.5367 54.7862 41.68C54.7414 41.8234 54.719 42.0295 54.719 42.2983C54.719 42.6059 54.7384 42.8045 54.7772 42.8941C54.819 42.9837 54.8997 43.0285 55.0191 43.0285C55.1326 43.0285 55.2058 42.9942 55.2386 42.9255C55.2745 42.8538 55.2924 42.6686 55.2924 42.3699V41.1469ZM59.3135 36.7207V43.9738H57.4498V36.7207H59.3135ZM61.556 36.7207V37.6659H59.6923V36.7207H61.556ZM61.556 38.0288V43.9738H59.6923V38.0288H61.556ZM65.6308 39.9283H64.027V39.6058C64.027 39.331 64.0106 39.1578 63.9777 39.0861C63.9478 39.0114 63.8702 38.9741 63.7447 38.9741C63.6432 38.9741 63.567 39.0084 63.5163 39.0771C63.4655 39.1428 63.4401 39.2429 63.4401 39.3773C63.4401 39.5595 63.452 39.6939 63.4759 39.7805C63.5028 39.8641 63.579 39.9567 63.7044 40.0583C63.8328 40.1598 64.0942 40.3076 64.4884 40.5018C65.0141 40.7586 65.359 41.0006 65.5233 41.2275C65.6876 41.4545 65.7697 41.7846 65.7697 42.2176C65.7697 42.7015 65.707 43.0673 65.5815 43.3152C65.4561 43.5601 65.2455 43.7498 64.9499 43.8842C64.6572 44.0156 64.3032 44.0813 63.8881 44.0813C63.4282 44.0813 63.0339 44.0096 62.7054 43.8663C62.3798 43.7229 62.1558 43.5288 62.0334 43.2839C61.9109 43.039 61.8497 42.6686 61.8497 42.1728V41.8861H63.4535V42.2624C63.4535 42.582 63.473 42.7896 63.5118 42.8851C63.5536 42.9807 63.6342 43.0285 63.7537 43.0285C63.8821 43.0285 63.9717 42.9971 64.0225 42.9344C64.0733 42.8687 64.0987 42.7328 64.0987 42.5267C64.0987 42.243 64.0658 42.0653 64.0001 41.9936C63.9314 41.9219 63.5805 41.7099 62.9473 41.3575C62.4157 41.0588 62.0916 40.7885 61.9751 40.5466C61.8587 40.3017 61.8004 40.012 61.8004 39.6775C61.8004 39.2026 61.8631 38.8531 61.9886 38.6291C62.114 38.4022 62.3261 38.2274 62.6247 38.105C62.9264 37.9825 63.2758 37.9213 63.6731 37.9213C64.0673 37.9213 64.4018 37.9721 64.6766 38.0736C64.9543 38.1722 65.1664 38.3036 65.3127 38.4679C65.4621 38.6321 65.5517 38.7844 65.5815 38.9248C65.6144 39.0652 65.6308 39.2847 65.6308 39.5834V39.9283ZM67.7658 38.0288L67.7345 38.5933C67.8748 38.3693 68.0421 38.202 68.2362 38.0915C68.4303 37.978 68.6514 37.9213 68.8993 37.9213C69.3831 37.9213 69.7639 38.1453 70.0417 38.5933C70.194 38.3693 70.3657 38.202 70.5569 38.0915C70.748 37.978 70.9601 37.9213 71.193 37.9213C71.5006 37.9213 71.7545 37.996 71.9546 38.1453C72.1577 38.2946 72.2876 38.4783 72.3444 38.6963C72.4011 38.9114 72.4295 39.2623 72.4295 39.7491V43.9738H70.6733V40.0986C70.6733 39.5908 70.6554 39.2772 70.6196 39.1578C70.5867 39.0353 70.5076 38.9741 70.3821 38.9741C70.2537 38.9741 70.1701 39.0338 70.1313 39.1533C70.0954 39.2728 70.0775 39.5879 70.0775 40.0986V43.9738H68.3213V40.1971C68.3213 39.6147 68.3064 39.2653 68.2765 39.1488C68.2497 39.0323 68.172 38.9741 68.0436 38.9741C67.9629 38.9741 67.8942 39.0055 67.8375 39.0682C67.7807 39.1279 67.7494 39.2026 67.7434 39.2922C67.7374 39.3788 67.7345 39.5655 67.7345 39.8522V43.9738H65.9783V38.0288H67.7658ZM76.8807 41.1066H74.5376V42.3923C74.5376 42.6611 74.557 42.8344 74.5958 42.912C74.6347 42.9897 74.7093 43.0285 74.8198 43.0285C74.9572 43.0285 75.0483 42.9777 75.0931 42.8762C75.1409 42.7717 75.1648 42.5715 75.1648 42.2759V41.4919H76.8807V41.9309C76.8807 42.2983 76.8568 42.5805 76.809 42.7776C76.7642 42.9747 76.6567 43.1853 76.4864 43.4093C76.3162 43.6333 76.0996 43.8021 75.8368 43.9155C75.577 44.0261 75.2499 44.0813 74.8557 44.0813C74.4734 44.0813 74.1359 44.0261 73.8432 43.9155C73.5505 43.805 73.322 43.6542 73.1578 43.4631C72.9965 43.2689 72.8845 43.0569 72.8218 42.8269C72.759 42.5939 72.7277 42.2565 72.7277 41.8144V40.0807C72.7277 39.561 72.7979 39.1518 72.9382 38.8531C73.0786 38.5515 73.3086 38.3215 73.6282 38.1632C73.9477 38.0019 74.3151 37.9213 74.7302 37.9213C75.238 37.9213 75.6561 38.0184 75.9846 38.2125C76.3162 38.4036 76.5476 38.659 76.6791 38.9786C76.8135 39.2952 76.8807 39.7417 76.8807 40.3181V41.1066ZM75.0662 40.1389V39.7043C75.0662 39.3967 75.0498 39.1981 75.017 39.1085C74.9841 39.0189 74.9169 38.9741 74.8154 38.9741C74.6899 38.9741 74.6123 39.0129 74.5824 39.0906C74.5525 39.1652 74.5376 39.3698 74.5376 39.7043V40.1389H75.0662ZM80.165 40.3315H78.4671V39.9328C78.4671 39.4729 78.5194 39.119 78.6239 38.8711C78.7314 38.6202 78.945 38.3992 79.2646 38.208C79.5841 38.0169 79.9993 37.9213 80.51 37.9213C81.1223 37.9213 81.5837 38.0303 81.8943 38.2483C82.2049 38.4634 82.3916 38.7292 82.4543 39.0458C82.517 39.3594 82.5484 40.0075 82.5484 40.9901V43.9738H80.7878V43.4451C80.6772 43.6572 80.5339 43.817 80.3577 43.9245C80.1844 44.029 79.9769 44.0813 79.735 44.0813C79.4184 44.0813 79.1272 43.9932 78.8613 43.817C78.5985 43.6378 78.4671 43.248 78.4671 42.6477V42.1594C78.4671 41.7144 78.5373 41.4112 78.6777 41.2499C78.818 41.0887 79.166 40.9005 79.7215 40.6855C80.3159 40.4525 80.6339 40.2957 80.6758 40.2151C80.7176 40.1344 80.7385 39.9702 80.7385 39.7223C80.7385 39.4116 80.7146 39.21 80.6668 39.1175C80.622 39.0219 80.5458 38.9741 80.4383 38.9741C80.3159 38.9741 80.2397 39.0144 80.2098 39.0951C80.18 39.1727 80.165 39.3773 80.165 39.7088V40.3315ZM80.7385 41.1469C80.4488 41.359 80.28 41.5367 80.2322 41.68C80.1874 41.8234 80.165 42.0295 80.165 42.2983C80.165 42.6059 80.1844 42.8045 80.2233 42.8941C80.2651 42.9837 80.3457 43.0285 80.4652 43.0285C80.5787 43.0285 80.6519 42.9942 80.6847 42.9255C80.7206 42.8538 80.7385 42.6686 80.7385 42.3699V41.1469ZM87.0399 38.0288V43.9738H85.1986L85.2299 43.481C85.1045 43.6811 84.9492 43.8319 84.764 43.9335C84.5818 44.032 84.3713 44.0813 84.1323 44.0813C83.8606 44.0813 83.6351 44.0335 83.4559 43.9379C83.2767 43.8424 83.1438 43.7154 83.0571 43.5571C82.9735 43.3989 82.9213 43.2346 82.9003 43.0643C82.8794 42.8911 82.869 42.5491 82.869 42.0384V38.0288H84.6789V42.0743C84.6789 42.5372 84.6923 42.812 84.7192 42.8986C84.7491 42.9852 84.8267 43.0285 84.9522 43.0285C85.0866 43.0285 85.1657 42.9837 85.1896 42.8941C85.2165 42.8045 85.2299 42.5163 85.2299 42.0295V38.0288H87.0399ZM92.4567 39.9283H90.8529V39.6058C90.8529 39.331 90.8365 39.1578 90.8036 39.0861C90.7737 39.0114 90.6961 38.9741 90.5707 38.9741C90.4691 38.9741 90.3929 39.0084 90.3422 39.0771C90.2914 39.1428 90.266 39.2429 90.266 39.3773C90.266 39.5595 90.278 39.6939 90.3019 39.7805C90.3287 39.8641 90.4049 39.9567 90.5303 40.0583C90.6588 40.1598 90.9201 40.3076 91.3143 40.5018C91.84 40.7586 92.1849 41.0006 92.3492 41.2275C92.5135 41.4545 92.5956 41.7846 92.5956 42.2176C92.5956 42.7015 92.5329 43.0673 92.4075 43.3152C92.282 43.5601 92.0715 43.7498 91.7758 43.8842C91.4831 44.0156 91.1292 44.0813 90.714 44.0813C90.2541 44.0813 89.8598 44.0096 89.5313 43.8663C89.2057 43.7229 88.9817 43.5288 88.8593 43.2839C88.7368 43.039 88.6756 42.6686 88.6756 42.1728V41.8861H90.2795V42.2624C90.2795 42.582 90.2989 42.7896 90.3377 42.8851C90.3795 42.9807 90.4601 43.0285 90.5796 43.0285C90.708 43.0285 90.7976 42.9971 90.8484 42.9344C90.8992 42.8687 90.9246 42.7328 90.9246 42.5267C90.9246 42.243 90.8917 42.0653 90.826 41.9936C90.7573 41.9219 90.4064 41.7099 89.7732 41.3575C89.2416 41.0588 88.9175 40.7885 88.8011 40.5466C88.6846 40.3017 88.6263 40.012 88.6263 39.6775C88.6263 39.2026 88.6891 38.8531 88.8145 38.6291C88.9399 38.4022 89.152 38.2274 89.4507 38.105C89.7523 37.9825 90.1017 37.9213 90.499 37.9213C90.8932 37.9213 91.2277 37.9721 91.5025 38.0736C91.7803 38.1722 91.9923 38.3036 92.1387 38.4679C92.288 38.6321 92.3776 38.7844 92.4075 38.9248C92.4403 39.0652 92.4567 39.2847 92.4567 39.5834V39.9283ZM96.9034 41.1066H94.5604V42.3923C94.5604 42.6611 94.5798 42.8344 94.6186 42.912C94.6574 42.9897 94.7321 43.0285 94.8426 43.0285C94.98 43.0285 95.0711 42.9777 95.1159 42.8762C95.1637 42.7717 95.1876 42.5715 95.1876 42.2759V41.4919H96.9034V41.9309C96.9034 42.2983 96.8795 42.5805 96.8317 42.7776C96.7869 42.9747 96.6794 43.1853 96.5092 43.4093C96.3389 43.6333 96.1224 43.8021 95.8596 43.9155C95.5997 44.0261 95.2727 44.0813 94.8784 44.0813C94.4962 44.0813 94.1587 44.0261 93.866 43.9155C93.5733 43.805 93.3448 43.6542 93.1805 43.4631C93.0192 43.2689 92.9072 43.0569 92.8445 42.8269C92.7818 42.5939 92.7504 42.2565 92.7504 41.8144V40.0807C92.7504 39.561 92.8206 39.1518 92.961 38.8531C93.1014 38.5515 93.3314 38.3215 93.6509 38.1632C93.9705 38.0019 94.3379 37.9213 94.753 37.9213C95.2607 37.9213 95.6789 38.0184 96.0074 38.2125C96.3389 38.4036 96.5704 38.659 96.7018 38.9786C96.8362 39.2952 96.9034 39.7417 96.9034 40.3181V41.1066ZM95.089 40.1389V39.7043C95.089 39.3967 95.0726 39.1981 95.0397 39.1085C95.0069 39.0189 94.9397 38.9741 94.8381 38.9741C94.7127 38.9741 94.635 39.0129 94.6052 39.0906C94.5753 39.1652 94.5604 39.3698 94.5604 39.7043V40.1389H95.089ZM99.0339 38.0288L98.9622 38.8083C99.2251 38.2498 99.6059 37.9542 100.105 37.9213V40.0135C99.7731 40.0135 99.5297 40.0583 99.3744 40.1479C99.2191 40.2375 99.1235 40.3629 99.0877 40.5242C99.0518 40.6825 99.0339 41.0498 99.0339 41.6263V43.9738H97.224V38.0288H99.0339ZM103.978 38.0288L103.131 43.9738H100.77L99.8608 38.0288H101.478L101.984 42.3655C102.023 42.0489 102.089 41.2723 102.181 40.0359C102.235 39.3459 102.295 38.6769 102.361 38.0288H103.978ZM105.84 36.7207V37.6659H103.976V36.7207H105.84ZM105.84 38.0288V43.9738H103.976V38.0288H105.84ZM110.219 40.2733H108.512V39.5879C108.512 39.3489 108.493 39.1876 108.454 39.104C108.415 39.0174 108.343 38.9741 108.239 38.9741C108.134 38.9741 108.064 39.0114 108.028 39.0861C107.993 39.1608 107.975 39.328 107.975 39.5879V42.3923C107.975 42.6044 108.001 42.7642 108.055 42.8717C108.109 42.9762 108.188 43.0285 108.293 43.0285C108.415 43.0285 108.497 42.9733 108.539 42.8627C108.584 42.7522 108.606 42.5432 108.606 42.2355V41.5277H110.219C110.216 42.0026 110.198 42.3595 110.165 42.5984C110.135 42.8344 110.035 43.0778 109.865 43.3287C109.698 43.5766 109.478 43.7647 109.207 43.8931C108.935 44.0186 108.599 44.0813 108.199 44.0813C107.688 44.0813 107.283 43.9947 106.985 43.8215C106.686 43.6453 106.474 43.4003 106.348 43.0867C106.226 42.7702 106.165 42.3222 106.165 41.7427V40.0538C106.165 39.549 106.215 39.1682 106.317 38.9114C106.419 38.6545 106.635 38.426 106.967 38.2259C107.298 38.0228 107.701 37.9213 108.176 37.9213C108.648 37.9213 109.051 38.0214 109.386 38.2215C109.72 38.4216 109.943 38.6739 110.053 38.9786C110.164 39.2832 110.219 39.7148 110.219 40.2733ZM114.585 41.1066H112.242V42.3923C112.242 42.6611 112.261 42.8344 112.3 42.912C112.339 42.9897 112.414 43.0285 112.524 43.0285C112.662 43.0285 112.753 42.9777 112.798 42.8762C112.845 42.7717 112.869 42.5715 112.869 42.2759V41.4919H114.585V41.9309C114.585 42.2983 114.561 42.5805 114.513 42.7776C114.469 42.9747 114.361 43.1853 114.191 43.4093C114.021 43.6333 113.804 43.8021 113.541 43.9155C113.281 44.0261 112.954 44.0813 112.56 44.0813C112.178 44.0813 111.84 44.0261 111.548 43.9155C111.255 43.805 111.026 43.6542 110.862 43.4631C110.701 43.2689 110.589 43.0569 110.526 42.8269C110.463 42.5939 110.432 42.2565 110.432 41.8144V40.0807C110.432 39.561 110.502 39.1518 110.643 38.8531C110.783 38.5515 111.013 38.3215 111.333 38.1632C111.652 38.0019 112.02 37.9213 112.435 37.9213C112.942 37.9213 113.361 38.0184 113.689 38.2125C114.021 38.4036 114.252 38.659 114.383 38.9786C114.518 39.2952 114.585 39.7417 114.585 40.3181V41.1066ZM112.771 40.1389V39.7043C112.771 39.3967 112.754 39.1981 112.721 39.1085C112.689 39.0189 112.621 38.9741 112.52 38.9741C112.394 38.9741 112.317 39.0129 112.287 39.0906C112.257 39.1652 112.242 39.3698 112.242 39.7043V40.1389H112.771ZM120.369 36.7207V43.9738H118.559V43.5437C118.386 43.7229 118.204 43.8573 118.013 43.9469C117.822 44.0365 117.622 44.0813 117.413 44.0813C117.132 44.0813 116.888 44.0081 116.682 43.8618C116.476 43.7125 116.343 43.5407 116.284 43.3466C116.227 43.1525 116.198 42.8359 116.198 42.3968V39.6147C116.198 39.1578 116.227 38.8337 116.284 38.6426C116.343 38.4514 116.478 38.2842 116.687 38.1408C116.896 37.9945 117.145 37.9213 117.435 37.9213C117.659 37.9213 117.864 37.9616 118.049 38.0423C118.237 38.1229 118.407 38.2439 118.559 38.4051V36.7207H120.369ZM118.559 39.5251C118.559 39.3071 118.54 39.1608 118.501 39.0861C118.465 39.0114 118.392 38.9741 118.282 38.9741C118.174 38.9741 118.101 39.0084 118.062 39.0771C118.026 39.1428 118.008 39.2922 118.008 39.5251V42.4371C118.008 42.6791 118.026 42.8389 118.062 42.9165C118.098 42.9912 118.167 43.0285 118.268 43.0285C118.385 43.0285 118.462 42.9867 118.501 42.9031C118.54 42.8165 118.559 42.6074 118.559 42.2759V39.5251ZM124.843 41.1066H122.5V42.3923C122.5 42.6611 122.519 42.8344 122.558 42.912C122.597 42.9897 122.672 43.0285 122.782 43.0285C122.919 43.0285 123.011 42.9777 123.055 42.8762C123.103 42.7717 123.127 42.5715 123.127 42.2759V41.4919H124.843V41.9309C124.843 42.2983 124.819 42.5805 124.771 42.7776C124.726 42.9747 124.619 43.1853 124.449 43.4093C124.278 43.6333 124.062 43.8021 123.799 43.9155C123.539 44.0261 123.212 44.0813 122.818 44.0813C122.436 44.0813 122.098 44.0261 121.805 43.9155C121.513 43.805 121.284 43.6542 121.12 43.4631C120.959 43.2689 120.847 43.0569 120.784 42.8269C120.721 42.5939 120.69 42.2565 120.69 41.8144V40.0807C120.69 39.561 120.76 39.1518 120.9 38.8531C121.041 38.5515 121.271 38.3215 121.59 38.1632C121.91 38.0019 122.277 37.9213 122.692 37.9213C123.2 37.9213 123.618 38.0184 123.947 38.2125C124.278 38.4036 124.51 38.659 124.641 38.9786C124.776 39.2952 124.843 39.7417 124.843 40.3181V41.1066ZM123.028 40.1389V39.7043C123.028 39.3967 123.012 39.1981 122.979 39.1085C122.946 39.0189 122.879 38.9741 122.778 38.9741C122.652 38.9741 122.574 39.0129 122.545 39.0906C122.515 39.1652 122.5 39.3698 122.5 39.7043V40.1389H123.028ZM128.374 36.7207V43.9738H126.51V36.7207H128.374ZM129.805 36.7207V37.3703C129.805 37.7078 129.765 37.987 129.684 38.208C129.604 38.426 129.463 38.6112 129.263 38.7635C129.066 38.9129 128.842 39.0144 128.591 39.0682V38.544C128.77 38.4455 128.872 38.3111 128.896 38.1408H128.591V36.7207H129.805ZM131.882 36.7207V37.6659H130.018V36.7207H131.882ZM131.882 38.0288V43.9738H130.018V38.0288H131.882ZM134.102 38.0288L134.071 38.5754C134.202 38.3574 134.362 38.1946 134.55 38.0871C134.741 37.9766 134.961 37.9213 135.209 37.9213C135.519 37.9213 135.773 37.9945 135.97 38.1408C136.167 38.2872 136.294 38.4723 136.351 38.6963C136.408 38.9174 136.436 39.2877 136.436 39.8074V43.9738H134.626V39.8567C134.626 39.4475 134.613 39.1981 134.586 39.1085C134.559 39.0189 134.484 38.9741 134.362 38.9741C134.234 38.9741 134.153 39.0264 134.12 39.1309C134.087 39.2324 134.071 39.5072 134.071 39.9552V43.9738H132.261V38.0288H134.102ZM140.905 36.7207V43.9738H139.095V43.5437C138.922 43.7229 138.74 43.8573 138.549 43.9469C138.358 44.0365 138.158 44.0813 137.949 44.0813C137.668 44.0813 137.424 44.0081 137.218 43.8618C137.012 43.7125 136.879 43.5407 136.82 43.3466C136.763 43.1525 136.734 42.8359 136.734 42.3968V39.6147C136.734 39.1578 136.763 38.8337 136.82 38.6426C136.879 38.4514 137.014 38.2842 137.223 38.1408C137.432 37.9945 137.681 37.9213 137.971 37.9213C138.195 37.9213 138.399 37.9616 138.585 38.0423C138.773 38.1229 138.943 38.2439 139.095 38.4051V36.7207H140.905ZM139.095 39.5251C139.095 39.3071 139.076 39.1608 139.037 39.0861C139.001 39.0114 138.928 38.9741 138.818 38.9741C138.71 38.9741 138.637 39.0084 138.598 39.0771C138.562 39.1428 138.544 39.2922 138.544 39.5251V42.4371C138.544 42.6791 138.562 42.8389 138.598 42.9165C138.634 42.9912 138.703 43.0285 138.804 43.0285C138.921 43.0285 138.998 42.9867 139.037 42.9031C139.076 42.8165 139.095 42.6074 139.095 42.2759V39.5251ZM145.424 38.0288V43.9738H143.582L143.614 43.481C143.488 43.6811 143.333 43.8319 143.148 43.9335C142.966 44.032 142.755 44.0813 142.516 44.0813C142.244 44.0813 142.019 44.0335 141.84 43.9379C141.66 43.8424 141.528 43.7154 141.441 43.5571C141.357 43.3989 141.305 43.2346 141.284 43.0643C141.263 42.8911 141.253 42.5491 141.253 42.0384V38.0288H143.063V42.0743C143.063 42.5372 143.076 42.812 143.103 42.8986C143.133 42.9852 143.211 43.0285 143.336 43.0285C143.47 43.0285 143.55 42.9837 143.573 42.8941C143.6 42.8045 143.614 42.5163 143.614 42.0295V38.0288H145.424ZM149.494 39.9283H147.89V39.6058C147.89 39.331 147.874 39.1578 147.841 39.0861C147.811 39.0114 147.733 38.9741 147.608 38.9741C147.506 38.9741 147.43 39.0084 147.379 39.0771C147.329 39.1428 147.303 39.2429 147.303 39.3773C147.303 39.5595 147.315 39.6939 147.339 39.7805C147.366 39.8641 147.442 39.9567 147.568 40.0583C147.696 40.1598 147.957 40.3076 148.352 40.5018C148.877 40.7586 149.222 41.0006 149.386 41.2275C149.551 41.4545 149.633 41.7846 149.633 42.2176C149.633 42.7015 149.57 43.0673 149.445 43.3152C149.319 43.5601 149.109 43.7498 148.813 43.8842C148.52 44.0156 148.166 44.0813 147.751 44.0813C147.291 44.0813 146.897 44.0096 146.569 43.8663C146.243 43.7229 146.019 43.5288 145.897 43.2839C145.774 43.039 145.713 42.6686 145.713 42.1728V41.8861H147.317V42.2624C147.317 42.582 147.336 42.7896 147.375 42.8851C147.417 42.9807 147.497 43.0285 147.617 43.0285C147.745 43.0285 147.835 42.9971 147.886 42.9344C147.936 42.8687 147.962 42.7328 147.962 42.5267C147.962 42.243 147.929 42.0653 147.863 41.9936C147.795 41.9219 147.444 41.7099 146.81 41.3575C146.279 41.0588 145.955 40.7885 145.838 40.5466C145.722 40.3017 145.664 40.012 145.664 39.6775C145.664 39.2026 145.726 38.8531 145.852 38.6291C145.977 38.4022 146.189 38.2274 146.488 38.105C146.79 37.9825 147.139 37.9213 147.536 37.9213C147.93 37.9213 148.265 37.9721 148.54 38.0736C148.818 38.1722 149.03 38.3036 149.176 38.4679C149.325 38.6321 149.415 38.7844 149.445 38.9248C149.478 39.0652 149.494 39.2847 149.494 39.5834V39.9283ZM151.75 37.2359V38.1722H152.238V39.113H151.75V42.2938C151.75 42.685 151.769 42.9031 151.808 42.9479C151.85 42.9927 152.019 43.0151 152.314 43.0151V43.9738H151.584C151.172 43.9738 150.878 43.9574 150.702 43.9245C150.525 43.8887 150.37 43.8095 150.236 43.6871C150.101 43.5616 150.018 43.4198 149.985 43.2615C149.952 43.1002 149.936 42.7239 149.936 42.1325V39.113H149.546V38.1722H149.936V37.2359H151.75ZM154.172 38.0288L154.1 38.8083C154.363 38.2498 154.744 37.9542 155.242 37.9213V40.0135C154.911 40.0135 154.667 40.0583 154.512 40.1479C154.357 40.2375 154.261 40.3629 154.225 40.5242C154.19 40.6825 154.172 41.0498 154.172 41.6263V43.9738H152.362V38.0288H154.172ZM157.239 36.7207V37.6659H155.375V36.7207H157.239ZM157.239 38.0288V43.9738H155.375V38.0288H157.239ZM161.717 41.1066H159.373V42.3923C159.373 42.6611 159.393 42.8344 159.432 42.912C159.471 42.9897 159.545 43.0285 159.656 43.0285C159.793 43.0285 159.884 42.9777 159.929 42.8762C159.977 42.7717 160.001 42.5715 160.001 42.2759V41.4919H161.717V41.9309C161.717 42.2983 161.693 42.5805 161.645 42.7776C161.6 42.9747 161.493 43.1853 161.322 43.4093C161.152 43.6333 160.936 43.8021 160.673 43.9155C160.413 44.0261 160.086 44.0813 159.692 44.0813C159.309 44.0813 158.972 44.0261 158.679 43.9155C158.386 43.805 158.158 43.6542 157.994 43.4631C157.832 43.2689 157.72 43.0569 157.658 42.8269C157.595 42.5939 157.564 42.2565 157.564 41.8144V40.0807C157.564 39.561 157.634 39.1518 157.774 38.8531C157.915 38.5515 158.144 38.3215 158.464 38.1632C158.784 38.0019 159.151 37.9213 159.566 37.9213C160.074 37.9213 160.492 38.0184 160.821 38.2125C161.152 38.4036 161.384 38.659 161.515 38.9786C161.649 39.2952 161.717 39.7417 161.717 40.3181V41.1066ZM159.902 40.1389V39.7043C159.902 39.3967 159.886 39.1981 159.853 39.1085C159.82 39.0189 159.753 38.9741 159.651 38.9741C159.526 38.9741 159.448 39.0129 159.418 39.0906C159.388 39.1652 159.373 39.3698 159.373 39.7043V40.1389H159.902Z" fill="#00973A"/>
</g>
<defs>
<clipPath id="clip0_67_3081">
<rect width="172" height="46" fill="white"/>
</clipPath>
</defs>
</svg>
