<svg width="46" height="34" viewBox="0 0 46 34" fill="none" xmlns="http://www.w3.org/2000/svg">
<path d="M36.1904 6.79185V33H30.2332V15.3067L27.8536 33H23.6286L21.1195 15.7114V33H15.1623V6.79185H23.9847C24.2437 8.36746 24.5189 10.2237 24.8103 12.3605L25.7492 19.0299L27.3032 6.79185H36.1904Z" fill="#E20613"/>
<path d="M14.4882 18.1557C15.481 18.4903 16.2203 19.0407 16.7059 19.8069C17.1916 20.5623 17.4344 22.343 17.4344 25.1489C17.4344 27.2317 17.197 28.8505 16.7221 30.0052C16.2473 31.1492 15.4271 32.0233 14.2616 32.6277C13.096 33.2212 11.6014 33.518 9.77752 33.518C7.70547 33.518 6.07589 33.1727 4.88878 32.482C3.71247 31.7805 2.93545 30.928 2.55773 29.9243C2.19081 28.9099 2.00734 27.1562 2.00734 24.6632V22.5912H8.54724V26.8486C8.54724 27.9818 8.61199 28.7048 8.7415 29.0178C8.88179 29.32 9.18396 29.471 9.64802 29.471C10.1552 29.471 10.4898 29.2768 10.6517 28.8883C10.8135 28.4998 10.8945 27.4853 10.8945 25.845V24.0319C10.8945 23.0283 10.7812 22.2944 10.5545 21.8304C10.3279 21.3663 9.99336 21.0641 9.55089 20.9239C9.10842 20.7728 8.25046 20.6864 6.97702 20.6648V16.8607C8.53105 16.8607 9.49153 16.8013 9.85846 16.6826C10.2254 16.5639 10.4898 16.3049 10.6517 15.9056C10.8135 15.5063 10.8945 14.8804 10.8945 14.0278V12.5709C10.8945 11.6536 10.7974 11.0493 10.6031 10.7579C10.4196 10.4665 10.1283 10.3208 9.72896 10.3208C9.2757 10.3208 8.96273 10.4773 8.79006 10.7902C8.62818 11.0924 8.54724 11.7453 8.54724 12.749V14.902H2.00734V12.668C2.00734 10.1643 2.57931 8.47538 3.72326 7.60124C4.8672 6.7163 6.68564 6.27383 9.17857 6.27383C12.2974 6.27383 14.4126 6.88358 15.5242 8.10306C16.6358 9.32255 17.1916 11.0169 17.1916 13.1861C17.1916 14.6538 16.9919 15.7168 16.5926 16.3751C16.1933 17.0226 15.4918 17.6161 14.4882 18.1557Z" fill="white"/>
<path d="M13.4521 18.1557C14.445 18.4903 15.1842 19.0407 15.6699 19.8069C16.1555 20.5623 16.3983 22.343 16.3983 25.1489C16.3983 27.2317 16.1609 28.8505 15.686 30.0052C15.2112 31.1492 14.391 32.0233 13.2255 32.6277C12.06 33.2212 10.5653 33.518 8.74145 33.518C6.6694 33.518 5.03982 33.1727 3.85271 32.482C2.67639 31.7805 1.89938 30.928 1.52166 29.9243C1.15473 28.9099 0.971272 27.1562 0.971272 24.6632V22.5912H7.51117V26.8486C7.51117 27.9818 7.57592 28.7048 7.70542 29.0178C7.84572 29.32 8.14789 29.471 8.61194 29.471C9.11916 29.471 9.45371 29.2768 9.61559 28.8883C9.77747 28.4998 9.85841 27.4853 9.85841 25.845V24.0319C9.85841 23.0283 9.74509 22.2944 9.51846 21.8304C9.29183 21.3663 8.95729 21.0641 8.51482 20.9239C8.07235 20.7728 7.21439 20.6864 5.94095 20.6648V16.8607C7.49498 16.8607 8.45546 16.8013 8.82239 16.6826C9.18931 16.5639 9.45371 16.3049 9.61559 15.9056C9.77747 15.5063 9.85841 14.8804 9.85841 14.0278V12.5709C9.85841 11.6536 9.76128 11.0493 9.56703 10.7579C9.38357 10.4665 9.09218 10.3208 8.69288 10.3208C8.23962 10.3208 7.92666 10.4773 7.75399 10.7902C7.59211 11.0924 7.51117 11.7453 7.51117 12.749V14.902H0.971272V12.668C0.971272 10.1643 1.54324 8.47538 2.68719 7.60124C3.83113 6.7163 5.64956 6.27383 8.1425 6.27383C11.2614 6.27383 13.3766 6.88358 14.4881 8.10306C15.5997 9.32255 16.1555 11.0169 16.1555 13.1861C16.1555 14.6538 15.9558 15.7168 15.5565 16.3751C15.1572 17.0226 14.4558 17.6161 13.4521 18.1557Z" fill="#E20613"/>
<path d="M32.8077 12.0127C27.7509 19.6829 9.63105 24.7964 1.20319 26.3944C18.6718 27.3532 31.85 18.804 36.2554 14.4096L38.5539 15.6081L39.7032 7.21877L30.5092 10.215L32.8077 12.0127Z" fill="#00973A" stroke="white" stroke-width="1.03602" stroke-linejoin="round"/>
</svg>
