<?xml version="1.0" encoding="UTF-8"?>
<svg xmlns="http://www.w3.org/2000/svg" width="198" height="63" viewBox="0 0 198 63" fill="none">
  <path d="M13.56 42.424C13.56 43.624 13.776 44.752 14.208 45.808C14.64 46.816 15.216 47.704 15.936 48.472C16.704 49.24 17.592 49.84 18.6 50.272C19.656 50.704 20.784 50.92 21.984 50.92C23.136 50.92 24.216 50.704 25.224 50.272C26.28 49.84 27.168 49.24 27.888 48.472C28.656 47.704 29.256 46.816 29.688 45.808C30.168 44.8 30.408 43.72 30.408 42.568C30.408 41.416 30.168 40.336 29.688 39.328C29.256 38.272 28.656 37.36 27.888 36.592C27.168 35.824 26.28 35.224 25.224 34.792C24.216 34.36 23.136 34.144 21.984 34.144C20.784 34.144 19.656 34.36 18.6 34.792C17.592 35.224 16.704 35.824 15.936 36.592C15.216 37.36 14.64 38.248 14.208 39.256C13.776 40.216 13.56 41.272 13.56 42.424ZM29.976 24.064H43.08V61H29.976V56.896C27.192 60.4 23.424 62.152 18.672 62.152C15.984 62.152 13.512 61.672 11.256 60.712C9 59.704 7.032 58.312 5.352 56.536C3.672 54.76 2.352 52.672 1.392 50.272C0.48 47.872 0.0240002 45.256 0.0240002 42.424C0.0240002 39.784 0.48 37.288 1.392 34.936C2.304 32.536 3.576 30.448 5.208 28.672C6.84 26.896 8.784 25.504 11.04 24.496C13.296 23.44 15.792 22.912 18.528 22.912C23.136 22.912 26.952 24.52 29.976 27.736V24.064ZM65.2684 34.936V61H52.2364V34.936H47.5564V24.064H52.2364V18.52C52.2364 15.448 52.5244 13 53.1004 11.176C53.5804 9.64 54.3484 8.224 55.4044 6.928C56.4604 5.584 57.6844 4.432 59.0764 3.472C60.5164 2.512 62.0524 1.768 63.6844 1.24C65.3164 0.711998 66.9244 0.447999 68.5084 0.447999C69.6124 0.447999 70.6204 0.567998 71.5324 0.807998C72.4924 1.048 73.4524 1.384 74.4124 1.816V13.192C73.5484 12.76 72.7324 12.448 71.9644 12.256C71.2444 12.016 70.4764 11.896 69.6604 11.896C69.1324 11.896 68.5804 11.992 68.0044 12.184C67.4764 12.328 66.9724 12.664 66.4924 13.192C66.0124 13.72 65.6764 14.488 65.4844 15.496C65.3404 16.456 65.2684 17.776 65.2684 19.456V24.064H74.4124V34.936H65.2684ZM106.353 36.016C104.097 34.48 101.817 33.712 99.5134 33.712C98.2654 33.712 97.0894 33.928 95.9854 34.36C94.9294 34.792 93.9934 35.416 93.1774 36.232C92.3614 37 91.7134 37.936 91.2334 39.04C90.8014 40.096 90.5854 41.296 90.5854 42.64C90.5854 43.936 90.8014 45.136 91.2334 46.24C91.7134 47.296 92.3374 48.232 93.1054 49.048C93.9214 49.816 94.8814 50.416 95.9854 50.848C97.0894 51.28 98.2654 51.496 99.5134 51.496C101.961 51.496 104.241 50.656 106.353 48.976V60.064C103.137 61.456 100.089 62.152 97.2094 62.152C94.5214 62.152 91.9534 61.696 89.5054 60.784C87.1054 59.872 84.9694 58.576 83.0974 56.896C81.2734 55.168 79.8094 53.128 78.7054 50.776C77.6014 48.376 77.0494 45.712 77.0494 42.784C77.0494 39.856 77.5774 37.192 78.6334 34.792C79.6894 32.344 81.1294 30.256 82.9534 28.528C84.7774 26.752 86.9374 25.384 89.4334 24.424C91.9774 23.416 94.6894 22.912 97.5694 22.912C100.737 22.912 103.665 23.584 106.353 24.928V36.016ZM139.994 37.168C139.562 35.344 138.674 33.88 137.33 32.776C135.986 31.672 134.354 31.12 132.434 31.12C130.418 31.12 128.762 31.648 127.466 32.704C126.218 33.76 125.426 35.248 125.09 37.168H139.994ZM124.73 44.728C124.73 50.344 127.37 53.152 132.65 53.152C135.482 53.152 137.618 52 139.058 49.696H151.658C149.114 58.144 142.754 62.368 132.578 62.368C129.458 62.368 126.602 61.912 124.01 61C121.418 60.04 119.186 58.696 117.314 56.968C115.49 55.24 114.074 53.176 113.066 50.776C112.058 48.376 111.554 45.688 111.554 42.712C111.554 39.64 112.034 36.88 112.994 34.432C113.954 31.936 115.322 29.824 117.098 28.096C118.874 26.368 121.01 25.048 123.506 24.136C126.05 23.176 128.906 22.696 132.074 22.696C135.194 22.696 138.002 23.176 140.498 24.136C142.994 25.048 145.106 26.392 146.834 28.168C148.562 29.944 149.882 32.128 150.794 34.72C151.706 37.264 152.162 40.144 152.162 43.36V44.728H124.73ZM158.819 24.064H171.851V28.744C173.627 26.584 175.427 25.144 177.251 24.424C179.075 23.656 181.211 23.272 183.659 23.272C186.251 23.272 188.459 23.704 190.283 24.568C192.155 25.384 193.739 26.56 195.035 28.096C196.091 29.344 196.811 30.736 197.195 32.272C197.579 33.808 197.771 35.56 197.771 37.528V61H184.739V42.352C184.739 40.528 184.595 39.064 184.307 37.96C184.067 36.808 183.611 35.896 182.939 35.224C182.363 34.648 181.715 34.24 180.995 34C180.275 33.76 179.507 33.64 178.691 33.64C176.483 33.64 174.779 34.312 173.579 35.656C172.427 36.952 171.851 38.824 171.851 41.272V61H158.819V24.064Z" fill="#FF5500"></path>
</svg>
