<?xml version="1.0" encoding="UTF-8"?>
<svg xmlns="http://www.w3.org/2000/svg" width="162" height="134" viewBox="0 0 162 134" fill="none">
  <g clip-path="url(#clip0_525_3068)">
    <path d="M37.505 82.2564H28.9V51.5652H37.505V37.2161H0V51.5652H8.60493V82.2564H0V96.6022H37.505V82.2564Z" fill="#FF5500"></path>
    <path d="M53.7943 75.8024C53.6594 75.597 53.3424 75.1459 53.1233 74.8328H41.4533V96.5348H54.5563V92.0032C56.0804 93.0166 63.8828 97.8782 73.2498 97.8782C83.7025 97.8782 97.0212 93.333 97.0212 79.1523C97.0212 64.9716 81.2141 60.6756 78.8976 60.0022C76.5812 59.3289 64.6516 55.9217 62.5847 55.2484C60.5177 54.575 58.8352 53.6054 58.8352 52.3866C58.8352 51.1679 60.7301 49.8616 64.5673 49.8616C76.6655 49.8616 82.4751 57.3088 82.4751 57.3088C82.4751 57.3088 83.1293 58.1808 83.3484 58.4939H95.0184V38.1722H82.4886V41.8689C81.531 41.209 74.467 36.6067 63.5119 36.6067C49.0535 36.6067 41.0049 44.0977 41.0049 55.2921C41.0049 66.4866 51.1609 71.1159 53.9865 72.2942C56.8121 73.4726 67.8515 76.5868 72.572 78.0581C77.2926 79.5294 79.019 80.5832 79.019 81.3407C79.019 82.0982 76.9554 84.0745 71.0547 84.0745C60.7773 84.0745 55.4836 78.0211 54.5529 76.8494V76.8393C54.2562 76.4454 53.9123 75.9775 53.7943 75.799V75.8024Z" fill="#FF5500"></path>
    <path d="M130.284 36.4047C112.859 36.4047 98.5688 45.1044 98.5688 67.3081C98.5688 89.5118 114.083 97.831 130.362 97.831C146.641 97.831 162 89.5892 162 67.537C162 45.4848 146.638 36.4013 130.284 36.4013V36.4047ZM130.439 83.0308C124.478 83.0308 120.658 81.6571 120.658 67.234C120.658 52.8108 123.487 51.2857 130.669 51.2857C135.025 51.2857 140.299 51.5921 140.299 66.7761C140.299 81.9602 136.401 83.0308 130.439 83.0308Z" fill="#FF5500"></path>
    <path d="M39.2482 15.5207C41.4804 17.1704 43.8542 18.6653 46.3493 19.9985C42.1682 24.6513 38.4221 29.8058 37.8017 30.6677H40.3104C41.8142 28.6409 44.9298 24.5672 48.2139 20.9513C51.8016 22.7121 55.6185 24.1531 59.5973 25.2506C58.5385 27.4962 57.736 29.4591 57.2673 30.6644H59.4455C59.9446 29.4187 60.6796 27.6848 61.5968 25.7657C66.6748 27.0047 71.9955 27.6982 77.4377 27.8026V30.661H79.4608V27.8127C84.8625 27.7723 90.1529 27.1596 95.214 26.0048C96.0772 27.8262 96.7718 29.4725 97.2506 30.6644H99.4288C98.977 29.5028 98.2217 27.6477 97.2236 25.5132C101.277 24.4594 105.161 23.0589 108.823 21.3216C111.982 24.8399 114.933 28.7049 116.386 30.661H118.894C118.294 29.826 114.74 24.9341 110.704 20.389C113.479 18.9582 116.109 17.3287 118.567 15.514C124.09 19.7662 128.905 24.8836 132.824 30.661H135.258C123.295 12.228 102.504 0 78.9078 0C55.3117 0 34.5243 12.228 22.5576 30.6677H24.9921C28.9102 24.8937 33.7251 19.7729 39.2482 15.5207ZM60.5009 23.4056C56.7143 22.3855 53.0829 21.0456 49.6571 19.4093C50.1224 18.9279 50.5877 18.4599 51.0463 18.0155C55.7365 13.5007 63.4479 8.54144 65.1372 7.47418C66.5095 8.22834 68.0066 8.86129 69.5981 9.3663C68.3607 10.9857 65.933 14.2717 63.2894 18.4431C62.261 20.0658 61.3236 21.7728 60.4975 23.4023L60.5009 23.4056ZM77.4377 25.7859C72.3125 25.6849 67.3053 25.0452 62.5139 23.914C63.2625 22.4529 64.0987 20.9479 65.0023 19.5238C68.0505 14.7194 70.7985 11.1136 71.7123 9.94201C73.5398 10.3696 75.4584 10.6423 77.4377 10.7298V25.7859ZM79.4608 25.796V10.7534C81.4097 10.7197 83.3182 10.5144 85.1457 10.1474C86.191 11.4974 88.8109 14.9753 91.6972 19.5238C92.648 21.022 93.5213 22.6077 94.3002 24.143C89.5291 25.1968 84.5489 25.759 79.4608 25.796ZM96.3267 23.6649C95.4703 21.9546 94.4891 20.1534 93.4033 18.4431C90.8947 14.4871 88.5816 11.3257 87.2936 9.6289C88.9862 9.15419 90.5878 8.53808 92.0546 7.79066C94.4284 9.30906 101.32 13.8474 105.646 18.0121C106.22 18.5643 106.803 19.1568 107.383 19.7696C103.886 21.3822 100.181 22.6852 96.3233 23.6649H96.3267ZM116.875 14.2582C114.501 15.9685 111.965 17.5004 109.295 18.8504C108.55 18.0525 107.794 17.2782 107.053 16.561C103.006 12.6657 96.9808 8.57848 94.0305 6.65606C95.0319 6.00628 95.9491 5.28916 96.7684 4.50808C104.075 6.5921 110.859 9.92518 116.878 14.2582H116.875ZM78.9078 2.02005C84.2488 2.02005 89.4414 2.66983 94.4149 3.8886C90.6418 6.94897 84.9872 8.74345 78.9078 8.74345C72.8284 8.74345 67.1637 6.95234 63.394 3.8886C68.3674 2.66983 73.5634 2.01668 78.9078 2.01668V2.02005ZM61.0505 4.50808C61.7148 5.14439 62.4431 5.74031 63.2355 6.28909C60.5616 8.00613 53.973 12.3896 49.647 16.5577C49.0232 17.157 48.396 17.7966 47.7689 18.4565C45.3748 17.2041 43.0921 15.8035 40.9443 14.2548C46.963 9.92518 53.7438 6.58873 61.0539 4.50471L61.0505 4.50808Z" fill="#FF5500"></path>
    <path d="M132.83 103.332C128.997 108.985 124.3 114.012 118.925 118.207C116.366 116.284 113.618 114.567 110.711 113.066C114.211 109.123 117.35 104.921 118.51 103.332H115.991C114.437 105.403 111.719 108.914 108.83 112.136C105.168 110.402 101.28 108.999 97.2304 107.945C98.0868 106.113 98.7646 104.49 99.2232 103.332H97.0382C96.5763 104.46 95.9592 105.891 95.2174 107.457C90.1597 106.302 84.8726 105.689 79.4642 105.649V103.332H77.4411V105.659C71.9956 105.763 66.6748 106.457 61.6002 107.696C60.8112 106.039 60.1537 104.521 59.6681 103.332H57.4832C57.9653 104.544 58.6869 106.271 59.6007 108.211C55.6185 109.308 51.805 110.749 48.214 112.51C45.1996 109.19 42.3268 105.484 40.7116 103.332H38.1929C39.3933 104.975 42.7078 109.413 46.3527 113.47C43.7261 114.873 41.2343 116.456 38.8976 118.21C33.5229 114.012 28.8259 108.988 24.9921 103.336H22.561C34.5277 121.775 55.3151 134.003 78.9112 134.003C102.507 134.003 123.295 121.775 135.261 103.336H132.83V103.332ZM96.3268 109.8C100.184 110.776 103.89 112.082 107.386 113.695C106.803 114.308 106.223 114.9 105.647 115.456C101.334 119.607 94.4621 124.135 92.0715 125.667C90.6047 124.917 89.0031 124.3 87.3037 123.826C88.5918 122.125 90.9015 118.971 93.4034 115.025C94.4891 113.315 95.4703 111.513 96.3268 109.803V109.8ZM79.4608 107.669C84.5523 107.706 89.5325 108.268 94.3003 109.318C93.5214 110.854 92.6447 112.439 91.6938 113.938C88.8109 118.483 86.1978 121.954 85.1457 123.311C83.3249 122.947 81.4165 122.745 79.4574 122.711V107.665L79.4608 107.669ZM77.4377 107.679V122.735C75.4551 122.822 73.5298 123.092 71.7056 123.516C70.7851 122.334 68.0438 118.739 65.0024 113.941C64.0987 112.517 63.2625 111.012 62.514 109.547C67.2986 108.416 72.3091 107.78 77.4377 107.679ZM60.501 110.059C61.3271 111.692 62.2644 113.399 63.2929 115.022C65.9364 119.19 68.3607 122.472 69.6016 124.095C68.0067 124.6 66.513 125.236 65.1406 125.99C63.4446 124.92 55.7366 119.964 51.0497 115.453C50.5911 115.008 50.1258 114.54 49.6571 114.059C53.0795 112.419 56.7144 111.083 60.501 110.059ZM40.5768 119.476C42.8325 117.819 45.2367 116.328 47.7655 115.005C48.3927 115.665 49.0199 116.304 49.6436 116.907C53.9697 121.072 60.5549 125.455 63.2322 127.176C62.2779 127.842 61.4114 128.576 60.6392 129.371C53.3426 127.236 46.5719 123.856 40.5768 119.476ZM78.9078 131.98C73.3915 131.98 68.0303 131.29 62.9118 129.99C66.6512 126.711 72.5856 124.721 78.9078 124.721C85.23 124.721 91.1645 126.711 94.9005 129.99C89.782 131.286 84.4242 131.98 78.9078 131.98ZM97.1798 129.367C96.2627 128.425 95.2141 127.563 94.044 126.799C97.0011 124.876 103.013 120.796 107.056 116.904C107.801 116.187 108.553 115.416 109.302 114.614C112.107 116.032 114.767 117.654 117.246 119.472C111.251 123.853 104.48 127.233 97.1832 129.367H97.1798Z" fill="#FF5500"></path>
  </g>
  <defs>
    <clipPath id="clip0_525_3068">
      <rect width="162" height="134" fill="white"></rect>
    </clipPath>
  </defs>
</svg>
