<?xml version="1.0" encoding="UTF-8"?>
<svg xmlns="http://www.w3.org/2000/svg" width="200" height="103" viewBox="0 0 200 103" fill="none">
  <g clip-path="url(#clip0_525_3095)">
    <path d="M0 35.4383H15.4686C22.7772 18.2954 45.2691 5.80808 71.8862 5.80808C80.9428 5.80808 89.5148 7.25556 97.1811 9.83743V5.68103C87.631 2.06005 76.6409 0 64.9489 0C33.2375 0 6.70636 15.1509 0 35.4383Z" fill="#FF5500"></path>
    <path d="M41.6103 68.195C30.7877 68.195 25.3765 63.9115 25.3765 56.5471C25.3765 46.7097 35.5968 44.7676 46.4827 44.1641V42.2901C46.4827 38.542 43.879 37.1354 39.7356 37.1354C36.3303 37.1354 32.187 38.2063 29.6512 39.2771L27.378 33.1197C30.3847 31.8491 35.5288 30.5106 40.7363 30.5106C49.9559 30.5106 55.1 34.1225 55.1 43.3609V65.5814C52.4283 66.9835 47.0171 68.1905 41.6058 68.1905M46.4827 49.9858C39.8035 50.3216 33.9258 50.925 33.9258 56.3429C33.9258 59.7551 36.5975 61.6972 41.3386 61.6972C43.2767 61.6972 45.5454 61.3614 46.4827 60.9621V49.9858Z" fill="#FF5500"></path>
    <path d="M70.9307 68.195C66.4568 68.195 61.9783 66.988 59.3066 65.5859L62.2455 58.6253C64.0477 59.7642 68.0553 60.9667 70.6635 60.9667C73.9375 60.9667 76.0748 59.4284 76.0748 57.019C76.0748 54.3418 73.7382 53.2029 70.5322 52.064C65.9904 50.3896 60.244 48.2479 60.244 41.1511C60.244 34.794 65.053 30.5106 73.4711 30.5106C78.0808 30.5106 81.8212 31.6495 84.5608 33.1197L81.7533 39.3452C80.2182 38.4059 77.0122 37.2715 74.6077 37.2715C71.4016 37.2715 69.5315 38.8778 69.5315 41.0196C69.5315 43.7648 71.8681 44.8356 75.0061 45.9746C79.7472 47.7125 85.5615 49.7226 85.5615 57.019C85.5615 63.78 80.5533 68.195 70.9352 68.195" fill="#FF5500"></path>
    <path d="M111.21 67.3919V43.6332C111.21 40.0168 109.005 37.8115 104.861 37.8115C102.724 37.8115 100.654 38.2154 99.4499 38.6827V67.3964H90.3662V33.1288C94.1745 31.5905 98.7843 30.5197 104.725 30.5197C115.412 30.5197 120.357 34.9347 120.357 42.703V67.4009H111.205" fill="#FF5500"></path>
    <path d="M82.0159 102.83C113.727 102.83 140.258 87.6793 146.965 67.3873H131.496C124.188 84.5302 101.696 97.0176 75.0786 97.0176C66.0221 97.0176 57.45 95.5701 49.7837 92.9882V97.1446C59.3338 100.766 70.3239 102.826 82.0159 102.826" fill="#FF5500"></path>
    <path d="M137.207 14.3478H132.9L132.008 16.3806H130.817L134.49 8.25385H135.635L139.317 16.3806H138.099L137.207 14.3478ZM136.803 13.4176L135.056 9.43815L133.308 13.4176H136.808H136.803Z" fill="#FF5500"></path>
    <path d="M141.178 15.5412C140.576 14.9241 140.272 14.0302 140.272 12.8731V8.25385H141.431V12.8277C141.431 14.5701 142.192 15.4413 143.714 15.4413C144.456 15.4413 145.022 15.2281 145.416 14.797C145.81 14.3659 146.005 13.7125 146.005 12.8277V8.25385H147.128V12.8731C147.128 14.0438 146.825 14.9331 146.222 15.5502C145.62 16.1673 144.778 16.4714 143.696 16.4714C142.613 16.4714 141.771 16.1628 141.169 15.5412H141.178Z" fill="#FF5500"></path>
    <path d="M150.968 9.26114H148.188V8.24927H154.894V9.26114H152.114V16.376H150.968V9.26114Z" fill="#FF5500"></path>
    <path d="M157.489 15.9313C156.832 15.5729 156.316 15.0738 155.945 14.4385C155.569 13.8032 155.383 13.0954 155.383 12.3149C155.383 11.5345 155.569 10.8266 155.945 10.1913C156.32 9.55608 156.832 9.06148 157.489 8.69848C158.145 8.33547 158.883 8.15851 159.703 8.15851C160.523 8.15851 161.247 8.34001 161.904 8.69848C162.56 9.05695 163.072 9.55154 163.443 10.1823C163.815 10.813 164 11.5208 164 12.3104C164 13.0999 163.815 13.8078 163.443 14.4385C163.072 15.0692 162.56 15.5638 161.904 15.9223C161.247 16.2807 160.514 16.4622 159.703 16.4622C158.892 16.4622 158.145 16.2807 157.489 15.9223V15.9313ZM161.306 15.0329C161.781 14.7607 162.157 14.3886 162.429 13.9121C162.701 13.4357 162.841 12.9048 162.841 12.3149C162.841 11.725 162.705 11.1941 162.429 10.7177C162.153 10.2412 161.781 9.86917 161.306 9.59691C160.831 9.32466 160.296 9.18853 159.703 9.18853C159.11 9.18853 158.571 9.32466 158.086 9.59691C157.602 9.86917 157.226 10.2412 156.95 10.7177C156.674 11.1941 156.538 11.725 156.538 12.3149C156.538 12.9048 156.674 13.4357 156.95 13.9121C157.226 14.3886 157.602 14.7607 158.086 15.0329C158.571 15.3052 159.105 15.4413 159.703 15.4413C160.301 15.4413 160.831 15.3052 161.306 15.0329Z" fill="#FF5500"></path>
    <path d="M171.191 16.376L169.443 13.8804C169.226 13.894 169.059 13.9031 168.932 13.9031H166.93V16.376H165.771V8.24927H168.932C169.982 8.24927 170.806 8.49883 171.409 9.0025C172.011 9.50617 172.314 10.1959 172.314 11.0807C172.314 11.7069 172.16 12.2423 171.852 12.6825C171.545 13.1226 171.105 13.4448 170.53 13.6444L172.455 16.3715H171.191V16.376ZM170.575 12.442C170.96 12.1243 171.155 11.6706 171.155 11.0852C171.155 10.4999 170.96 10.0461 170.575 9.73305C170.191 9.41996 169.629 9.26114 168.896 9.26114H166.926V12.9184H168.896C169.629 12.9184 170.191 12.7596 170.575 12.442Z" fill="#FF5500"></path>
    <path d="M174.189 8.25385H175.348V16.3806H174.189V8.25385Z" fill="#FF5500"></path>
    <path d="M179.392 9.26114H176.611V8.24927H183.318V9.26114H180.537V16.376H179.392V9.26114Z" fill="#FF5500"></path>
    <path d="M190.463 15.3687V16.3806H184.581V8.25379H190.305V9.26567H185.74V11.7613H189.807V12.746H185.74V15.3687H190.468H190.463ZM188.158 6.08484H189.571L187.624 7.59585H186.583L188.158 6.08484Z" fill="#FF5500"></path>
    <path d="M132.04 23.8403H135.459C136.314 23.8403 137.075 24.0128 137.741 24.3531C138.407 24.6934 138.923 25.1698 139.29 25.7869C139.656 26.4041 139.837 27.1074 139.837 27.906C139.837 28.7046 139.652 29.4079 139.29 30.025C138.923 30.6421 138.407 31.1186 137.741 31.4589C137.075 31.7992 136.314 31.9716 135.459 31.9716H132.04V23.8449V23.8403ZM135.386 30.9552C136.043 30.9552 136.618 30.8282 137.116 30.5741C137.614 30.32 137.999 29.9615 138.266 29.4987C138.533 29.0358 138.674 28.5049 138.674 27.9014C138.674 27.298 138.538 26.7671 138.266 26.3042C137.994 25.8414 137.61 25.4875 137.116 25.2288C136.618 24.9747 136.038 24.8477 135.386 24.8477H133.199V30.9507H135.386V30.9552Z" fill="#FF5500"></path>
    <path d="M147.721 30.9552V31.9671H141.839V23.8403H147.563V24.8522H142.998V27.3479H147.064V28.3325H142.998V30.9552H147.726H147.721Z" fill="#FF5500"></path>
    <path d="M153.776 31.772C153.209 31.5814 152.761 31.3364 152.44 31.0369L152.87 30.1294C153.178 30.4062 153.576 30.6331 154.056 30.8101C154.541 30.9825 155.034 31.0732 155.546 31.0732C156.216 31.0732 156.719 30.9598 157.054 30.7329C157.385 30.506 157.552 30.202 157.552 29.8209C157.552 29.5441 157.462 29.3172 157.28 29.1402C157.099 28.9678 156.873 28.8317 156.61 28.7409C156.343 28.6456 155.967 28.5413 155.483 28.4278C154.871 28.2826 154.382 28.1329 154.006 27.9877C153.631 27.8425 153.309 27.6156 153.046 27.3071C152.779 27.003 152.648 26.5901 152.648 26.0728C152.648 25.6372 152.761 25.247 152.988 24.9022C153.214 24.5528 153.563 24.276 154.025 24.0672C154.486 23.8585 155.062 23.7542 155.75 23.7542C156.23 23.7542 156.701 23.8177 157.163 23.9402C157.625 24.0627 158.023 24.2442 158.354 24.4756L157.973 25.4058C157.634 25.188 157.271 25.0247 156.886 24.9112C156.502 24.7978 156.121 24.7433 155.75 24.7433C155.093 24.7433 154.6 24.8613 154.274 25.1018C153.948 25.3423 153.78 25.6509 153.78 26.032C153.78 26.3088 153.875 26.5357 154.056 26.7126C154.237 26.8896 154.473 27.0212 154.745 27.121C155.021 27.2163 155.392 27.3207 155.863 27.4296C156.474 27.5748 156.963 27.7245 157.335 27.8697C157.706 28.0149 158.023 28.2418 158.29 28.5413C158.557 28.8453 158.689 29.2491 158.689 29.7619C158.689 30.1884 158.571 30.5741 158.34 30.928C158.109 31.282 157.756 31.5588 157.285 31.7629C156.814 31.9671 156.234 32.0715 155.546 32.0715C154.935 32.0715 154.346 31.9762 153.78 31.7856V31.772H153.776Z" fill="#FF5500"></path>
    <path d="M161.437 31.1277C160.835 30.5106 160.532 29.6167 160.532 28.4596V23.8404H161.691V28.4142C161.691 30.1566 162.452 31.0279 163.973 31.0279C164.716 31.0279 165.282 30.8146 165.676 30.3835C166.07 29.9525 166.265 29.299 166.265 28.4142V23.8404H167.388V28.4596C167.388 29.6303 167.084 30.5197 166.482 31.1368C165.88 31.7539 165.037 32.0579 163.955 32.0579C162.873 32.0579 162.031 31.7493 161.428 31.1277H161.437ZM165.042 23.1779L163.978 22.284L162.914 23.1779H161.904L163.443 21.6669H164.508L166.047 23.1779H165.037H165.042Z" fill="#FF5500"></path>
    <path d="M175.416 31.9626L173.668 29.4669C173.451 29.4805 173.283 29.4896 173.156 29.4896H171.155V31.9626H169.996V23.8358H173.156C174.207 23.8358 175.031 24.0854 175.633 24.5891C176.236 25.0927 176.539 25.7824 176.539 26.6673C176.539 27.2934 176.385 27.8289 176.077 28.269C175.769 28.7092 175.33 29.0313 174.755 29.231L176.679 31.958H175.416V31.9626ZM174.8 28.0285C175.185 27.7109 175.38 27.2571 175.38 26.6718C175.38 26.0864 175.185 25.6327 174.8 25.3196C174.415 25.0065 173.854 24.8477 173.12 24.8477H171.15V28.505H173.12C173.854 28.505 174.415 28.3462 174.8 28.0285Z" fill="#FF5500"></path>
    <path d="M184.532 30.9552V31.9671H178.649V23.8403H184.373V24.8522H179.809V27.3479H183.875V28.3325H179.809V30.9552H184.536H184.532Z" fill="#FF5500"></path>
    <path d="M188.249 24.8477H185.469V23.8358H192.175V24.8477H189.395V31.9626H188.249V24.8477Z" fill="#FF5500"></path>
    <path d="M199.556 30.9552V31.9671H193.674V23.8403H199.398V24.8522H194.833V27.3479H198.899V28.3325H194.833V30.9552H199.561H199.556ZM197.251 21.6714H198.664L196.717 23.1824H195.675L197.251 21.6714Z" fill="#FF5500"></path>
    <path d="M139.013 39.4269V47.5537H138.062L133.199 41.496V47.5537H132.04V39.4269H132.991L137.854 45.4845V39.4269H139.013Z" fill="#FF5500"></path>
    <path d="M142.278 46.7142C141.676 46.0971 141.373 45.2032 141.373 44.0461V39.4269H142.532V44.0007C142.532 45.7432 143.293 46.6144 144.814 46.6144C145.557 46.6144 146.123 46.4011 146.517 45.97C146.911 45.539 147.105 44.8856 147.105 44.0007V39.4269H148.228V44.0461C148.228 45.2168 147.925 46.1062 147.323 46.7233C146.72 47.3404 145.878 47.6444 144.796 47.6444C143.714 47.6444 142.871 47.3358 142.269 46.7142H142.278Z" fill="#FF5500"></path>
    <path d="M152.037 47.1044C151.385 46.7459 150.873 46.2513 150.502 45.6206C150.13 44.9899 149.945 44.282 149.945 43.4925C149.945 42.703 150.13 41.9951 150.502 41.3644C150.873 40.7337 151.385 40.2391 152.041 39.8806C152.698 39.5221 153.431 39.3406 154.242 39.3406C154.876 39.3406 155.455 39.445 155.981 39.6583C156.506 39.8715 156.954 40.1846 157.326 40.6021L156.574 41.3326C155.963 40.6883 155.202 40.3707 154.292 40.3707C153.689 40.3707 153.146 40.5068 152.657 40.779C152.172 41.0513 151.792 41.4234 151.516 41.8998C151.24 42.3763 151.104 42.9072 151.104 43.497C151.104 44.0869 151.24 44.6178 151.516 45.0943C151.792 45.5707 152.172 45.9428 152.657 46.215C153.146 46.4873 153.689 46.6234 154.292 46.6234C155.197 46.6234 155.954 46.2967 156.574 45.6478L157.326 46.3784C156.954 46.7958 156.506 47.1135 155.976 47.3313C155.446 47.5491 154.867 47.658 154.233 47.658C153.422 47.658 152.689 47.4765 152.037 47.118V47.1044Z" fill="#FF5500"></path>
    <path d="M158.983 39.4269H160.142V46.5418H164.53V47.5537H158.983V39.4269Z" fill="#FF5500"></path>
    <path d="M171.744 46.5418V47.5537H165.861V39.4269H171.585V40.4388H167.021V42.9344H171.087V43.9191H167.021V46.5418H171.748H171.744ZM169.439 37.2579H170.851L168.904 38.7689H167.863L169.439 37.2579Z" fill="#FF5500"></path>
    <path d="M178.79 45.5208H174.483L173.591 47.5537H172.4L176.073 39.4269H177.218L180.9 47.5537H179.682L178.79 45.5208ZM178.387 44.5906L176.639 40.6112L174.891 44.5906H178.391H178.387Z" fill="#FF5500"></path>
    <path d="M182.1 39.4269H183.259V47.5537H182.1V39.4269Z" fill="#FF5500"></path>
    <path d="M191.111 47.5491L189.363 45.0534C189.145 45.067 188.978 45.0761 188.851 45.0761H186.85V47.5491H185.69V39.4223H188.851C189.902 39.4223 190.726 39.6719 191.328 40.1755C191.93 40.6792 192.234 41.3689 192.234 42.2537C192.234 42.8799 192.08 43.4154 191.772 43.8555C191.464 44.2956 191.025 44.6178 190.45 44.8175L192.374 47.5445H191.111V47.5491ZM190.495 43.615C190.88 43.2974 191.075 42.8436 191.075 42.2583C191.075 41.6729 190.88 41.2192 190.495 40.9061C190.11 40.593 189.549 40.4342 188.815 40.4342H186.845V44.0915H188.815C189.549 44.0915 190.11 43.9326 190.495 43.615Z" fill="#FF5500"></path>
    <path d="M199.995 46.5418V47.5537H194.113V39.4269H199.837V40.4388H195.273V42.9344H199.339V43.9191H195.273V46.5418H200H199.995Z" fill="#FF5500"></path>
  </g>
  <defs>
    <clipPath id="clip0_525_3095">
      <rect width="200" height="102.83" fill="white"></rect>
    </clipPath>
  </defs>
</svg>
