<?xml version="1.0" encoding="UTF-8"?>
<svg xmlns="http://www.w3.org/2000/svg" width="217" height="48" viewBox="0 0 217 48" fill="none">
  <g clip-path="url(#clip0_1038_8768)">
    <path d="M33.2334 11.8816L33.0664 11.7222L23.1416 2.24801L22.9746 2.0886C20.0582 -0.695711 15.331 -0.695711 12.4146 2.0886L7.30048 6.9711L2.18633 11.8536C-0.730079 14.6379 -0.730079 19.151 2.18633 21.9353L12.4293 31.7143C15.3457 34.4986 20.0729 34.4986 22.9893 31.7143L23.1563 31.5549L17.724 26.3686L22.67 21.6466L17.2422 16.4647L12.2962 21.1867L7.80028 16.8944L12.7463 12.1724L17.6924 7.45041L27.6161 16.9246L22.67 21.6466L28.117 26.8469L33.2312 21.9644C36.1476 19.1801 36.1476 14.667 33.2312 11.8827L33.2334 11.8816Z" fill="#FFAA00"></path>
    <path d="M51.5646 13.9216H48.778V3.9541C48.778 3.24967 48.9686 2.69066 49.3511 2.27705C49.7324 1.86344 50.3631 1.65771 51.2408 1.65771H57.9976V4.11782H51.5657V13.9216H51.5646ZM57.5576 9.76722H50.934L50.5707 7.32543H57.5565V9.76722H57.5576Z" fill="#333333"></path>
    <path d="M62.9978 13.9216H60.2495V1.65771H65.1933C66.1602 1.65771 67.0323 1.80097 67.8085 2.0864C68.5847 2.37183 69.1984 2.80375 69.6508 3.38C70.1021 3.95733 70.3289 4.68222 70.3289 5.5579C70.3289 6.25048 70.1664 6.86012 69.8415 7.38898C69.5177 7.91676 69.0687 8.3336 68.4956 8.63734C67.9224 8.94108 67.2421 9.09295 66.4535 9.09295L65.7089 8.5641C66.4591 8.5641 67.0571 8.6675 67.5027 8.8743C67.9484 9.08111 68.3263 9.39993 68.6388 9.83077C68.9502 10.2627 69.2785 10.8174 69.6215 11.4981L70.8625 13.9216H67.8468L66.7017 11.7351C66.511 11.3581 66.3068 11.0425 66.0902 10.7872C65.8736 10.532 65.6096 10.3381 65.2982 10.2034C64.9857 10.0699 64.5886 10.0031 64.1046 10.0031H62.7496V7.63456H65.1933C65.6389 7.63456 66.0304 7.56455 66.3666 7.42452C66.7028 7.2845 66.9714 7.07769 67.1688 6.80519C67.3662 6.5316 67.4644 6.20632 67.4644 5.83041C67.4644 5.41788 67.3662 5.08613 67.1688 4.83732C66.9714 4.58851 66.704 4.40648 66.3666 4.29015C66.0293 4.1749 65.6514 4.11674 65.2305 4.11674H63.035L62.9967 13.9205L62.9978 13.9216Z" fill="#333333"></path>
    <path d="M78.5355 1.42078C80.4061 1.42078 81.7904 1.92486 82.6873 2.93303C83.5843 3.9412 84.0333 5.32635 84.0333 7.08741V13.9216H81.2466V7.2339C81.2466 6.16541 81.0198 5.34789 80.5686 4.78349C80.1162 4.21909 79.4392 3.93581 78.5355 3.93581C77.6318 3.93581 76.973 4.21909 76.5217 4.78349C76.0693 5.34789 75.8448 6.16541 75.8448 7.2339V13.9216H73.0581V7.08741C73.0581 5.32635 73.5026 3.9412 74.3939 2.93303C75.2852 1.92486 76.665 1.42078 78.5367 1.42078H78.5355ZM82.0476 10.6052H74.4695V8.14513H82.0476V10.6052Z" fill="#333333"></path>
    <path d="M89.6065 13.9217H86.953V3.33481C86.953 2.93413 87.0455 2.5873 87.2294 2.29648C87.4133 2.00566 87.6593 1.78378 87.965 1.63083C88.2696 1.47896 88.5945 1.40356 88.9386 1.40356C89.3583 1.40356 89.734 1.48004 90.0646 1.63083C90.3952 1.7827 90.6625 2.02936 90.8667 2.36865L96.3453 11.3345C96.2945 11.2978 96.2494 11.2774 96.2111 11.2709C96.1727 11.2644 96.1411 11.2623 96.1152 11.2623C96.0768 11.2623 96.0384 11.2795 96.0012 11.3161C95.9629 11.3528 95.9437 11.4077 95.9437 11.4799V1.65776H98.578V12.2457C98.578 12.6582 98.4855 13.0083 98.3016 13.2937C98.1166 13.5791 97.8752 13.7946 97.5762 13.941C97.2772 14.0864 96.9624 14.1597 96.6308 14.1597C96.2235 14.1597 95.8478 14.0832 95.5048 13.9324C95.1607 13.7806 94.8877 13.5404 94.6835 13.2118L89.2624 4.28266C89.3008 4.30743 89.3358 4.32251 89.3674 4.3279C89.399 4.33436 89.4339 4.33759 89.4723 4.33759C89.5106 4.33759 89.5422 4.31928 89.5682 4.28266C89.593 4.24604 89.6065 4.19757 89.6065 4.13725V13.9227V13.9217Z" fill="#333333"></path>
    <path d="M107.51 14.1769C106.568 14.1769 105.697 14.0121 104.895 13.6846C104.093 13.3561 103.386 12.9016 102.776 12.3178C102.165 11.7351 101.691 11.0576 101.353 10.2864C101.016 9.51518 100.848 8.68581 100.848 7.79828C100.848 6.91075 101.016 6.06738 101.353 5.30156C101.691 4.53681 102.165 3.86255 102.776 3.27876C103.386 2.69604 104.093 2.24043 104.895 1.91191C105.696 1.5834 106.568 1.41968 107.51 1.41968C108.248 1.41968 108.967 1.54139 109.667 1.78482C110.368 2.02824 110.994 2.37399 111.548 2.82314C112.102 3.27229 112.531 3.81946 112.836 4.46357L110.565 5.68393C110.247 5.14968 109.833 4.72746 109.324 4.41725C108.815 4.10705 108.172 3.95302 107.396 3.95302C106.861 3.95302 106.368 4.04673 105.917 4.23522C105.465 4.42372 105.074 4.69192 104.744 5.03659C104.413 5.38341 104.158 5.79056 103.98 6.25802C103.802 6.72548 103.713 7.23926 103.713 7.7972C103.713 8.35514 103.802 8.85492 103.98 9.32884C104.158 9.80277 104.409 10.2121 104.734 10.5589C105.058 10.9057 105.449 11.1728 105.908 11.3603C106.366 11.5488 106.862 11.6425 107.396 11.6425C108.172 11.6425 108.819 11.4841 109.333 11.1685C109.849 10.8529 110.258 10.4329 110.564 9.91048L112.835 11.1319C112.529 11.776 112.101 12.3221 111.547 12.7723C110.994 13.2215 110.367 13.5683 109.666 13.8107C108.965 14.053 108.247 14.1758 107.509 14.1758L107.51 14.1769Z" fill="#333333"></path>
    <path d="M124.002 13.9216H117.092C116.214 13.9216 115.583 13.7159 115.202 13.3023C114.82 12.8897 114.629 12.3361 114.629 11.6435V3.9541C114.629 3.24967 114.82 2.69066 115.202 2.27705C115.583 1.86344 116.214 1.65771 117.092 1.65771H123.887V4.04457H117.416V11.5347H124.001V13.9216H124.002ZM123.487 8.98309H116.767L116.405 6.59623H123.487V8.98309Z" fill="#333333"></path>
    <path d="M54.5228 32.4004C53.5807 32.4004 52.7097 32.2367 51.9076 31.9082C51.1066 31.5797 50.3992 31.124 49.7888 30.5413C49.1785 29.9586 48.7035 29.2811 48.3673 28.5088C48.0299 27.7376 47.8607 26.9083 47.8607 26.0218C47.8607 25.1354 48.0288 24.2909 48.3673 23.5251C48.7046 22.7603 49.1785 22.085 49.7888 21.5023C50.3992 20.9196 51.1066 20.464 51.9076 20.1354C52.7097 19.8069 53.5807 19.6443 54.5228 19.6443C55.2606 19.6443 55.9793 19.7649 56.6799 20.0083C57.3794 20.2518 58.0067 20.5975 58.5606 21.0467C59.1134 21.4958 59.5433 22.043 59.849 22.6871L57.578 23.9075C57.2598 23.3732 56.8469 22.951 56.3381 22.6419C55.8292 22.3317 55.1862 22.1766 54.4099 22.1766C53.8752 22.1766 53.3822 22.2713 52.9309 22.4588C52.4785 22.6472 52.0881 22.9144 51.7564 23.2601C51.4258 23.6059 51.1709 24.0141 50.9926 24.4816C50.8144 24.949 50.7252 25.4628 50.7252 26.0207C50.7252 26.5787 50.8144 27.0774 50.9926 27.5513C51.1709 28.0252 51.4225 28.4356 51.7474 28.7813C52.0723 29.1282 52.4627 29.3953 52.9207 29.5827C53.3788 29.7712 53.8752 29.866 54.4099 29.866C55.1862 29.866 55.8315 29.7077 56.3471 29.3921C56.8627 29.0765 57.2733 28.6575 57.578 28.134L59.849 29.3554C59.5444 29.9996 59.1146 30.5456 58.5606 30.9959C58.0067 31.445 57.3805 31.7918 56.6799 32.0342C55.9793 32.2765 55.2606 32.3983 54.5228 32.3983V32.4004Z" fill="#333333"></path>
    <path d="M64.6202 32.1451H61.8335V19.8812H64.6202V24.8197H70.4801V19.8812H73.2667V32.1451H70.4801V27.2615H64.6202V32.1451Z" fill="#333333"></path>
    <path d="M81.7993 19.6443C83.6699 19.6443 85.0542 20.1484 85.9511 21.1565C86.8481 22.1647 87.2971 23.5499 87.2971 25.3109V32.1451H84.5104V25.4574C84.5104 24.3878 84.2848 23.5714 83.8335 23.0059C83.3811 22.4415 82.7042 22.1582 81.8005 22.1582C80.8968 22.1582 80.2379 22.4404 79.7866 23.0059C79.3342 23.5703 79.1086 24.3878 79.1086 25.4574V32.1451H76.3219V25.3109C76.3219 23.5499 76.7675 22.1647 77.6577 21.1565C78.5479 20.1484 79.9288 19.6443 81.7993 19.6443ZM85.3114 28.8287H77.7333V26.3686H85.3114V28.8287Z" fill="#333333"></path>
    <path d="M95.6188 32.3455C93.6963 32.3455 92.2849 31.8478 91.3812 30.8515C90.4775 29.8552 90.0262 28.4711 90.0262 26.6961V19.8812H92.8129V26.6411C92.8129 27.7107 93.0453 28.5067 93.5101 29.0291C93.975 29.5515 94.6778 29.8121 95.6199 29.8121C96.5619 29.8121 97.2648 29.5515 97.7285 29.0291C98.1922 28.5067 98.4257 27.7107 98.4257 26.6411V19.8812H101.212V26.6961C101.212 28.47 100.758 29.8552 99.8473 30.8515C98.9379 31.8478 97.5277 32.3455 95.6199 32.3455H95.6188Z" fill="#333333"></path>
    <path d="M116.043 26.0218C116.043 26.9578 115.871 27.8022 115.527 28.5551C115.183 29.308 114.697 29.9521 114.067 30.4864C113.437 31.0206 112.699 31.431 111.853 31.7164C111.006 32.0019 110.074 32.1451 109.057 32.1451H104.323V19.8812H109.113C110.501 19.8812 111.713 20.1354 112.749 20.646C113.786 21.1565 114.594 21.8696 115.174 22.7872C115.753 23.7049 116.043 24.7831 116.043 26.0218ZM113.179 26.0218C113.179 25.2807 113.01 24.6366 112.673 24.0905C112.335 23.5434 111.862 23.1158 111.251 22.8056C110.641 22.4964 109.928 22.3413 109.113 22.3413H107.11V29.7583H109.057C109.667 29.7583 110.221 29.671 110.718 29.4944C111.214 29.3188 111.649 29.07 112.025 28.7469C112.4 28.4248 112.686 28.0338 112.884 27.5717C113.081 27.1107 113.179 26.5937 113.179 26.0229V26.0218Z" fill="#333333"></path>
    <path d="M121.368 32.1451H118.62V19.8812H123.563C124.53 19.8812 125.402 20.0245 126.178 20.3088C126.955 20.5943 127.568 21.0262 128.021 21.6035C128.472 22.1808 128.699 22.9057 128.699 23.7814C128.699 24.474 128.536 25.0847 128.212 25.6136C127.888 26.1413 127.439 26.5582 126.866 26.8619C126.292 27.1657 125.612 27.3175 124.824 27.3175L124.079 26.7887C124.829 26.7887 125.427 26.8921 125.873 27.0989C126.318 27.3057 126.696 27.6245 127.009 28.0554C127.32 28.4873 127.649 29.042 127.992 29.7227L129.233 32.1462H126.217L125.072 29.9597C124.881 29.5827 124.677 29.2671 124.46 29.0118C124.244 28.7566 123.98 28.5627 123.668 28.4291C123.356 28.2956 122.959 28.2288 122.475 28.2288H121.12V25.8591H123.563C124.009 25.8591 124.4 25.7891 124.737 25.6491C125.074 25.5091 125.341 25.3023 125.539 25.0298C125.736 24.7562 125.834 24.4309 125.834 24.055C125.834 23.6425 125.736 23.3107 125.539 23.0619C125.341 22.8131 125.074 22.63 124.737 22.5147C124.399 22.3995 124.021 22.3413 123.601 22.3413H121.405L121.367 32.1451H121.368Z" fill="#333333"></path>
    <path d="M137.44 32.3821C136.498 32.3821 135.62 32.2237 134.806 31.9082C133.991 31.5926 133.282 31.1456 132.677 30.5693C132.072 29.992 131.602 29.3156 131.264 28.5368C130.927 27.7602 130.758 26.9212 130.758 26.0218C130.758 25.1224 130.926 24.2844 131.264 23.5068C131.602 22.7291 132.072 22.0548 132.677 21.484C133.282 20.9131 133.991 20.4661 134.806 20.1451C135.62 19.8231 136.498 19.6615 137.44 19.6615C138.382 19.6615 139.276 19.8231 140.084 20.1451C140.891 20.4672 141.601 20.9131 142.212 21.484C142.823 22.0548 143.298 22.7291 143.634 23.5068C143.971 24.2844 144.141 25.1224 144.141 26.0218C144.141 26.9212 143.971 27.7592 143.634 28.5368C143.297 29.3145 142.823 29.992 142.212 30.5693C141.602 31.1466 140.892 31.5926 140.084 31.9082C139.276 32.2237 138.395 32.3821 137.44 32.3821ZM137.44 29.867C137.975 29.867 138.474 29.7701 138.938 29.5751C139.403 29.3802 139.809 29.1077 140.16 28.7555C140.51 28.4033 140.781 27.9929 140.971 27.5254C141.162 27.058 141.258 26.556 141.258 26.0218C141.258 25.4875 141.162 24.9716 140.971 24.5095C140.781 24.0485 140.51 23.6414 140.16 23.2892C139.811 22.937 139.403 22.6634 138.938 22.4695C138.474 22.2746 137.975 22.1776 137.44 22.1776C136.905 22.1776 136.407 22.2746 135.942 22.4695C135.477 22.6645 135.07 22.937 134.72 23.2892C134.369 23.6414 134.1 24.0485 133.909 24.5095C133.718 24.9716 133.622 25.4757 133.622 26.0218C133.622 26.5679 133.718 27.058 133.909 27.5254C134.1 27.9929 134.369 28.4033 134.72 28.7555C135.07 29.1077 135.477 29.3813 135.942 29.5751C136.407 29.7701 136.905 29.867 137.44 29.867Z" fill="#333333"></path>
    <path d="M149.027 32.1451H146.373V21.5572C146.373 21.1565 146.466 20.8097 146.65 20.5189C146.834 20.2281 147.078 20.0062 147.384 19.8543C147.69 19.7025 148.015 19.626 148.358 19.626C148.777 19.626 149.153 19.7025 149.484 19.8543C149.814 20.0062 150.082 20.2518 150.285 20.5921L155.763 29.5579C155.713 29.5213 155.667 29.4998 155.63 29.4933C155.592 29.4879 155.56 29.4847 155.534 29.4847C155.496 29.4847 155.458 29.503 155.419 29.5396C155.381 29.5762 155.363 29.6312 155.363 29.7033V19.8812H157.997V30.4692C157.997 30.8828 157.905 31.2318 157.721 31.5172C157.536 31.8037 157.294 32.018 156.995 32.1645C156.695 32.3099 156.38 32.3832 156.05 32.3832C155.643 32.3832 155.267 32.3067 154.924 32.1559C154.58 32.004 154.307 31.7638 154.103 31.4353L148.682 22.5061C148.72 22.5309 148.755 22.546 148.787 22.5514C148.818 22.5578 148.853 22.5611 148.891 22.5611C148.93 22.5611 148.961 22.5428 148.987 22.5061C149.013 22.4695 149.026 22.4211 149.026 22.3607V32.1473L149.027 32.1451Z" fill="#333333"></path>
    <path d="M163.838 32.1451H161.184V21.5572C161.184 21.1565 161.277 20.8097 161.461 20.5189C161.645 20.2281 161.89 20.0062 162.195 19.8543C162.501 19.7025 162.826 19.626 163.169 19.626C163.589 19.626 163.964 19.7025 164.295 19.8543C164.625 20.0062 164.893 20.2518 165.096 20.5921L170.574 29.5579C170.524 29.5213 170.479 29.4998 170.441 29.4933C170.403 29.4879 170.371 29.4847 170.345 29.4847C170.307 29.4847 170.269 29.503 170.23 29.5396C170.192 29.5762 170.174 29.6312 170.174 29.7033V19.8812H172.808V30.4692C172.808 30.8828 172.716 31.2318 172.532 31.5172C172.347 31.8037 172.105 32.018 171.806 32.1645C171.506 32.3099 171.192 32.3832 170.861 32.3832C170.454 32.3832 170.078 32.3067 169.735 32.1559C169.391 32.004 169.118 31.7638 168.914 31.4353L163.493 22.5061C163.531 22.5309 163.566 22.546 163.598 22.5514C163.629 22.5578 163.664 22.5611 163.703 22.5611C163.741 22.5611 163.773 22.5428 163.798 22.5061C163.824 22.4695 163.837 22.4211 163.837 22.3607V32.1473L163.838 32.1451Z" fill="#333333"></path>
    <path d="M185.311 32.1451H178.401C177.522 32.1451 176.892 31.9383 176.511 31.5258C176.13 31.1133 175.938 30.5596 175.938 29.867V22.1765C175.938 21.4721 176.129 20.9131 176.511 20.5006C176.894 20.087 177.523 19.8812 178.401 19.8812H185.196V22.2681H178.725V29.7583H185.31V32.1451H185.311ZM184.796 27.2066H178.077L177.714 24.8197H184.796V27.2066Z" fill="#333333"></path>
    <path d="M190.79 32.1451H188.041V19.8812H192.985C193.952 19.8812 194.824 20.0245 195.6 20.3088C196.377 20.5943 196.99 21.0262 197.443 21.6035C197.894 22.1808 198.12 22.9057 198.12 23.7814C198.12 24.474 197.957 25.0847 197.633 25.6136C197.308 26.1413 196.861 26.5582 196.287 26.8619C195.715 27.1657 195.034 27.3175 194.245 27.3175L193.501 26.7887C194.252 26.7887 194.849 26.8921 195.296 27.0989C195.74 27.3057 196.119 27.6245 196.432 28.0554C196.743 28.4873 197.072 29.042 197.415 29.7227L198.656 32.1462H195.64L194.495 29.9597C194.304 29.5827 194.1 29.2671 193.884 29.0118C193.668 28.7566 193.404 28.5627 193.092 28.4291C192.78 28.2956 192.383 28.2288 191.899 28.2288H190.544V25.8591H192.987C193.433 25.8591 193.825 25.7891 194.162 25.6491C194.499 25.5091 194.767 25.3023 194.963 25.0298C195.16 24.7562 195.259 24.4309 195.259 24.055C195.259 23.6425 195.16 23.3107 194.963 23.0619C194.765 22.8131 194.498 22.63 194.162 22.5147C193.825 22.3995 193.447 22.3413 193.026 22.3413H190.83L190.792 32.1451H190.79Z" fill="#333333"></path>
    <path d="M201.23 19.8812H204.017V32.1451H201.23V19.8812Z" fill="#333333"></path>
    <path d="M216.615 32.1451H209.705C208.826 32.1451 208.197 31.9383 207.815 31.5258C207.434 31.1133 207.242 30.5596 207.242 29.867V22.1765C207.242 21.4721 207.433 20.9131 207.815 20.5006C208.198 20.087 208.827 19.8812 209.705 19.8812H216.5V22.2681H210.029V29.7583H216.614V32.1451H216.615ZM216.1 27.2066H209.381L209.018 24.8197H216.1V27.2066Z" fill="#333333"></path>
    <path d="M50.1916 47.875H48.7351V41.379H51.3537C51.8659 41.379 52.3273 41.4544 52.7391 41.6063C53.1498 41.7571 53.4758 41.9865 53.715 42.2913C53.9542 42.5972 54.0738 42.9818 54.0738 43.4449C54.0738 43.8122 53.988 44.1353 53.8154 44.4154C53.6439 44.6954 53.4059 44.9162 53.1024 45.0767C52.7989 45.2372 52.439 45.318 52.0204 45.318L51.6256 45.0379C52.0238 45.0379 52.3397 45.0929 52.5766 45.2017C52.8124 45.3105 53.0133 45.4796 53.178 45.709C53.3438 45.9373 53.5164 46.2314 53.6992 46.5922L54.3558 47.8761H52.7583L52.1513 46.7182C52.0498 46.519 51.9426 46.3509 51.8275 46.2163C51.7124 46.0806 51.5725 45.9783 51.4078 45.9072C51.2431 45.8361 51.0321 45.8005 50.776 45.8005H50.0574V44.5457H51.3514C51.5872 44.5457 51.7948 44.5091 51.9731 44.4348C52.1513 44.3615 52.2935 44.2517 52.3984 44.1062C52.5022 43.9608 52.5552 43.7896 52.5552 43.5903C52.5552 43.3717 52.5033 43.1961 52.3984 43.0647C52.2935 42.9333 52.1524 42.8363 51.9731 42.775C51.7948 42.7136 51.594 42.6834 51.3717 42.6834H50.2097L50.1894 47.8772L50.1916 47.875Z" fill="#FFAA00"></path>
    <path d="M62.1021 47.875H58.441C57.9762 47.875 57.6423 47.7651 57.4403 47.5465C57.2384 47.3267 57.1368 47.0349 57.1368 46.6676V42.594C57.1368 42.2213 57.2384 41.9251 57.4403 41.7064C57.6423 41.4867 57.9762 41.3779 58.441 41.3779H62.0411V42.6424H58.6137V46.6094H62.1021V47.8739V47.875ZM61.8291 45.2587H58.2696L58.0778 43.9942H61.8291V45.2587ZM60.201 40.625H58.7648L60.0081 39.032H61.4748L60.201 40.625Z" fill="#FFAA00"></path>
    <path d="M67.249 48C66.642 48 66.105 47.8793 65.6368 47.638C65.1674 47.3968 64.8256 47.0446 64.6101 46.5814L65.8432 45.9922C65.9515 46.2238 66.1253 46.4005 66.3645 46.5222C66.6036 46.645 66.8992 46.7064 67.249 46.7064C67.4645 46.7064 67.6551 46.6794 67.8198 46.6245C67.9846 46.5696 68.1177 46.4888 68.2192 46.3832C68.3208 46.2777 68.3715 46.1463 68.3715 45.9922C68.3715 45.8124 68.3174 45.6745 68.2091 45.5819C68.1008 45.4881 67.953 45.4192 67.7646 45.374C67.5762 45.3287 67.3629 45.2878 67.1271 45.248C66.871 45.2027 66.6025 45.1435 66.3238 45.0692C66.0441 44.9948 65.7812 44.8871 65.5352 44.746C65.2893 44.6049 65.0919 44.4132 64.9441 44.1719C64.7951 43.9307 64.7218 43.6291 64.7218 43.2693C64.7218 42.8837 64.8301 42.5401 65.0456 42.2418C65.2611 41.9423 65.5578 41.7043 65.9357 41.5276C66.3126 41.3499 66.7345 41.2616 67.1993 41.2616C67.7657 41.2616 68.2745 41.3822 68.7258 41.6246C69.1771 41.8659 69.511 42.2181 69.7265 42.6812L68.4934 43.2704C68.3851 43.0582 68.2192 42.888 67.9925 42.7588C67.7668 42.6295 67.4814 42.566 67.1384 42.566C66.9556 42.566 66.7943 42.5918 66.6533 42.6435C66.5123 42.6952 66.4006 42.7695 66.3205 42.8654C66.2392 42.9613 66.1986 43.0776 66.1986 43.2133C66.1986 43.3867 66.255 43.5235 66.3701 43.6237C66.4841 43.7239 66.6409 43.7993 66.8406 43.851C67.0391 43.9027 67.2603 43.9511 67.5028 43.9953C67.7589 44.0405 68.0229 44.0998 68.2959 44.1741C68.569 44.2484 68.8217 44.3561 69.0541 44.4972C69.2865 44.6394 69.4772 44.829 69.625 45.067C69.7728 45.305 69.8472 45.6109 69.8472 45.9847C69.8472 46.3584 69.731 46.7171 69.4986 47.023C69.2662 47.3289 68.9537 47.568 68.5633 47.7414C68.1718 47.9159 67.7341 48.0021 67.249 48.0021V48Z" fill="#FFAA00"></path>
    <path d="M77.5923 47.875H73.9313C73.4665 47.875 73.1325 47.7651 72.9306 47.5465C72.7286 47.3268 72.6271 47.0349 72.6271 46.6676V42.594C72.6271 42.2213 72.7286 41.9251 72.9306 41.7064C73.1325 41.4867 73.4665 41.3779 73.9313 41.3779H77.5314V42.6424H74.1039V46.6094H77.5923V47.8739V47.875ZM77.3182 45.2587H73.7587L73.5669 43.9942H77.3182V45.2587Z" fill="#FFAA00"></path>
    <path d="M79.8972 47.875L81.6967 42.2956C81.8118 41.9412 82.007 41.6795 82.2834 41.5093C82.5598 41.3391 82.8565 41.2529 83.1735 41.2529C83.4905 41.2529 83.8053 41.338 84.0783 41.5093C84.3514 41.6795 84.5454 41.9423 84.6594 42.2956L86.4589 47.875H84.9527L83.4059 42.7102C83.3653 42.5821 83.2909 42.5174 83.1837 42.5174C83.0765 42.5174 83.002 42.5821 82.9614 42.7102L81.4045 47.875H79.8983H79.8972ZM85.2156 46.5426L81.2827 46.5523V45.2878H85.2156V46.5426Z" fill="#FFAA00"></path>
    <path d="M91.6464 47.9805C90.6288 47.9805 89.8808 47.7167 89.4013 47.1889C88.9229 46.6611 88.6826 45.9276 88.6826 44.9873V41.3768H90.1594V44.9582C90.1594 45.5248 90.2824 45.9459 90.5284 46.2227C90.7743 46.4995 91.1466 46.6374 91.6453 46.6374C92.144 46.6374 92.5163 46.4995 92.7622 46.2227C93.0082 45.9459 93.1311 45.5248 93.1311 44.9582V41.3768H94.608V44.9873C94.608 45.9265 94.3665 46.6611 93.8848 47.1889C93.403 47.7167 92.6562 47.9805 91.6453 47.9805H91.6464Z" fill="#FFAA00"></path>
  </g>
  <defs>
    <clipPath id="clip0_1038_8768">
      <rect width="216.615" height="48" fill="white"></rect>
    </clipPath>
  </defs>
</svg>
