<?xml version="1.0" encoding="UTF-8"?>
<svg xmlns="http://www.w3.org/2000/svg" width="217" height="48" viewBox="0 0 217 48" fill="none">
  <g clip-path="url(#clip0_1038_8773)">
    <path d="M33.2346 11.8813L33.0676 11.7219L23.1428 2.24796L22.9759 2.08855C20.0595 -0.695696 15.3323 -0.695696 12.4159 2.08855L7.30179 6.97095L2.18766 11.8533C-0.728732 14.6376 -0.728732 19.1505 2.18766 21.9348L12.4306 31.7136C15.347 34.4978 20.0741 34.4978 22.9905 31.7136L23.1575 31.5542L17.7252 26.368L22.6712 21.6461L17.2435 16.4643L12.2975 21.1862L7.80158 16.8941L12.7476 12.1722L17.6936 7.45025L27.6173 16.9242L22.6712 21.6461L28.1182 26.8463L33.2323 21.9639C36.1487 19.1796 36.1487 14.6667 33.2323 11.8824H33.2346V11.8813Z" fill="#005DFF"></path>
    <path d="M51.5656 13.9212H48.7789V3.95395C48.7789 3.24954 48.9696 2.69053 49.3521 2.27801C49.7334 1.86441 50.3641 1.65869 51.2418 1.65869H57.9986V4.11874H51.5667V13.9223L51.5656 13.9212ZM57.5586 9.76694H50.9349L50.5716 7.3252H57.5575V9.76694H57.5586Z" fill="#333333"></path>
    <path d="M62.9988 13.9212H60.2505V1.65759H65.1943C66.1611 1.65759 67.0332 1.80084 67.8094 2.08627C68.5856 2.3717 69.1994 2.8036 69.6518 3.37984C70.1031 3.95716 70.3298 4.68203 70.3298 5.55769C70.3298 6.25026 70.1674 6.86096 69.8424 7.3898C69.5186 7.91757 69.0696 8.3344 68.4965 8.63814C67.9234 8.94187 67.2431 9.09374 66.4545 9.09374L65.7098 8.56597C66.4601 8.56597 67.058 8.66937 67.5037 8.87617C67.9493 9.08297 68.3273 9.40179 68.6398 9.83262C68.9512 10.2645 69.2795 10.8192 69.6224 11.4999L70.8635 13.9234H67.8478L66.7027 11.7369C66.512 11.3599 66.3078 11.0443 66.0912 10.7891C65.8746 10.5338 65.6106 10.3399 65.2992 10.2064C64.9867 10.0728 64.5895 10.006 64.1055 10.006H62.7506V7.63646H65.1943C65.6399 7.63646 66.0314 7.56644 66.3676 7.42642C66.7049 7.2864 66.9723 7.08068 67.1697 6.80711C67.3672 6.53353 67.4653 6.20933 67.4653 5.83235C67.4653 5.41983 67.3672 5.08809 67.1697 4.83928C66.9723 4.59048 66.7049 4.40845 66.3676 4.29213C66.0303 4.17688 65.6523 4.11872 65.2315 4.11872H63.036L62.9977 13.9223L62.9988 13.9212Z" fill="#333333"></path>
    <path d="M78.5362 1.42065C80.4068 1.42065 81.7911 1.92473 82.688 2.93287C83.5849 3.94102 84.034 5.32614 84.034 7.08716V13.9212H81.2473V7.23365C81.2473 6.16519 81.0205 5.34768 80.5693 4.78222C80.1169 4.21783 79.4399 3.93456 78.5362 3.93456C77.6326 3.93456 76.9737 4.21675 76.5224 4.78222C76.07 5.34661 75.8455 6.16411 75.8455 7.23365V13.9212H73.0588V7.08716C73.0588 5.32614 73.5033 3.94102 74.3946 2.93287C75.2859 1.92473 76.6657 1.42065 78.5374 1.42065H78.5362ZM82.0483 10.6049H74.4702V8.14486H82.0483V10.6049Z" fill="#333333"></path>
    <path d="M89.6073 13.9212H86.9537V3.33464C86.9537 2.93397 87.0462 2.58715 87.2301 2.29634C87.414 2.00445 87.66 1.78365 87.9657 1.63071C88.2703 1.47884 88.5953 1.40344 88.9394 1.40344C89.3591 1.40344 89.7347 1.47992 90.0653 1.63071C90.3959 1.78257 90.6633 2.02922 90.8675 2.3685L96.346 11.3341C96.2952 11.2975 96.2501 11.277 96.2117 11.2706C96.1734 11.2641 96.1418 11.2609 96.1158 11.2609C96.0775 11.2609 96.0391 11.2792 96.0019 11.3158C95.9635 11.3524 95.9444 11.4073 95.9444 11.4795V1.65763H98.5787V12.2453C98.5787 12.6589 98.4862 13.0079 98.3023 13.2933C98.1173 13.5787 97.8758 13.7942 97.5769 13.9396C97.2779 14.085 96.9631 14.1582 96.6314 14.1582C96.2242 14.1582 95.8485 14.0817 95.5055 13.9309C95.1614 13.7791 94.8884 13.5389 94.6842 13.2104L89.2632 4.2814C89.3015 4.30617 89.3365 4.32125 89.3681 4.32663C89.3997 4.3331 89.4346 4.33633 89.473 4.33633C89.5114 4.33633 89.543 4.31802 89.5689 4.2814C89.5937 4.24478 89.6073 4.19631 89.6073 4.13599V13.9212Z" fill="#333333"></path>
    <path d="M107.511 14.1765C106.569 14.1765 105.698 14.0128 104.896 13.6842C104.093 13.3557 103.387 12.9012 102.777 12.3174C102.165 11.7347 101.692 11.0573 101.354 10.2861C101.017 9.51488 100.849 8.68553 100.849 7.79801C100.849 6.9105 101.017 6.06715 101.354 5.30135C101.692 4.53662 102.165 3.86129 102.777 3.27859C103.387 2.69589 104.093 2.24029 104.896 1.91178C105.697 1.58327 106.569 1.41956 107.511 1.41956C108.249 1.41956 108.967 1.54127 109.668 1.78361C110.369 2.02703 110.995 2.37277 111.549 2.82191C112.103 3.27105 112.531 3.81821 112.837 4.4623L110.566 5.68263C110.248 5.1484 109.834 4.72619 109.325 4.41599C108.816 4.10579 108.173 3.95069 107.397 3.95069C106.862 3.95069 106.369 4.04547 105.918 4.23288C105.465 4.42137 105.075 4.68849 104.744 5.03423C104.414 5.38105 104.159 5.78819 103.981 6.25564C103.802 6.72309 103.713 7.23686 103.713 7.79478C103.713 8.35271 103.802 8.8514 103.981 9.32531C104.159 9.79923 104.409 10.2096 104.734 10.5553C105.059 10.9011 105.45 11.1693 105.909 11.3567C106.367 11.5452 106.863 11.6389 107.397 11.6389C108.173 11.6389 108.819 11.4805 109.334 11.165C109.85 10.8494 110.259 10.4304 110.565 9.90693L112.836 11.1283C112.53 11.7724 112.101 12.3185 111.547 12.7687C110.995 13.2179 110.367 13.5647 109.667 13.807C108.966 14.0494 108.247 14.1711 107.51 14.1711V14.1765H107.511Z" fill="#333333"></path>
    <path d="M124.003 13.9212H117.093C116.215 13.9212 115.584 13.7144 115.203 13.3019C114.82 12.8894 114.63 12.3358 114.63 11.6432V3.95395C114.63 3.24954 114.82 2.69053 115.203 2.27801C115.584 1.86441 116.215 1.65869 117.093 1.65869H123.888V4.0455H117.416V11.5355H124.002V13.9223H124.003V13.9212ZM123.487 8.98282H116.768L116.405 6.59602H123.487V8.98282Z" fill="#333333"></path>
    <path d="M54.5237 32.3996C53.5817 32.3996 52.7107 32.2359 51.9085 31.9074C51.1075 31.5789 50.4001 31.1233 49.7898 30.5406C49.1794 29.9579 48.7045 29.2804 48.3683 28.5081C48.0309 27.7369 47.8617 26.9076 47.8617 26.0212C47.8617 25.1347 48.0298 24.2903 48.3683 23.5245C48.7056 22.7587 49.1794 22.0844 49.7898 21.5017C50.4001 20.919 51.1075 20.4634 51.9085 20.1349C52.7107 19.8064 53.5817 19.6427 54.5237 19.6427C55.2616 19.6427 55.9802 19.7644 56.6808 20.0078C57.3803 20.2512 58.0076 20.597 58.5615 21.0461C59.1144 21.4953 59.5442 22.0424 59.8499 22.6865L57.5789 23.9069C57.2607 23.3726 56.8478 22.9504 56.339 22.6402C55.8302 22.33 55.1871 22.176 54.4109 22.176C53.8761 22.176 53.3831 22.2697 52.9318 22.4582C52.4794 22.6467 52.0891 22.9138 51.7574 23.2595C51.4257 23.6053 51.1718 24.0124 50.9936 24.4799C50.8153 24.9473 50.7262 25.4611 50.7262 26.0201C50.7262 26.5791 50.8153 27.0767 50.9936 27.5506C51.1718 28.0245 51.4234 28.4338 51.7483 28.7806C52.0733 29.1275 52.4636 29.3946 52.9217 29.582C53.3797 29.7705 53.8761 29.8642 54.4109 29.8642C55.1871 29.8642 55.8324 29.7069 56.348 29.3903C56.8636 29.0747 57.2743 28.6557 57.5789 28.1322L59.8499 29.3526C59.5453 29.9967 59.1155 30.5438 58.5615 30.993C58.0076 31.4432 57.3814 31.7889 56.6808 32.0313C55.9802 32.2747 55.2616 32.3964 54.5237 32.3964V32.3996Z" fill="#333333"></path>
    <path d="M64.6211 32.1443H61.8345V19.8796H64.6211V24.818H70.481V19.8796H73.2676V32.1443H70.481V27.2609H64.6211V32.1443Z" fill="#333333"></path>
    <path d="M81.8002 19.6438C83.6707 19.6438 85.055 20.1479 85.9519 21.156C86.8489 22.1642 87.2979 23.5493 87.2979 25.3114V32.1455H84.5112V25.4579C84.5112 24.3883 84.2856 23.5719 83.8343 23.0064C83.3819 22.442 82.705 22.1588 81.8013 22.1588C80.8976 22.1588 80.2387 22.441 79.7875 23.0064C79.335 23.5708 79.1094 24.3883 79.1094 25.4579V32.1455H76.3228V25.3114C76.3228 23.5504 76.7684 22.1652 77.6585 21.156C78.5487 20.1479 79.9296 19.6438 81.8002 19.6438ZM85.3122 28.828H77.7341V26.368H85.3122V28.828Z" fill="#333333"></path>
    <path d="M95.6195 32.3447C93.697 32.3447 92.2856 31.8471 91.3819 30.8508C90.4783 29.8545 90.027 28.4693 90.027 26.6954V19.8796H92.8136V26.6405C92.8136 27.71 93.046 28.506 93.5109 29.0273C93.9757 29.5496 94.6785 29.8114 95.6206 29.8114C96.5626 29.8114 97.2655 29.5496 97.7292 29.0273C98.194 28.5049 98.4264 27.7089 98.4264 26.6405V19.8796H101.213V26.6954C101.213 28.4693 100.758 29.8545 99.848 30.8508C98.9386 31.8471 97.5284 32.3447 95.6206 32.3447H95.6195Z" fill="#333333"></path>
    <path d="M116.043 26.0222C116.043 26.9571 115.872 27.8016 115.528 28.5555C115.184 29.3095 114.697 29.9525 114.068 30.4867C113.437 31.022 112.699 31.4313 111.853 31.7168C111.007 32.0022 110.075 32.1454 109.058 32.1454H104.324V19.8807H109.114C110.502 19.8807 111.713 20.136 112.75 20.6465C113.787 21.1571 114.595 21.8701 115.175 22.7878C115.753 23.7054 116.043 24.7825 116.043 26.0222ZM113.18 26.0222C113.18 25.2812 113.011 24.6371 112.673 24.091C112.336 23.5439 111.862 23.1163 111.252 22.8061C110.642 22.4959 109.929 22.3419 109.114 22.3419H107.11V29.7586H109.058C109.668 29.7586 110.222 29.6703 110.718 29.4947C111.215 29.3192 111.65 29.0704 112.026 28.7472C112.4 28.4252 112.687 28.0342 112.884 27.5722C113.082 27.1112 113.18 26.5942 113.18 26.0233V26.0222Z" fill="#333333"></path>
    <path d="M121.368 32.1443H118.62V19.8796H123.564C124.531 19.8796 125.403 20.0229 126.179 20.3083C126.955 20.5937 127.569 21.0256 128.021 21.6019C128.473 22.1792 128.699 22.9052 128.699 23.7797C128.699 24.4723 128.537 25.0819 128.212 25.6108C127.888 26.1396 127.439 26.5554 126.866 26.8591C126.293 27.1628 125.613 27.3147 124.824 27.3147L124.079 26.7859C124.83 26.7859 125.428 26.8893 125.873 27.0961C126.319 27.3029 126.697 27.6217 127.009 28.0525C127.321 28.4844 127.649 29.0402 127.992 29.7198L129.233 32.1433H126.217L125.072 29.9568C124.882 29.5798 124.677 29.2642 124.461 29.009C124.244 28.7537 123.98 28.5598 123.669 28.4263C123.356 28.2927 122.959 28.2259 122.475 28.2259H121.12V25.8574H123.564C124.01 25.8574 124.401 25.7874 124.737 25.6474C125.075 25.5074 125.342 25.3006 125.539 25.0281C125.737 24.7545 125.835 24.4292 125.835 24.0533C125.835 23.6408 125.737 23.3091 125.539 23.0603C125.342 22.8114 125.075 22.6294 124.737 22.5142C124.4 22.3989 124.022 22.3408 123.601 22.3408H121.406L121.367 32.1443H121.368Z" fill="#333333"></path>
    <path d="M137.441 32.3813C136.499 32.3813 135.621 32.223 134.806 31.9074C133.992 31.5918 133.282 31.1448 132.677 30.5686C132.073 29.9913 131.602 29.3138 131.265 28.5362C130.928 27.7585 130.758 26.9205 130.758 26.0212C130.758 25.1218 130.927 24.2839 131.265 23.5062C131.602 22.7296 132.073 22.0543 132.677 21.4834C133.282 20.9126 133.992 20.4667 134.806 20.1446C135.621 19.8226 136.499 19.6621 137.441 19.6621C138.383 19.6621 139.276 19.8226 140.084 20.1446C140.892 20.4667 141.602 20.9137 142.213 21.4834C142.823 22.0543 143.298 22.7286 143.635 23.5062C143.972 24.2839 144.141 25.1218 144.141 26.0212C144.141 26.9205 143.972 27.7585 143.635 28.5362C143.297 29.3138 142.823 29.9913 142.213 30.5686C141.603 31.1459 140.893 31.5918 140.084 31.9074C139.276 32.223 138.395 32.3813 137.441 32.3813ZM137.441 29.8664C137.976 29.8664 138.474 29.7694 138.939 29.5755C139.404 29.3806 139.81 29.1081 140.161 28.7559C140.512 28.4037 140.781 27.9933 140.972 27.5259C141.163 27.0584 141.259 26.5565 141.259 26.0223C141.259 25.488 141.163 24.9721 140.972 24.51C140.781 24.049 140.511 23.6419 140.161 23.2897C139.811 22.9375 139.404 22.6639 138.939 22.469C138.474 22.2751 137.976 22.1782 137.441 22.1782C136.906 22.1782 136.407 22.2751 135.942 22.469C135.478 22.6639 135.07 22.9375 134.721 23.2897C134.37 23.6419 134.1 24.049 133.909 24.51C133.719 24.9721 133.623 25.4762 133.623 26.0223C133.623 26.5683 133.719 27.0584 133.909 27.5259C134.1 27.9933 134.37 28.4037 134.721 28.7559C135.07 29.1081 135.478 29.3817 135.942 29.5755C136.407 29.7705 136.906 29.8664 137.441 29.8664Z" fill="#333333"></path>
    <path d="M149.027 32.1444H146.374V21.5567C146.374 21.156 146.466 20.8092 146.65 20.5184C146.834 20.2276 147.079 20.0057 147.385 19.8528C147.69 19.7009 148.015 19.6255 148.358 19.6255C148.778 19.6255 149.154 19.702 149.484 19.8528C149.815 20.0046 150.082 20.2513 150.285 20.5905L155.764 29.5562C155.713 29.5195 155.668 29.498 155.631 29.4915C155.592 29.4861 155.561 29.4829 155.535 29.4829C155.496 29.4829 155.458 29.5012 155.42 29.5368C155.381 29.5734 155.363 29.6283 155.363 29.7005V19.8786H157.998V30.4663C157.998 30.8799 157.905 31.2289 157.721 31.5143C157.536 31.8008 157.295 32.0151 156.996 32.1616C156.696 32.307 156.381 32.3803 156.05 32.3803C155.643 32.3803 155.267 32.3038 154.924 32.1519C154.58 32 154.307 31.7599 154.103 31.4324L148.682 22.5034C148.72 22.5282 148.755 22.5433 148.787 22.5487C148.819 22.5551 148.854 22.5584 148.892 22.5584C148.93 22.5584 148.962 22.5401 148.988 22.5034C149.014 22.4668 149.026 22.4184 149.026 22.358V32.1444H149.027Z" fill="#333333"></path>
    <path d="M163.838 32.1444H161.185V21.5567C161.185 21.156 161.277 20.8092 161.461 20.5184C161.645 20.2276 161.89 20.0057 162.196 19.8528C162.501 19.7009 162.826 19.6255 163.169 19.6255C163.589 19.6255 163.965 19.702 164.295 19.8528C164.626 20.0046 164.893 20.2513 165.096 20.5905L170.575 29.5562C170.524 29.5195 170.479 29.498 170.442 29.4915C170.403 29.4861 170.372 29.4829 170.346 29.4829C170.307 29.4829 170.269 29.5012 170.231 29.5368C170.192 29.5734 170.174 29.6283 170.174 29.7005V19.8786H172.809V30.4663C172.809 30.8799 172.716 31.2289 172.532 31.5143C172.347 31.8008 172.106 32.0151 171.807 32.1616C171.507 32.307 171.192 32.3803 170.861 32.3803C170.454 32.3803 170.078 32.3038 169.735 32.1519C169.391 32 169.118 31.7599 168.914 31.4324L163.493 22.5034C163.531 22.5282 163.566 22.5433 163.598 22.5487C163.63 22.5551 163.665 22.5584 163.703 22.5584C163.741 22.5584 163.773 22.5401 163.799 22.5034C163.825 22.4668 163.837 22.4184 163.837 22.358V32.1444H163.838Z" fill="#333333"></path>
    <path d="M185.311 32.1444H178.401C177.522 32.1444 176.893 31.9376 176.511 31.525C176.13 31.1125 175.938 30.5589 175.938 29.8663V22.1771C175.938 21.4727 176.129 20.9137 176.511 20.5001C176.894 20.0875 177.523 19.8807 178.401 19.8807H185.196V22.2675H178.725V29.7575H185.31V32.1444H185.311ZM184.796 27.2059H178.077L177.714 24.8191H184.796V27.2059Z" fill="#333333"></path>
    <path d="M190.79 32.1443H188.042V19.8796H192.985C193.952 19.8796 194.824 20.0229 195.601 20.3083C196.377 20.5937 196.99 21.0256 197.443 21.6019C197.894 22.1792 198.12 22.9052 198.12 23.7797C198.12 24.4723 197.957 25.0819 197.634 25.6108C197.309 26.1396 196.861 26.5554 196.288 26.8591C195.716 27.1628 195.034 27.3147 194.246 27.3147L193.501 26.7859C194.252 26.7859 194.849 26.8893 195.296 27.0961C195.74 27.3029 196.12 27.6217 196.432 28.0525C196.743 28.4844 197.072 29.0402 197.415 29.7198L198.656 32.1433H195.64L194.495 29.9568C194.304 29.5798 194.1 29.2642 193.885 29.009C193.668 28.7537 193.404 28.5598 193.093 28.4263C192.78 28.2927 192.383 28.2259 191.899 28.2259H190.544V25.8574H192.988C193.433 25.8574 193.825 25.7874 194.162 25.6474C194.499 25.5074 194.767 25.3006 194.963 25.0281C195.161 24.7545 195.259 24.4292 195.259 24.0533C195.259 23.6408 195.161 23.3091 194.963 23.0603C194.766 22.8114 194.498 22.6294 194.162 22.5142C193.825 22.3989 193.447 22.3408 193.026 22.3408H190.831L190.792 32.1443H190.79Z" fill="#333333"></path>
    <path d="M201.23 19.8807H204.017V32.1454H201.23V19.8807Z" fill="#333333"></path>
    <path d="M216.616 32.1444H209.705C208.826 32.1444 208.197 31.9376 207.816 31.525C207.434 31.1125 207.242 30.5589 207.242 29.8663V22.1771C207.242 21.4727 207.433 20.9137 207.816 20.5001C208.198 20.0875 208.828 19.8807 209.705 19.8807H216.5V22.2675H210.029V29.7575H216.614V32.1444H216.616ZM216.1 27.2059H209.381L209.018 24.8191H216.1V27.2059Z" fill="#333333"></path>
    <path d="M50.356 47.9989C49.749 47.9989 49.212 47.8783 48.7438 47.637C48.2756 47.3958 47.9326 47.0436 47.7172 46.5804L48.9514 45.9912C49.0586 46.2228 49.2323 46.3995 49.4715 46.5222C49.7107 46.645 50.0063 46.7054 50.356 46.7054C50.5715 46.7054 50.7622 46.6784 50.9269 46.6235C51.0927 46.5696 51.2247 46.4878 51.3263 46.3822C51.4267 46.2767 51.4774 46.1453 51.4774 45.9912C51.4774 45.8114 51.4233 45.6746 51.3161 45.5809C51.2089 45.4872 51.06 45.4182 50.8716 45.373C50.6832 45.3278 50.4711 45.2868 50.2342 45.247C49.9781 45.2028 49.7096 45.1425 49.4309 45.0682C49.1511 44.9939 48.8882 44.8862 48.6423 44.7451C48.3963 44.604 48.1989 44.4123 48.0511 44.1699C47.9033 43.9276 47.8289 43.6281 47.8289 43.2673C47.8289 42.8817 47.936 42.5392 48.1526 42.2398C48.3681 41.9404 48.6648 41.7023 49.0417 41.5257C49.4185 41.348 49.8404 41.2596 50.3053 41.2596C50.8716 41.2596 51.3804 41.3803 51.8317 41.6215C52.283 41.8628 52.6169 42.215 52.8324 42.6782L51.5982 43.2673C51.4899 43.0551 51.324 42.885 51.0972 42.7557C50.8705 42.6265 50.5873 42.5629 50.2432 42.5629C50.0616 42.5629 49.8991 42.5888 49.7581 42.6405C49.6171 42.6922 49.5054 42.7665 49.4241 42.8623C49.3429 42.9593 49.3023 43.0745 49.3023 43.2102C49.3023 43.3836 49.3598 43.5215 49.4738 43.6206C49.5888 43.7208 49.7445 43.7962 49.9442 43.8479C50.1428 43.8996 50.3639 43.948 50.6065 43.9922C50.8626 44.0374 51.1277 44.0967 51.4007 44.171C51.6738 44.2453 51.9265 44.353 52.1589 44.4941C52.3913 44.6352 52.582 44.8259 52.7298 45.0639C52.8775 45.3019 52.952 45.6078 52.952 45.9816C52.952 46.3553 52.8358 46.714 52.6034 47.0199C52.371 47.3257 52.0585 47.5649 51.6681 47.7393C51.2778 47.9128 50.8389 48 50.3538 48H50.356V47.9989Z" fill="#005DFF"></path>
    <path d="M58.8187 47.9989C58.32 47.9989 57.8541 47.9149 57.4231 47.748C56.9921 47.581 56.6153 47.3441 56.296 47.0382C55.9756 46.7323 55.7263 46.3736 55.548 45.9622C55.3698 45.5507 55.2795 45.1059 55.2795 44.6309C55.2795 44.1559 55.3687 43.7111 55.548 43.2986C55.7263 42.8871 55.9756 42.5295 56.296 42.2269C56.6165 41.9242 56.9921 41.6883 57.4231 41.5171C57.8541 41.3469 58.32 41.2607 58.8187 41.2607C59.3174 41.2607 59.7901 41.3458 60.2188 41.5171C60.6475 41.6873 61.0221 41.9242 61.3459 42.2269C61.6697 42.5295 61.9201 42.8861 62.0995 43.2986C62.2789 43.7111 62.368 44.1549 62.368 44.6309C62.368 45.107 62.2789 45.5507 62.0995 45.9622C61.9212 46.3736 61.6697 46.7334 61.3459 47.0382C61.0221 47.3441 60.6464 47.581 60.2188 47.748C59.7901 47.916 59.3241 47.9989 58.8187 47.9989ZM58.8187 46.6666C59.1019 46.6666 59.3659 46.6149 59.6118 46.5126C59.8578 46.4092 60.0733 46.2648 60.2583 46.0785C60.4444 45.8922 60.5866 45.6746 60.6881 45.4269C60.7885 45.1792 60.8393 44.9142 60.8393 44.6309C60.8393 44.3476 60.7885 44.0741 60.6881 43.8296C60.5866 43.5851 60.4433 43.3697 60.2583 43.1833C60.0733 42.997 59.8578 42.8516 59.6118 42.7493C59.3659 42.6459 59.1007 42.5952 58.8187 42.5952C58.5366 42.5952 58.2704 42.6469 58.0244 42.7493C57.7785 42.8527 57.563 42.997 57.378 43.1833C57.1918 43.3697 57.0497 43.5851 56.9481 43.8296C56.8477 44.0741 56.797 44.3412 56.797 44.6309C56.797 44.9207 56.8477 45.1792 56.9481 45.4269C57.0497 45.6746 57.193 45.8922 57.378 46.0785C57.563 46.2659 57.7785 46.4103 58.0244 46.5126C58.2704 46.6149 58.5355 46.6666 58.8187 46.6666Z" fill="#005DFF"></path>
    <path d="M66.6145 41.3771V46.5707H69.7893V47.874H66.4419C65.9771 47.874 65.6431 47.7652 65.4412 47.5455C65.2392 47.3269 65.1377 47.0339 65.1377 46.6666V41.3771H66.6145Z" fill="#005DFF"></path>
    <path d="M75.0568 47.9796C74.0391 47.9796 73.29 47.7157 72.8116 47.1879C72.3333 46.6601 72.0941 45.9267 72.0941 44.9874V41.3771H73.5698V44.9584C73.5698 45.5249 73.6928 45.946 73.9387 46.2228C74.1847 46.4997 74.557 46.6375 75.0568 46.6375C75.5566 46.6375 75.9277 46.4997 76.1737 46.2228C76.4196 45.946 76.5426 45.5249 76.5426 44.9584V41.3771H78.0183V44.9874C78.0183 45.9267 77.778 46.6601 77.2951 47.1879C76.8134 47.7157 76.0665 47.9796 75.0556 47.9796H75.0568Z" fill="#005DFF"></path>
    <path d="M85.8954 41.3771V42.6803H80.4158V41.3771H85.8954ZM82.4172 41.3771H83.8929V47.8729H82.4172V41.3771Z" fill="#005DFF"></path>
    <path d="M88.4745 41.3771H89.9513V47.8729H88.4745V41.3771Z" fill="#005DFF"></path>
    <path d="M96.2602 47.9989C95.7616 47.9989 95.2956 47.9149 94.8646 47.748C94.4337 47.581 94.0569 47.3441 93.7376 47.0382C93.4172 46.7323 93.1678 46.3736 92.9896 45.9622C92.8113 45.5507 92.7211 45.1059 92.7211 44.6309C92.7211 44.1559 92.8102 43.7111 92.9896 43.2986C93.1678 42.8871 93.4172 42.5295 93.7376 42.2269C94.058 41.9242 94.4337 41.6883 94.8646 41.5171C95.2956 41.3469 95.7616 41.2607 96.2602 41.2607C96.7589 41.2607 97.2316 41.3458 97.6603 41.5171C98.089 41.6873 98.4636 41.9242 98.7874 42.2269C99.1112 42.5295 99.3617 42.8861 99.541 43.2986C99.7204 43.7111 99.8095 44.1549 99.8095 44.6309C99.8095 45.107 99.7204 45.5507 99.541 45.9622C99.3628 46.3736 99.1112 46.7334 98.7874 47.0382C98.4636 47.3441 98.0879 47.581 97.6603 47.748C97.2316 47.916 96.7657 47.9989 96.2602 47.9989ZM96.2602 46.6666C96.5434 46.6666 96.8074 46.6149 97.0534 46.5126C97.2993 46.4092 97.5148 46.2648 97.6998 46.0785C97.886 45.8922 98.0281 45.6746 98.1297 45.4269C98.2301 45.1792 98.2808 44.9142 98.2808 44.6309C98.2808 44.3476 98.2301 44.0741 98.1297 43.8296C98.0281 43.5851 97.8848 43.3697 97.6998 43.1833C97.5148 42.997 97.2993 42.8516 97.0534 42.7493C96.8074 42.6459 96.5423 42.5952 96.2602 42.5952C95.9782 42.5952 95.7119 42.6469 95.466 42.7493C95.22 42.8527 95.0045 42.997 94.8195 43.1833C94.6334 43.3697 94.4912 43.5851 94.3897 43.8296C94.2893 44.0741 94.2385 44.3412 94.2385 44.6309C94.2385 44.9207 94.2893 45.1792 94.3897 45.4269C94.4912 45.6746 94.6345 45.8922 94.8195 46.0785C95.0045 46.2659 95.22 46.4103 95.466 46.5126C95.7119 46.616 95.9771 46.6666 96.2602 46.6666Z" fill="#005DFF"></path>
    <path d="M103.914 47.874H102.508V42.2657C102.508 42.0535 102.558 41.8704 102.655 41.7153C102.753 41.5612 102.882 41.4438 103.044 41.3631C103.205 41.2823 103.377 41.2424 103.56 41.2424C103.782 41.2424 103.98 41.2823 104.156 41.3631C104.331 41.4438 104.473 41.5742 104.581 41.754L107.482 46.5029C107.455 46.4835 107.432 46.4727 107.411 46.4695C107.391 46.4663 107.374 46.4641 107.361 46.4641C107.34 46.4641 107.32 46.4738 107.3 46.4932C107.279 46.5126 107.269 46.5417 107.269 46.5804V41.3771H108.665V46.9854C108.665 47.2041 108.615 47.3893 108.518 47.5401C108.421 47.6909 108.292 47.8051 108.133 47.8826C107.974 47.9602 107.808 47.9989 107.632 47.9989C107.417 47.9989 107.218 47.9591 107.036 47.8783C106.854 47.7975 106.708 47.6715 106.601 47.497L103.73 42.7665C103.75 42.7794 103.768 42.787 103.785 42.7902C103.802 42.7934 103.82 42.7956 103.841 42.7956C103.861 42.7956 103.878 42.7859 103.891 42.7665C103.905 42.7471 103.912 42.7213 103.912 42.6889V47.8729H103.914V47.874Z" fill="#005DFF"></path>
    <path d="M114.125 47.9989C113.518 47.9989 112.981 47.8783 112.513 47.637C112.045 47.3958 111.702 47.0436 111.486 46.5804L112.721 45.9912C112.828 46.2228 113.001 46.3995 113.241 46.5222C113.48 46.645 113.775 46.7054 114.125 46.7054C114.341 46.7054 114.531 46.6784 114.696 46.6235C114.862 46.5696 114.994 46.4878 115.095 46.3822C115.196 46.2767 115.247 46.1453 115.247 45.9912C115.247 45.8114 115.192 45.6746 115.085 45.5809C114.977 45.4872 114.829 45.4182 114.641 45.373C114.452 45.3278 114.24 45.2868 114.003 45.247C113.747 45.2028 113.479 45.1425 113.2 45.0682C112.92 44.9939 112.657 44.8862 112.411 44.7451C112.166 44.604 111.968 44.4123 111.82 44.1699C111.672 43.9276 111.598 43.6281 111.598 43.2673C111.598 42.8817 111.705 42.5392 111.922 42.2398C112.137 41.9404 112.434 41.7023 112.811 41.5257C113.188 41.348 113.61 41.2596 114.074 41.2596C114.641 41.2596 115.15 41.3803 115.601 41.6215C116.052 41.8628 116.386 42.215 116.602 42.6782L115.367 43.2673C115.259 43.0551 115.093 42.885 114.866 42.7557C114.64 42.6265 114.356 42.5629 114.012 42.5629C113.831 42.5629 113.668 42.5888 113.527 42.6405C113.386 42.6922 113.275 42.7665 113.193 42.8623C113.112 42.9593 113.071 43.0745 113.071 43.2102C113.071 43.3836 113.129 43.5215 113.243 43.6206C113.358 43.7208 113.514 43.7962 113.713 43.8479C113.912 43.8996 114.133 43.948 114.376 43.9922C114.632 44.0374 114.897 44.0967 115.17 44.171C115.443 44.2453 115.696 44.353 115.928 44.4941C116.16 44.6352 116.351 44.8259 116.499 45.0639C116.647 45.3019 116.721 45.6078 116.721 45.9816C116.721 46.3553 116.605 46.714 116.373 47.0199C116.14 47.3257 115.828 47.5649 115.437 47.7393C115.047 47.9128 114.608 48 114.123 48H114.125V47.9989Z" fill="#005DFF"></path>
  </g>
  <defs>
    <clipPath id="clip0_1038_8773">
      <rect width="216.615" height="48" fill="white"></rect>
    </clipPath>
  </defs>
</svg>
