<?xml version="1.0" encoding="UTF-8"?>
<svg xmlns="http://www.w3.org/2000/svg" width="217" height="48" viewBox="0 0 217 48" fill="none">
  <g clip-path="url(#clip0_1038_8778)">
    <path d="M33.2346 11.8792L33.0676 11.7198L23.1428 2.24756L22.9759 2.08818C20.0595 -0.695571 15.3323 -0.695571 12.4159 2.08818L7.30179 6.9697L2.18766 11.8512C-0.728732 14.635 -0.728732 19.1471 2.18766 21.9309L12.4306 31.7079C15.347 34.4916 20.0741 34.4916 22.9905 31.7079L23.1575 31.5485L17.7252 26.3633L22.6712 21.6423L17.2435 16.4614L12.2975 21.1824L7.80158 16.891L12.7476 12.17L17.6936 7.44891L27.6173 16.9212L22.6712 21.6423L28.1182 26.8415L33.2323 21.9599C36.1487 19.1762 36.1487 14.664 33.2323 11.8803H33.2346V11.8792Z" fill="#00BA3B"></path>
    <path d="M51.5656 13.9198H48.7789V3.95327C48.7789 3.24898 48.9696 2.69008 49.3509 2.27656C49.7334 1.86411 50.3629 1.65735 51.2407 1.65735H57.9975V4.11695H51.5656V13.9188V13.9198ZM57.5586 9.76522H50.9349L50.5728 7.32392H57.5586V9.76522Z" fill="#333333"></path>
    <path d="M62.9987 13.9198H60.2504V1.65735H65.1941C66.161 1.65735 67.0331 1.80057 67.8093 2.08595C68.5855 2.37132 69.1992 2.80315 69.6517 3.37929C70.1029 3.9565 70.3286 4.68232 70.3286 5.55675C70.3286 6.24919 70.1661 6.8587 69.8423 7.38745C69.5185 7.9162 69.0695 8.33188 68.4964 8.63556C67.9244 8.93925 67.2429 9.09109 66.4543 9.09109L65.7097 8.56234C66.4611 8.56234 67.0579 8.66572 67.5047 8.87248C67.9492 9.07924 68.3283 9.398 68.6408 9.82875C68.9522 10.2606 69.2805 10.8163 69.6234 11.4958L70.8645 13.9188H67.8488L66.7037 11.7327C66.513 11.3558 66.3088 11.0402 66.0933 10.785C65.8767 10.5298 65.6127 10.336 65.3013 10.2024C64.9888 10.0689 64.5917 10.0021 64.1077 10.0021H62.7527V7.63406H65.1964C65.642 7.63406 66.0335 7.56406 66.3708 7.42407C66.7082 7.28407 66.9756 7.07731 67.1719 6.80486C67.3693 6.53133 67.4675 6.20611 67.4675 5.83028C67.4675 5.41783 67.3693 5.08615 67.1719 4.83739C66.9744 4.58863 66.707 4.40664 66.3708 4.29141C66.0335 4.17618 65.6556 4.11803 65.2347 4.11803H63.0393L63.0009 13.9198H62.9987Z" fill="#333333"></path>
    <path d="M78.5362 1.42041C80.4068 1.42041 81.7911 1.92439 82.688 2.93236C83.5849 3.9414 84.034 5.3252 84.034 7.08698V13.9198H81.2473V7.23344C81.2473 6.16409 81.0217 5.34781 80.5704 4.78245C80.118 4.21816 79.4411 3.93494 78.5374 3.93494C77.6337 3.93494 76.9748 4.21708 76.5235 4.78245C76.0711 5.34673 75.8455 6.16409 75.8455 7.23344V13.9198H73.0588V7.08698C73.0588 5.32627 73.5045 3.9414 74.3946 2.93236C75.2848 1.92439 76.6657 1.42041 78.5362 1.42041ZM82.0483 10.603H74.4702V8.1434H82.0483V10.603Z" fill="#333333"></path>
    <path d="M89.6073 13.9198H86.9537V3.33405C86.9537 2.93345 87.0462 2.58669 87.2301 2.29594C87.414 2.00518 87.6589 1.78334 87.9646 1.63042C88.2703 1.47858 88.5953 1.4032 88.9382 1.4032C89.3579 1.4032 89.7336 1.47966 90.0642 1.63042C90.3947 1.78226 90.6621 2.02887 90.8652 2.36809L96.3437 11.3321C96.293 11.2955 96.2478 11.2739 96.2106 11.2675C96.1723 11.2621 96.1407 11.2589 96.1147 11.2589C96.0764 11.2589 96.038 11.2772 95.9996 11.3127C95.9613 11.3493 95.9432 11.4042 95.9432 11.4764V1.65734H98.5776V12.2431C98.5776 12.6566 98.4851 13.0056 98.3012 13.2909C98.1161 13.5774 97.8747 13.7917 97.5757 13.9381C97.2756 14.0835 96.9609 14.1567 96.6303 14.1567C96.223 14.1567 95.8473 14.0803 95.5044 13.9284C95.1603 13.7766 94.8872 13.5365 94.683 13.2091L89.262 4.28171C89.3004 4.30648 89.3354 4.32156 89.367 4.32694C89.3985 4.3334 89.4335 4.33663 89.4719 4.33663C89.5102 4.33663 89.5418 4.31833 89.5678 4.28171C89.5937 4.2451 89.6061 4.19664 89.6061 4.13633V13.9209H89.6073V13.9198Z" fill="#333333"></path>
    <path d="M107.511 14.1739C106.569 14.1739 105.698 14.0103 104.895 13.6818C104.094 13.3534 103.387 12.8978 102.777 12.3152C102.166 11.7326 101.691 11.0553 101.355 10.2832C101.018 9.5121 100.849 8.6829 100.849 7.79663C100.849 6.91035 101.017 6.06607 101.355 5.30041C101.693 4.53474 102.166 3.86061 102.777 3.27802C103.387 2.69542 104.094 2.2399 104.895 1.91145C105.698 1.583 106.569 1.41931 107.511 1.41931C108.248 1.41931 108.967 1.541 109.668 1.78438C110.367 2.02775 110.995 2.37343 111.548 2.82249C112.101 3.27155 112.531 3.81861 112.837 4.46259L110.566 5.6827C110.248 5.14856 109.835 4.72643 109.326 4.41628C108.817 4.10614 108.174 3.95215 107.398 3.95215C106.863 3.95215 106.37 4.04583 105.919 4.23429C105.466 4.42274 105.076 4.68981 104.744 5.03549C104.413 5.38117 104.159 5.78823 103.981 6.2556C103.802 6.72297 103.713 7.23664 103.713 7.79555C103.713 8.35445 103.802 8.85197 103.981 9.3258C104.159 9.79963 104.41 10.2088 104.735 10.5556C105.06 10.9024 105.451 11.1694 105.909 11.3568C106.367 11.5453 106.863 11.639 107.398 11.639C108.174 11.639 108.819 11.4817 109.335 11.1651C109.851 10.8485 110.261 10.4307 110.566 9.90732L112.837 11.1274C112.532 11.7714 112.102 12.3185 111.548 12.7675C110.995 13.2177 110.368 13.5633 109.668 13.8056C108.967 14.049 108.248 14.1707 107.511 14.1707V14.1739Z" fill="#333333"></path>
    <path d="M124.003 13.9198H117.092C116.214 13.9198 115.584 13.7131 115.203 13.3006C114.821 12.8882 114.63 12.3347 114.63 11.6422V3.95327C114.63 3.24898 114.82 2.69008 115.203 2.27656C115.585 1.86411 116.215 1.65735 117.092 1.65735H123.888V4.04373H117.416V11.5324H124.002V13.9188H124.003V13.9198ZM123.487 8.98232H116.769L116.405 6.59594H123.487V8.98232Z" fill="#333333"></path>
    <path d="M54.5248 32.3938C53.5828 32.3938 52.7118 32.2301 51.9096 31.9017C51.1075 31.5732 50.4012 31.1188 49.7909 30.5351C49.1794 29.9525 48.7056 29.2751 48.3682 28.5041C48.0309 27.733 47.8628 26.9038 47.8628 26.0165C47.8628 25.1291 48.0309 24.2859 48.3682 23.5203C48.7056 22.7557 49.1794 22.0805 49.7909 21.4979C50.4012 20.9153 51.1075 20.4597 51.9096 20.1313C52.7107 19.8028 53.5828 19.6392 54.5248 19.6392C55.2627 19.6392 55.9813 19.7608 56.6819 20.0031C57.3825 20.2465 58.0087 20.5922 58.5626 21.0413C59.1166 21.4903 59.5453 22.0374 59.851 22.6814L57.58 23.9015C57.2618 23.3673 56.8478 22.9452 56.339 22.6351C55.8301 22.3249 55.1871 22.1698 54.4109 22.1698C53.8761 22.1698 53.3831 22.2646 52.9318 22.452C52.4794 22.6404 52.089 22.9075 51.7585 23.2532C51.4279 23.5999 51.1729 24.007 50.9947 24.4744C50.8164 24.9417 50.7273 25.4554 50.7273 26.0132C50.7273 26.5711 50.8164 27.0697 50.9947 27.5435C51.1729 28.0173 51.4234 28.4276 51.7483 28.7733C52.0732 29.119 52.4636 29.3871 52.9228 29.5745C53.3808 29.763 53.8772 29.8566 54.4109 29.8566C55.1871 29.8566 55.8335 29.6983 56.348 29.3828C56.8636 29.0673 57.2731 28.6484 57.5788 28.125L59.8499 29.3462C59.5442 29.9902 59.1155 30.5362 58.5615 30.9863C58.0087 31.4354 57.3814 31.7821 56.6808 32.0244C55.9802 32.2667 55.2615 32.3884 54.5237 32.3884V32.3938H54.5248Z" fill="#333333"></path>
    <path d="M64.6211 32.1386H61.8345V19.8772H64.6211V24.8147H70.481V19.8772H73.2676V32.1386H70.481V27.256H64.6211V32.1386Z" fill="#333333"></path>
    <path d="M81.8002 19.6403C83.6707 19.6403 85.055 20.1442 85.9519 21.1522C86.8489 22.1602 87.2979 23.545 87.2979 25.3058V32.1386H84.5112V25.4522C84.5112 24.3839 84.2845 23.5666 83.8332 23.0012C83.3808 22.4369 82.7038 22.1537 81.8002 22.1537C80.8965 22.1537 80.2376 22.4359 79.7863 23.0012C79.3339 23.5655 79.1094 24.3829 79.1094 25.4522V32.1386H76.3228V25.3058C76.3228 23.545 76.7673 22.1602 77.6585 21.1522C78.5498 20.1442 79.9296 19.6403 81.8013 19.6403H81.8002ZM85.3122 28.8229H77.7341V26.3633H85.3122V28.8229Z" fill="#333333"></path>
    <path d="M95.6195 32.34C93.6981 32.34 92.2856 31.8414 91.3819 30.8453C90.4783 29.8492 90.027 28.4654 90.027 26.6917V19.8772H92.8136V26.6368C92.8136 27.7062 93.046 28.5009 93.5109 29.0232C93.9757 29.5455 94.6785 29.8061 95.6195 29.8061C96.5604 29.8061 97.2644 29.5455 97.7292 29.0232C98.194 28.5009 98.4253 27.7051 98.4253 26.6368V19.8772H101.213V26.6917C101.213 28.4654 100.758 29.8502 99.848 30.8453C98.9375 31.8414 97.5284 32.34 95.6195 32.34Z" fill="#333333"></path>
    <path d="M116.043 26.0176C116.043 26.9534 115.872 27.7977 115.528 28.5505C115.184 29.3032 114.697 29.9472 114.068 30.4813C113.438 31.0154 112.699 31.4257 111.854 31.7111C111.008 31.9976 110.076 32.1397 109.057 32.1397H104.323V19.8783H109.115C110.502 19.8783 111.713 20.1335 112.751 20.6429C113.788 21.1533 114.596 21.8673 115.175 22.7837C115.753 23.7012 116.043 24.7792 116.043 26.0176ZM113.18 26.0176C113.18 25.2767 113.012 24.6327 112.674 24.0868C112.337 23.5397 111.863 23.1122 111.252 22.802C110.641 22.4919 109.928 22.3368 109.114 22.3368H107.109V29.7523H109.056C109.668 29.7523 110.221 29.6639 110.717 29.4884C111.213 29.3129 111.649 29.0631 112.025 28.7411C112.399 28.4191 112.686 28.0271 112.883 27.5651C113.081 27.1042 113.179 26.5873 113.179 26.0165H113.18V26.0176Z" fill="#333333"></path>
    <path d="M121.368 32.1386H118.62V19.8772H123.564C124.531 19.8772 125.403 20.0204 126.179 20.3058C126.955 20.5912 127.569 21.023 128.021 21.5991C128.473 22.1763 128.698 22.9011 128.698 23.7766C128.698 24.469 128.536 25.0796 128.212 25.6084C127.887 26.1361 127.439 26.5528 126.866 26.8565C126.294 27.1602 125.613 27.312 124.824 27.312L124.079 26.7843C124.831 26.7843 125.428 26.8877 125.874 27.0945C126.319 27.3012 126.698 27.62 127.011 28.0508C127.322 28.4826 127.65 29.0372 127.993 29.7178L129.234 32.1408H126.219L125.073 29.9547C124.883 29.5778 124.679 29.2622 124.463 29.007C124.246 28.7518 123.982 28.558 123.671 28.4244C123.359 28.2909 122.961 28.2241 122.477 28.2241H121.122V25.855H123.566C124.012 25.855 124.403 25.785 124.741 25.645C125.078 25.505 125.345 25.2993 125.542 25.0258C125.739 24.7523 125.837 24.4281 125.837 24.0512C125.837 23.6388 125.739 23.3071 125.542 23.0583C125.344 22.8096 125.077 22.6276 124.741 22.5113C124.403 22.396 124.025 22.3379 123.604 22.3379H121.409L121.371 32.1397H121.368V32.1386Z" fill="#333333"></path>
    <path d="M137.441 32.3755C136.499 32.3755 135.621 32.2172 134.806 31.9017C133.992 31.5861 133.282 31.1392 132.677 30.5631C132.073 29.9859 131.602 29.3096 131.265 28.531C130.928 27.7546 130.76 26.9157 130.76 26.0165C130.76 25.1173 130.928 24.2795 131.265 23.502C131.602 22.7244 132.073 22.0503 132.677 21.4796C133.282 20.9088 133.991 20.4619 134.806 20.141C135.62 19.819 136.499 19.6575 137.441 19.6575C138.383 19.6575 139.276 19.819 140.084 20.141C140.892 20.463 141.602 20.9088 142.213 21.4796C142.823 22.0503 143.297 22.7244 143.635 23.502C143.972 24.2795 144.14 25.1173 144.14 26.0165C144.14 26.9157 143.972 27.7535 143.635 28.531C143.297 29.3085 142.823 29.9859 142.213 30.5631C141.602 31.1403 140.893 31.5861 140.084 31.9017C139.275 32.2172 138.395 32.3755 137.441 32.3755ZM137.441 29.861C137.975 29.861 138.474 29.764 138.939 29.5691C139.404 29.3753 139.81 29.1018 140.161 28.7496C140.511 28.3975 140.781 27.9872 140.972 27.5198C141.163 27.0524 141.259 26.5517 141.259 26.0165C141.259 25.4813 141.163 24.9665 140.972 24.5045C140.781 24.0436 140.511 23.6366 140.161 23.2844C139.81 22.9323 139.404 22.6587 138.939 22.4649C138.474 22.2711 137.975 22.1731 137.441 22.1731C136.906 22.1731 136.407 22.2711 135.942 22.4649C135.478 22.6598 135.07 22.9323 134.721 23.2844C134.371 23.6366 134.1 24.0436 133.909 24.5045C133.719 24.9665 133.623 25.4705 133.623 26.0165C133.623 26.5625 133.719 27.0524 133.909 27.5198C134.1 27.9883 134.371 28.3975 134.721 28.7496C135.07 29.1018 135.478 29.3753 135.942 29.5691C136.407 29.764 136.906 29.861 137.441 29.861Z" fill="#333333"></path>
    <path d="M149.026 32.1386H146.373V21.5528C146.373 21.1522 146.465 20.8054 146.649 20.5147C146.833 20.2228 147.079 20.0021 147.385 19.8492C147.689 19.6973 148.014 19.6219 148.358 19.6219C148.778 19.6219 149.154 19.6984 149.484 19.8492C149.815 20.001 150.082 20.2476 150.286 20.5868L155.765 29.5508C155.714 29.5142 155.669 29.4938 155.631 29.4873C155.592 29.4808 155.561 29.4776 155.535 29.4776C155.496 29.4776 155.458 29.4959 155.421 29.5325C155.382 29.5691 155.363 29.6241 155.363 29.6962V19.8761H157.998V30.4619C157.998 30.8754 157.905 31.2243 157.721 31.5097C157.536 31.7951 157.295 32.0104 156.996 32.1558C156.697 32.3012 156.382 32.3744 156.05 32.3744C155.643 32.3744 155.267 32.298 154.924 32.1472C154.58 31.9954 154.307 31.7552 154.103 31.4268L148.682 22.4994C148.72 22.5242 148.755 22.5392 148.787 22.5446C148.819 22.5511 148.854 22.5543 148.892 22.5543C148.93 22.5543 148.962 22.536 148.988 22.4994C149.013 22.4628 149.026 22.4143 149.026 22.354V32.1375V32.1386Z" fill="#333333"></path>
    <path d="M163.838 32.1386H161.185V21.5528C161.185 21.1522 161.277 20.8054 161.461 20.5147C161.645 20.2228 161.891 20.0021 162.197 19.8492C162.501 19.6973 162.826 19.6219 163.17 19.6219C163.59 19.6219 163.966 19.6984 164.296 19.8492C164.627 20.001 164.894 20.2476 165.099 20.5868L170.577 29.5508C170.526 29.5142 170.481 29.4938 170.443 29.4873C170.404 29.4808 170.373 29.4776 170.347 29.4776C170.309 29.4776 170.27 29.4959 170.233 29.5325C170.195 29.5691 170.175 29.6241 170.175 29.6962V19.8761H172.81V30.4619C172.81 30.8754 172.717 31.2243 172.533 31.5097C172.348 31.7951 172.107 32.0104 171.808 32.1558C171.509 32.3012 171.194 32.3744 170.863 32.3744C170.455 32.3744 170.08 32.298 169.737 32.1472C169.392 31.9954 169.119 31.7552 168.915 31.4268L163.494 22.4994C163.533 22.5242 163.568 22.5392 163.599 22.5446C163.631 22.5511 163.666 22.5543 163.704 22.5543C163.742 22.5543 163.774 22.536 163.8 22.4994C163.825 22.4628 163.838 22.4143 163.838 22.354V32.1375V32.1386Z" fill="#333333"></path>
    <path d="M185.311 32.1386H178.401C177.523 32.1386 176.893 31.9318 176.511 31.5194C176.129 31.107 175.938 30.5534 175.938 29.861V22.172C175.938 21.4678 176.129 20.9089 176.511 20.4964C176.893 20.0829 177.523 19.8772 178.401 19.8772H185.196V22.2636H178.725V29.7522H185.31V32.1386H185.311ZM184.796 27.2011H178.076L177.714 24.8147H184.796V27.2011Z" fill="#333333"></path>
    <path d="M190.79 32.1386H188.042V19.8772H192.985C193.952 19.8772 194.824 20.0204 195.6 20.3058C196.377 20.5912 196.99 21.023 197.443 21.5991C197.894 22.1763 198.121 22.9011 198.121 23.7766C198.121 24.469 197.958 25.0796 197.633 25.6084C197.31 26.1361 196.861 26.5528 196.288 26.8565C195.714 27.1602 195.034 27.312 194.245 27.312L193.501 26.7843C194.251 26.7843 194.849 26.8877 195.295 27.0945C195.74 27.3012 196.118 27.62 196.431 28.0508C196.742 28.4826 197.07 29.0372 197.413 29.7178L198.654 32.1408H195.639L194.494 29.9547C194.303 29.5778 194.099 29.2622 193.882 29.007C193.666 28.7518 193.402 28.558 193.09 28.4244C192.778 28.2909 192.381 28.2241 191.897 28.2241H190.542V25.855H192.985C193.431 25.855 193.822 25.785 194.159 25.645C194.496 25.505 194.763 25.2993 194.961 25.0258C195.158 24.7523 195.256 24.4281 195.256 24.0512C195.256 23.6388 195.158 23.3071 194.961 23.0583C194.763 22.8096 194.496 22.6276 194.159 22.5113C193.821 22.396 193.443 22.3379 193.023 22.3379H190.827L190.789 32.1397L190.79 32.1386Z" fill="#333333"></path>
    <path d="M201.231 19.8772H204.018V32.1386H201.231V19.8772Z" fill="#333333"></path>
    <path d="M216.615 32.1386H209.705C208.828 32.1386 208.197 31.9318 207.816 31.5194C207.433 31.107 207.242 30.5534 207.242 29.861V22.172C207.242 21.4678 207.433 20.9089 207.816 20.4964C208.197 20.0829 208.828 19.8772 209.705 19.8772H216.5V22.2636H210.029V29.7522H216.614V32.1386H216.615ZM216.1 27.2011H209.38L209.018 24.8147H216.1V27.2011Z" fill="#333333"></path>
    <path d="M47.7161 47.8653L49.5155 42.2871C49.6306 41.9339 49.8258 41.6711 50.1022 41.5009C50.3786 41.3308 50.6753 41.2457 50.9924 41.2457C51.3094 41.2457 51.6241 41.3308 51.8972 41.5009C52.1702 41.6711 52.3642 41.9339 52.4782 42.2871L54.2777 47.8653H52.7715L51.2248 42.7017C51.1841 42.5735 51.1097 42.5089 51.0025 42.5089C50.8953 42.5089 50.8209 42.5735 50.7803 42.7017L49.2233 47.8653H47.7161ZM53.0344 46.5332L49.1015 46.5429V45.2787H53.0344V46.5332Z" fill="#00BA3B"></path>
    <path d="M58.7781 48C58.3878 48 58.0651 47.9009 57.8124 47.7006C57.5597 47.5014 57.369 47.202 57.2415 46.8036L55.4928 41.3696H57.0091L58.5762 46.3976C58.6032 46.4622 58.6315 46.5107 58.6619 46.543C58.6924 46.5753 58.7341 46.5914 58.7883 46.5914C58.8424 46.5914 58.8842 46.5753 58.9146 46.543C58.9451 46.5107 58.9699 46.4622 58.9902 46.3976L60.5471 41.3696H62.0634L60.3147 46.8036C60.1861 47.202 59.9977 47.5014 59.7484 47.7006C59.499 47.8999 59.1752 48 58.777 48H58.7781Z" fill="#00BA3B"></path>
    <path d="M69.4858 47.8654H65.8248C65.36 47.8654 65.0261 47.7556 64.8241 47.537C64.6222 47.3184 64.5206 47.0254 64.5206 46.6593V42.5865C64.5206 42.2139 64.6222 41.9178 64.8241 41.6992C65.0261 41.4806 65.36 41.3707 65.8248 41.3707H69.4249V42.635H65.9974V46.6022H69.4858V47.8665V47.8654ZM69.2128 45.2497H65.6533L65.4615 43.9854H69.2128V45.2497Z" fill="#00BA3B"></path>
    <path d="M73.7831 47.8654H72.3773V42.258C72.3773 42.0459 72.427 41.8617 72.524 41.7077C72.6221 41.5527 72.7508 41.4364 72.9132 41.3556C73.0745 41.2748 73.246 41.235 73.4288 41.235C73.6511 41.235 73.8496 41.2748 74.0256 41.3556C74.2005 41.4364 74.3426 41.5667 74.4498 41.7465L77.3515 46.4956C77.3245 46.4762 77.3008 46.4654 77.2805 46.4611C77.2602 46.4579 77.2432 46.4557 77.2297 46.4557C77.2094 46.4557 77.1891 46.4654 77.1688 46.4848C77.1485 46.5042 77.1383 46.5333 77.1383 46.5709V41.3696H78.5339V46.9769C78.5339 47.1955 78.4843 47.3808 78.3872 47.5315C78.2891 47.6834 78.1616 47.7975 78.0025 47.874C77.8446 47.9504 77.6776 47.9903 77.5016 47.9903C77.2861 47.9903 77.0875 47.9504 76.9048 47.8697C76.722 47.7889 76.5776 47.6618 76.4704 47.4885L73.5992 42.7588C73.6195 42.7717 73.6375 42.7803 73.6544 42.7835C73.6714 42.7868 73.6894 42.7889 73.7097 42.7889C73.73 42.7889 73.7469 42.7792 73.7605 42.7599C73.774 42.7405 73.7808 42.7157 73.7808 42.6834V47.8664H73.7831V47.8654Z" fill="#00BA3B"></path>
    <path d="M81.8103 41.3696H83.2871V47.8643H81.8103V41.3696Z" fill="#00BA3B"></path>
    <path d="M88.0695 47.8654H86.6141V41.3707H89.2327C89.7449 41.3707 90.2063 41.4461 90.6181 41.5979C91.0288 41.7487 91.3548 41.9781 91.594 42.2828C91.8332 42.5887 91.9528 42.9731 91.9528 43.4362C91.9528 43.8034 91.867 44.1265 91.6944 44.4065C91.5229 44.6865 91.2849 44.9072 90.9814 45.0677C90.6779 45.2281 90.318 45.3089 89.8995 45.3089L89.5046 45.0289C89.9028 45.0289 90.2187 45.0838 90.4557 45.1937C90.6915 45.3024 90.8923 45.4715 91.0581 45.6998C91.2228 45.9281 91.3966 46.2221 91.5782 46.5828L92.236 47.8665H90.6384L90.0315 46.7078C89.931 46.5085 89.8227 46.3405 89.7077 46.2059C89.5937 46.0703 89.4538 45.9679 89.288 45.8969C89.1221 45.8258 88.9123 45.7903 88.6562 45.7903H87.9386V44.5357H89.2327C89.4685 44.5357 89.6761 44.4991 89.8543 44.4248C90.0326 44.3505 90.1747 44.2417 90.2785 44.0963C90.3835 43.9509 90.4354 43.7797 90.4354 43.5805C90.4354 43.3619 90.3835 43.1864 90.2785 43.0539C90.1736 42.9225 90.0326 42.8256 89.8543 42.7642C89.6761 42.7028 89.4753 42.6727 89.253 42.6727H88.0898L88.0695 47.8654Z" fill="#00BA3B"></path>
  </g>
  <defs>
    <clipPath id="clip0_1038_8778">
      <rect width="216.615" height="48" fill="white"></rect>
    </clipPath>
  </defs>
</svg>
