<svg width="20" height="20" viewBox="0 0 20 20" fill="none" xmlns="http://www.w3.org/2000/svg">
<g clip-path="url(#clip0_3045_2217)">
<path d="M6.40023 15L10.0002 11.4L13.6002 15L15.0002 13.6L11.4002 9.99998L15.0002 6.39998L13.6002 4.99998L10.0002 8.59998L6.40023 4.99998L5.00023 6.39998L8.60023 9.99998L5.00023 13.6L6.40023 15ZM10.0002 20C8.62023 20 7.32023 19.74 6.10023 19.21C4.88023 18.68 3.82023 17.97 2.92023 17.07C2.02023 16.17 1.31023 15.11 0.780234 13.89C0.250234 12.67 -0.00976562 11.37 -0.00976562 9.98998C-0.00976562 8.60998 0.250234 7.30998 0.780234 6.08998C1.31023 4.86998 2.02023 3.80998 2.92023 2.90998C3.82023 2.00998 4.88023 1.29998 6.10023 0.76998C7.32023 0.23998 8.62023 -0.0200195 10.0002 -0.0200195C11.3802 -0.0200195 12.6802 0.23998 13.9002 0.76998C15.1202 1.29998 16.1802 2.00998 17.0802 2.90998C17.9802 3.80998 18.6902 4.86998 19.2202 6.08998C19.7502 7.30998 20.0102 8.60998 20.0102 9.98998C20.0102 11.37 19.7502 12.67 19.2202 13.89C18.6902 15.11 17.9802 16.17 17.0802 17.07C16.1802 17.97 15.1202 18.68 13.9002 19.21C12.6802 19.74 11.3802 20 10.0002 20ZM10.0002 18C12.2302 18 14.1302 17.22 15.6802 15.67C17.2302 14.12 18.0102 12.23 18.0102 9.98998C18.0102 7.74998 17.2302 5.85998 15.6802 4.30998C14.1302 2.75998 12.2402 1.97998 10.0002 1.97998C7.76023 1.97998 5.87023 2.75998 4.32023 4.30998C2.77023 5.85998 1.99023 7.74998 1.99023 9.98998C1.99023 12.23 2.77023 14.12 4.32023 15.67C5.87023 17.22 7.76023 18 10.0002 18Z" fill="#FF0000"/>
</g>
<defs>
<clipPath id="clip0_3045_2217">
<rect width="20" height="20" fill="white"/>
</clipPath>
</defs>
</svg>
