<svg width="37" height="25" viewBox="0 0 37 25" fill="none" xmlns="http://www.w3.org/2000/svg">
<path d="M23.0055 8.85891L22.89 8.74329L16.0198 1.87127L15.9042 1.75565C13.8854 -0.263926 10.6131 -0.263926 8.59435 1.75565L5.05422 5.29712L1.5141 8.8386C-0.5047 10.8582 -0.5047 14.1317 1.5141 16.1512L8.6045 23.2444C10.6233 25.2639 13.8956 25.2639 15.9144 23.2444L16.0299 23.1287L12.2696 19.3669L15.6933 15.9419L11.9361 12.1832L8.51235 15.6083L5.40019 12.4949L8.82395 9.06986L12.2477 5.64479L19.1171 12.5168L15.6933 15.9419L19.4639 19.7138L23.004 16.1723C25.0228 14.1528 25.0228 10.8793 23.004 8.85969L23.0055 8.85891Z" fill="white"/>
<path d="M31.9053 13.3597H28.0844V12.0861H31.9053V8.26508H33.179V12.0861H37V13.3597H33.179V17.1807H31.9053V13.3597Z" fill="white"/>
</svg>
