<svg width="83" height="80" viewBox="0 0 83 80" fill="none" xmlns="http://www.w3.org/2000/svg">
<path d="M51.607 31.3322L51.3477 31.0728L35.9363 15.6572L35.677 15.3978C31.1483 10.8674 23.8079 10.8674 19.2792 15.3978L11.3379 23.3422L3.3965 31.2866C-1.13216 35.817 -1.13216 43.1602 3.3965 47.6906L19.302 63.6022C23.8307 68.1326 31.1711 68.1326 35.6998 63.6022L35.959 63.3428L27.5237 54.9042L35.204 47.2209L26.7756 38.7893L19.0953 46.4726L12.1139 39.4886L19.7943 31.8053L27.4746 24.1221L42.8843 39.5377L35.204 47.2209L43.6622 55.6823L51.6035 47.7379C56.1322 43.2076 56.1322 35.8643 51.6035 31.3339L51.607 31.3322Z" fill="#FF5500"/>
<path d="M71.5714 41.4286H63V38.5714H71.5714V30H74.4286V38.5714H83V41.4286H74.4286V50H71.5714V41.4286Z" fill="white"/>
</svg>
