<svg width="24" height="24" viewBox="0 0 24 24" fill="none" xmlns="http://www.w3.org/2000/svg">
<path d="M19.6 21L13.3 14.7C12.8 15.1 12.22 15.42 11.57 15.65C10.92 15.88 10.23 16 9.48999 16C7.66999 16 6.13999 15.37 4.87999 14.11C3.61999 12.85 2.98999 11.31 2.98999 9.5C2.98999 7.69 3.62999 6.15 4.88999 4.89C6.14999 3.63 7.67999 3 9.49999 3C11.32 3 12.85 3.63 14.11 4.89C15.37 6.15 16 7.69 16 9.5C16 10.23 15.88 10.93 15.65 11.58C15.42 12.23 15.1 12.81 14.7 13.31L21 19.61L19.6 21.01V21ZM9.49999 14C10.75 14 11.81 13.56 12.69 12.69C13.57 11.82 14 10.75 14 9.5C14 8.25 13.56 7.19 12.69 6.31C11.82 5.43 10.75 5 9.49999 5C8.24999 5 7.18999 5.44 6.30999 6.31C5.42999 7.18 4.99999 8.25 4.99999 9.5C4.99999 10.75 5.43999 11.81 6.30999 12.69C7.17999 13.57 8.24999 14 9.49999 14Z" fill="#333333"/>
</svg>
