<svg width="240" height="54" viewBox="0 0 240 54" fill="none" xmlns="http://www.w3.org/2000/svg">
<g clip-path="url(#clip0_1786_845)">
<path d="M36.8212 14.0488L36.6362 13.8638L25.64 2.86875L25.455 2.68375C22.2237 -0.547498 16.9862 -0.547498 13.755 2.68375L8.08871 8.35L2.42246 14.0163C-0.808789 17.2475 -0.808789 22.485 2.42246 25.7163L13.7712 37.065C17.0025 40.2963 22.24 40.2963 25.4712 37.065L25.6562 36.88L19.6375 30.8613L25.1175 25.3813L19.1037 19.3675L13.6237 24.8475L8.64246 19.8663L14.1225 14.3863L19.6025 8.90625L30.5975 19.9013L25.1175 25.3813L31.1525 31.4163L36.8187 25.75C40.05 22.5188 40.05 17.2813 36.8187 14.05L36.8212 14.0488Z" fill="#FF5500"/>
<path d="M57.1312 16.415H54.0437V4.84753C54.0437 4.03003 54.2549 3.38128 54.6787 2.90128C55.1012 2.42253 55.7999 2.18253 56.7724 2.18253H64.2587V5.03753H57.1312V16.415ZM63.7712 11.5938H56.4324L56.0312 8.76003H63.7712V11.5938Z" fill="#333333"/>
<path d="M69.7987 16.415H66.7537V2.18253H72.2312C73.3024 2.18253 74.2687 2.34878 75.1287 2.68003C75.9887 3.01128 76.6687 3.51253 77.1699 4.18128C77.6699 4.85128 77.9212 5.69378 77.9212 6.70878C77.9212 7.51253 77.7412 8.22127 77.3824 8.83378C77.0224 9.44753 76.5262 9.93003 75.8912 10.2825C75.2562 10.635 74.5024 10.8113 73.6287 10.8113L72.8037 10.1975C73.6349 10.1975 74.2987 10.3175 74.7912 10.5575C75.2849 10.7975 75.7037 11.1675 76.0499 11.6675C76.3949 12.1675 76.7587 12.8125 77.1387 13.6025L78.5137 16.415H75.1724L73.9037 13.8775C73.6924 13.4413 73.4662 13.0738 73.2274 12.7775C72.9874 12.4813 72.6949 12.2563 72.3499 12.1013C72.0037 11.9463 71.5637 11.8688 71.0274 11.8688H69.5262V9.12003H72.2337C72.7274 9.12003 73.1612 9.03878 73.5349 8.87628C73.9087 8.71378 74.2037 8.47503 74.4237 8.15753C74.6424 7.84003 74.7512 7.46378 74.7512 7.02628C74.7512 6.54753 74.6424 6.16253 74.4237 5.87378C74.2049 5.58503 73.9087 5.37378 73.5349 5.23878C73.1612 5.10503 72.7412 5.03753 72.2762 5.03753H69.8437L69.8012 16.415H69.7987Z" fill="#333333"/>
<path d="M87.0137 1.9075C89.0862 1.9075 90.62 2.4925 91.6137 3.6625C92.6075 4.8325 93.105 6.44 93.105 8.485V16.4163H90.0175V8.655C90.0175 7.415 89.7675 6.46625 89.2662 5.81C88.765 5.155 88.015 4.82625 87.0137 4.82625C86.0125 4.82625 85.2825 5.15375 84.7825 5.81C84.2812 6.465 84.0312 7.41375 84.0312 8.655V16.4163H80.9437V8.485C80.9437 6.44125 81.4375 4.83375 82.4237 3.6625C83.41 2.4925 84.94 1.9075 87.0125 1.9075H87.0137ZM90.905 12.5663H82.5087V9.71125H90.905V12.5663Z" fill="#333333"/>
<path d="M99.28 16.415H96.34V4.12876C96.34 3.66376 96.4425 3.26126 96.6462 2.92376C96.85 2.58501 97.1225 2.32876 97.46 2.15126C97.7987 1.97501 98.1575 1.88751 98.5387 1.88751C99.0037 1.88751 99.42 1.97626 99.7862 2.15126C100.152 2.32751 100.449 2.61376 100.675 3.00751L106.745 13.4125C106.689 13.37 106.639 13.3463 106.596 13.3388C106.554 13.3313 106.519 13.3275 106.49 13.3275C106.447 13.3275 106.405 13.3488 106.364 13.3913C106.321 13.4338 106.3 13.4975 106.3 13.5813V2.18251H109.219V14.47C109.219 14.95 109.116 15.355 108.912 15.6863C108.707 16.0175 108.44 16.2675 108.109 16.4375C107.777 16.6063 107.429 16.6913 107.061 16.6913C106.61 16.6913 106.194 16.6025 105.814 16.4275C105.434 16.2513 105.13 15.9725 104.905 15.5925L98.8987 5.23001C98.9412 5.25876 98.98 5.27626 99.015 5.28251C99.05 5.29001 99.0887 5.29251 99.1312 5.29251C99.1737 5.29251 99.2087 5.27126 99.2375 5.22876C99.2662 5.18626 99.28 5.13001 99.28 5.06001V16.4163V16.415Z" fill="#333333"/>
<path d="M119.116 16.7112C118.072 16.7112 117.107 16.5212 116.219 16.14C115.33 15.76 114.547 15.23 113.871 14.5537C113.195 13.8775 112.669 13.0913 112.296 12.195C111.922 11.3 111.736 10.3375 111.736 9.30875C111.736 8.28 111.922 7.3 112.296 6.41125C112.67 5.5225 113.195 4.74 113.871 4.06375C114.547 3.3875 115.33 2.85875 116.219 2.4775C117.107 2.09625 118.072 1.90625 119.116 1.90625C119.934 1.90625 120.73 2.0475 121.506 2.32875C122.281 2.61125 122.976 3.0125 123.59 3.53375C124.204 4.055 124.679 4.69 125.017 5.4375L122.501 6.855C122.149 6.235 121.69 5.745 121.126 5.385C120.562 5.025 119.85 4.84625 118.99 4.84625C118.397 4.84625 117.851 4.955 117.351 5.17375C116.85 5.3925 116.417 5.7025 116.051 6.10375C115.685 6.505 115.402 6.9775 115.205 7.52125C115.007 8.06375 114.909 8.66 114.909 9.30875C114.909 9.9575 115.007 10.535 115.205 11.085C115.402 11.635 115.681 12.1112 116.04 12.5125C116.4 12.9137 116.834 13.225 117.34 13.4425C117.847 13.6612 118.397 13.77 118.99 13.77C119.85 13.77 120.565 13.5875 121.136 13.22C121.707 12.8537 122.162 12.3675 122.5 11.7612L125.016 13.1787C124.677 13.9262 124.202 14.56 123.589 15.0825C122.975 15.6037 122.281 16.0062 121.505 16.2875C120.729 16.5687 119.932 16.71 119.115 16.71L119.116 16.7112Z" fill="#333333"/>
<path d="M137.389 16.415H129.732C128.76 16.415 128.061 16.175 127.639 15.6963C127.216 15.2175 127.004 14.575 127.004 13.7713V4.84753C127.004 4.03003 127.215 3.38128 127.639 2.90128C128.061 2.42253 128.76 2.18253 129.732 2.18253H137.261V4.95253H130.091V13.645H137.387V16.415H137.389ZM136.817 10.6838H129.374L128.972 7.91378H136.819V10.6838H136.817Z" fill="#333333"/>
<path d="M60.4087 37.86C59.3649 37.86 58.3999 37.67 57.5112 37.2888C56.6224 36.9088 55.8399 36.3788 55.1637 35.7025C54.4874 35.0263 53.9612 34.24 53.5887 33.3438C53.2149 32.4488 53.0287 31.4863 53.0287 30.4575C53.0287 29.4288 53.2149 28.4488 53.5887 27.56C53.9624 26.6713 54.4874 25.8888 55.1637 25.2125C55.8399 24.5363 56.6224 24.0075 57.5112 23.6263C58.3999 23.245 59.3649 23.055 60.4087 23.055C61.2262 23.055 62.0224 23.1963 62.7987 23.4775C63.5737 23.76 64.2687 24.1613 64.8824 24.6825C65.4962 25.2038 65.9712 25.8388 66.3099 26.5863L63.7937 28.0038C63.4412 27.3838 62.9824 26.8938 62.4187 26.5338C61.8549 26.1738 61.1424 25.995 60.2824 25.995C59.6899 25.995 59.1437 26.1038 58.6437 26.3225C58.1424 26.5413 57.7099 26.8513 57.3437 27.2525C56.9774 27.6538 56.6949 28.1263 56.4974 28.67C56.2999 29.2125 56.2012 29.8088 56.2012 30.4575C56.2012 31.1063 56.2999 31.6838 56.4974 32.2338C56.6949 32.7838 56.9737 33.26 57.3324 33.6613C57.6924 34.0625 58.1262 34.3738 58.6324 34.5913C59.1399 34.81 59.6899 34.9188 60.2824 34.9188C61.1424 34.9188 61.8574 34.7363 62.4287 34.3688C62.9999 34.0025 63.4549 33.5163 63.7924 32.91L66.3087 34.3275C65.9699 35.075 65.4949 35.7088 64.8812 36.2313C64.2674 36.7525 63.5737 37.155 62.7974 37.4363C62.0212 37.7175 61.2249 37.8588 60.4074 37.8588L60.4087 37.86Z" fill="#333333"/>
<path d="M71.5962 37.5638H68.5087V23.3313H71.5962V29.0625H78.0887V23.3313H81.1762V37.5638H78.0887V31.8963H71.5962V37.5638Z" fill="#333333"/>
<path d="M90.6299 23.0563C92.7024 23.0563 94.2362 23.6413 95.2299 24.8113C96.2237 25.9813 96.7212 27.5888 96.7212 29.6338V37.565H93.6337V29.8038C93.6337 28.5638 93.3837 27.615 92.8824 26.9588C92.3812 26.3038 91.6312 25.975 90.6299 25.975C89.6287 25.975 88.8987 26.3025 88.3987 26.9588C87.8974 27.6138 87.6474 28.5625 87.6474 29.8038V37.565H84.5599V29.6338C84.5599 27.59 85.0537 25.9825 86.0399 24.8113C87.0262 23.6413 88.5562 23.0563 90.6287 23.0563H90.6299ZM94.5212 33.715H86.1249V30.86H94.5212V33.715Z" fill="#333333"/>
<path d="M105.941 37.7963C103.812 37.7963 102.247 37.2188 101.246 36.0625C100.245 34.9063 99.7449 33.3 99.7449 31.24V23.33H102.832V31.1763C102.832 32.4175 103.09 33.34 103.605 33.9463C104.12 34.5525 104.899 34.8563 105.942 34.8563C106.986 34.8563 107.765 34.5525 108.28 33.9463C108.795 33.34 109.052 32.4163 109.052 31.1763V23.33H112.14V31.24C112.14 33.2988 111.636 34.9063 110.627 36.0625C109.619 37.2188 108.057 37.7963 105.942 37.7963H105.941Z" fill="#333333"/>
<path d="M128.57 30.4575C128.57 31.5438 128.38 32.5238 127.999 33.3975C127.617 34.2713 127.079 35.0188 126.381 35.6388C125.684 36.2588 124.865 36.735 123.929 37.0663C122.991 37.3975 121.959 37.5638 120.83 37.5638H115.585V23.3313H120.894C122.43 23.3313 123.774 23.6275 124.922 24.22C126.071 24.8125 126.966 25.64 127.609 26.705C128.25 27.77 128.571 29.02 128.571 30.4588L128.57 30.4575ZM125.397 30.4575C125.397 29.5975 125.21 28.85 124.837 28.2163C124.464 27.5813 123.939 27.085 123.262 26.725C122.586 26.365 121.796 26.1863 120.894 26.1863H118.674V34.7938H120.831C121.507 34.7938 122.121 34.6913 122.671 34.4875C123.221 34.2838 123.704 33.9938 124.12 33.62C124.536 33.2463 124.852 32.7925 125.071 32.2563C125.29 31.72 125.399 31.1213 125.399 30.4588L125.397 30.4575Z" fill="#333333"/>
<path d="M134.47 37.5638H131.425V23.3313H136.902C137.974 23.3313 138.94 23.4975 139.8 23.8288C140.66 24.16 141.34 24.6613 141.841 25.33C142.341 26 142.592 26.8425 142.592 27.8575C142.592 28.6613 142.412 29.37 142.054 29.9825C141.694 30.5963 141.197 31.0788 140.562 31.4313C139.927 31.7838 139.174 31.96 138.3 31.96L137.475 31.3463C138.306 31.3463 138.97 31.4663 139.462 31.7063C139.956 31.9463 140.375 32.3163 140.721 32.8163C141.066 33.3163 141.43 33.9613 141.81 34.7513L143.185 37.5638H139.844L138.575 35.0263C138.364 34.59 138.137 34.2225 137.899 33.9263C137.659 33.63 137.366 33.405 137.021 33.25C136.675 33.095 136.235 33.0175 135.699 33.0175H134.197V30.2688H136.905C137.399 30.2688 137.832 30.1875 138.206 30.025C138.58 29.8625 138.875 29.6238 139.095 29.3063C139.314 28.9888 139.422 28.6125 139.422 28.175C139.422 27.6963 139.314 27.3113 139.095 27.0225C138.876 26.7338 138.58 26.5225 138.206 26.3875C137.832 26.2538 137.412 26.1863 136.947 26.1863H134.515L134.472 37.5638H134.47Z" fill="#333333"/>
<path d="M152.277 37.8388C151.234 37.8388 150.261 37.655 149.359 37.2888C148.456 36.9225 147.67 36.4038 147 35.735C146.33 35.065 145.809 34.28 145.435 33.3763C145.061 32.4738 144.875 31.5013 144.875 30.4575C144.875 29.4138 145.061 28.4413 145.435 27.5388C145.809 26.6363 146.33 25.8538 147 25.1913C147.67 24.5288 148.455 24.01 149.359 23.6363C150.261 23.2625 151.234 23.0763 152.277 23.0763C153.321 23.0763 154.311 23.2638 155.206 23.6363C156.101 24.01 156.888 24.5288 157.565 25.1913C158.241 25.8538 158.766 26.6363 159.14 27.5388C159.514 28.4413 159.7 29.4138 159.7 30.4575C159.7 31.5013 159.512 32.4738 159.14 33.3763C158.766 34.2788 158.241 35.065 157.565 35.735C156.889 36.405 156.103 36.9225 155.206 37.2888C154.311 37.655 153.335 37.8388 152.277 37.8388ZM152.277 34.92C152.87 34.92 153.422 34.8075 153.938 34.5813C154.453 34.3563 154.902 34.0388 155.291 33.63C155.679 33.2213 155.979 32.745 156.19 32.2025C156.401 31.66 156.508 31.0788 156.508 30.4575C156.508 29.8363 156.401 29.2388 156.19 28.7025C155.979 28.1663 155.679 27.695 155.291 27.285C154.904 26.8763 154.453 26.5588 153.938 26.3338C153.422 26.1088 152.87 25.995 152.277 25.995C151.685 25.995 151.131 26.1075 150.617 26.3338C150.102 26.5588 149.651 26.8763 149.264 27.285C148.876 27.6938 148.576 28.1663 148.365 28.7025C148.154 29.2388 148.048 29.8238 148.048 30.4575C148.048 31.0913 148.154 31.66 148.365 32.2025C148.576 32.745 148.876 33.2213 149.264 33.63C149.651 34.0388 150.102 34.3563 150.617 34.5813C151.132 34.8075 151.685 34.92 152.277 34.92Z" fill="#333333"/>
<path d="M165.114 37.5638H162.174V25.2763C162.174 24.8113 162.276 24.4088 162.48 24.0713C162.684 23.7325 162.956 23.4763 163.294 23.2988C163.632 23.1225 163.991 23.035 164.372 23.035C164.837 23.035 165.254 23.1238 165.62 23.2988C165.986 23.475 166.282 23.7613 166.509 24.155L172.579 34.56C172.522 34.5175 172.472 34.4938 172.43 34.4863C172.387 34.4788 172.352 34.475 172.324 34.475C172.281 34.475 172.239 34.4963 172.197 34.5388C172.155 34.5813 172.134 34.645 172.134 34.7288V23.33H175.052V35.6175C175.052 36.0975 174.95 36.5025 174.746 36.8338C174.541 37.165 174.274 37.415 173.942 37.585C173.611 37.7538 173.262 37.8388 172.895 37.8388C172.444 37.8388 172.027 37.75 171.647 37.575C171.267 37.3988 170.964 37.12 170.739 36.74L164.732 26.3775C164.775 26.4063 164.814 26.4238 164.849 26.43C164.884 26.4375 164.922 26.44 164.965 26.44C165.007 26.44 165.042 26.4188 165.071 26.3763C165.1 26.3338 165.114 26.2775 165.114 26.2075V37.5638Z" fill="#333333"/>
<path d="M181.525 37.5638H178.585V25.2763C178.585 24.8113 178.687 24.4088 178.891 24.0713C179.095 23.7325 179.367 23.4763 179.705 23.2988C180.044 23.1225 180.402 23.035 180.784 23.035C181.249 23.035 181.665 23.1238 182.031 23.2988C182.397 23.475 182.694 23.7613 182.92 24.155L188.99 34.56C188.934 34.5175 188.884 34.4938 188.841 34.4863C188.799 34.4788 188.764 34.475 188.735 34.475C188.692 34.475 188.65 34.4963 188.609 34.5388C188.566 34.5813 188.545 34.645 188.545 34.7288V23.33H191.464V35.6175C191.464 36.0975 191.361 36.5025 191.157 36.8338C190.952 37.165 190.685 37.415 190.354 37.585C190.022 37.7538 189.674 37.8388 189.306 37.8388C188.855 37.8388 188.439 37.75 188.059 37.575C187.679 37.3988 187.375 37.12 187.15 36.74L181.144 26.3775C181.186 26.4063 181.225 26.4238 181.26 26.43C181.295 26.4375 181.334 26.44 181.376 26.44C181.419 26.44 181.454 26.4188 181.482 26.3763C181.511 26.3338 181.525 26.2775 181.525 26.2075V37.5638Z" fill="#333333"/>
<path d="M205.316 37.5638H197.66C196.687 37.5638 195.989 37.3238 195.566 36.845C195.144 36.3663 194.931 35.7238 194.931 34.92V25.995C194.931 25.1775 195.142 24.5288 195.566 24.0488C195.989 23.57 196.687 23.33 197.66 23.33H205.189V26.1H198.019V34.7925H205.315V37.5625L205.316 37.5638ZM204.746 31.8325H197.302L196.901 29.0625H204.747V31.8325H204.746Z" fill="#333333"/>
<path d="M211.386 37.5638H208.341V23.3313H213.819C214.89 23.3313 215.856 23.4975 216.716 23.8288C217.576 24.16 218.256 24.6613 218.757 25.33C219.257 26 219.509 26.8425 219.509 27.8575C219.509 28.6613 219.329 29.37 218.97 29.9825C218.61 30.5963 218.114 31.0788 217.479 31.4313C216.844 31.7838 216.09 31.96 215.216 31.96L214.391 31.3463C215.222 31.3463 215.886 31.4663 216.379 31.7063C216.872 31.9463 217.291 32.3163 217.637 32.8163C217.982 33.3163 218.346 33.9613 218.726 34.7513L220.101 37.5638H216.76L215.491 35.0263C215.28 34.59 215.054 34.2225 214.815 33.9263C214.575 33.63 214.282 33.405 213.937 33.25C213.591 33.095 213.151 33.0175 212.615 33.0175H211.114V30.2688H213.821C214.315 30.2688 214.749 30.1875 215.122 30.025C215.496 29.8625 215.791 29.6238 216.011 29.3063C216.23 28.9888 216.339 28.6125 216.339 28.175C216.339 27.6963 216.23 27.3113 216.011 27.0225C215.792 26.7338 215.496 26.5225 215.122 26.3875C214.749 26.2538 214.329 26.1863 213.864 26.1863H211.431L211.389 37.5638H211.386Z" fill="#333333"/>
<path d="M222.955 23.3313H226.042V37.5638H222.955V23.3313Z" fill="#333333"/>
<path d="M240 37.5638H232.344C231.371 37.5638 230.672 37.3238 230.25 36.845C229.827 36.3663 229.615 35.7238 229.615 34.92V25.995C229.615 25.1775 229.826 24.5288 230.25 24.0488C230.672 23.57 231.371 23.33 232.344 23.33H239.872V26.1H232.702V34.7925H239.999V37.5625L240 37.5638ZM239.429 31.8325H231.985L231.584 29.0625H239.43V31.8325H239.429Z" fill="#333333"/>
<path d="M54.7887 52.39H54.0525V48.22C54.0525 48.0137 54.1037 47.8512 54.2075 47.7325C54.3112 47.615 54.485 47.555 54.73 47.555H57.385V48.2337H54.7875V52.39H54.7887ZM57.22 50.55H54.6012L54.5075 49.8712H57.22V50.55Z" fill="#333333"/>
<path d="M61.2163 52.4763C60.865 52.4763 60.5388 52.4125 60.2388 52.285C59.9375 52.1575 59.675 51.9813 59.4488 51.755C59.2225 51.5288 59.0463 51.2638 58.9188 50.9575C58.7913 50.6525 58.7275 50.3213 58.7275 49.965C58.7275 49.6088 58.7913 49.2875 58.9188 48.9875C59.0463 48.6863 59.2225 48.4238 59.4488 48.1975C59.675 47.9713 59.9388 47.795 60.2388 47.6675C60.54 47.54 60.865 47.4763 61.2163 47.4763C61.5675 47.4763 61.8925 47.54 62.19 47.6675C62.4888 47.795 62.75 47.9725 62.9763 48.1975C63.2025 48.4238 63.3775 48.6875 63.5025 48.9875C63.6275 49.2888 63.69 49.6138 63.69 49.965C63.69 50.3163 63.6275 50.6513 63.5025 50.9575C63.3775 51.2625 63.2013 51.5288 62.9763 51.755C62.75 51.9813 62.4875 52.1575 62.19 52.285C61.8913 52.4125 61.5675 52.4763 61.2163 52.4763ZM61.2163 51.7775C61.4513 51.7775 61.675 51.73 61.8838 51.6363C62.0925 51.5425 62.2763 51.4138 62.435 51.25C62.5938 51.0863 62.7163 50.895 62.8025 50.6763C62.8888 50.4575 62.9325 50.22 62.9325 49.9663C62.9325 49.7125 62.8888 49.4825 62.8025 49.2663C62.7163 49.05 62.5938 48.86 62.435 48.6963C62.2763 48.5325 62.0938 48.405 61.8863 48.3138C61.6788 48.2225 61.4563 48.1763 61.215 48.1763C60.9738 48.1763 60.7488 48.2225 60.5363 48.3138C60.325 48.405 60.1413 48.5325 59.985 48.6963C59.8288 48.86 59.7063 49.05 59.6175 49.2663C59.5288 49.4825 59.4838 49.7163 59.4838 49.9663C59.4838 50.2163 59.5288 50.4575 59.6175 50.6763C59.7063 50.895 59.8288 51.0863 59.985 51.25C60.1413 51.4138 60.325 51.5425 60.5363 51.6363C60.7475 51.73 60.9738 51.7775 61.215 51.7775H61.2163Z" fill="#333333"/>
<path d="M66.2525 52.39H65.5312V47.5562H67.2125C67.5538 47.5562 67.8625 47.6087 68.14 47.715C68.4162 47.8212 68.635 47.9825 68.7962 48.1987C68.9575 48.415 69.0375 48.69 69.0375 49.0212C69.0375 49.2912 68.9738 49.5287 68.8463 49.735C68.7188 49.9412 68.5425 50.1025 68.3163 50.2187C68.09 50.335 67.8237 50.3925 67.515 50.3925L67.3125 50.2262C67.5912 50.2262 67.8175 50.275 67.9912 50.3737C68.165 50.4725 68.3138 50.6162 68.4388 50.8062C68.5638 50.9962 68.6913 51.2287 68.8213 51.5025L69.2613 52.39H68.4675L68.0638 51.575C67.9675 51.3875 67.87 51.2225 67.7712 51.0812C67.6725 50.94 67.5525 50.8287 67.41 50.75C67.2688 50.67 67.0837 50.6312 66.8587 50.6312H66.1663V49.975H67.205C67.4113 49.975 67.5963 49.9412 67.76 49.8737C67.9238 49.8062 68.0513 49.7062 68.1425 49.5737C68.2338 49.4412 68.28 49.2787 68.28 49.0862C68.28 48.8837 68.2337 48.7212 68.14 48.5987C68.0462 48.4762 67.9187 48.385 67.7575 48.325C67.5962 48.265 67.4175 48.235 67.22 48.235H66.2675L66.2525 52.3912V52.39Z" fill="#333333"/>
<path d="M71.5837 52.3975H70.8337L71.5125 48.1112C71.5462 47.9 71.6325 47.74 71.7725 47.6312C71.9112 47.5237 72.0775 47.4688 72.27 47.4688C72.4437 47.4688 72.5987 47.5125 72.735 47.5987C72.8712 47.685 72.9675 47.825 73.02 48.0175L73.9512 51.3862C73.9662 51.4437 73.9875 51.4725 74.0162 51.4725C74.04 51.4725 74.0562 51.4662 74.0637 51.455C74.0712 51.4425 74.08 51.42 74.0887 51.3862L75.0125 48.0312C75.065 47.8438 75.1612 47.7037 75.3012 47.6125C75.44 47.5212 75.5975 47.475 75.77 47.475C75.9625 47.475 76.1275 47.53 76.2637 47.6412C76.4012 47.7525 76.4837 47.915 76.5125 48.1325L77.1262 52.3887H76.3825L75.8487 48.3625C75.8437 48.31 75.8325 48.2687 75.8162 48.24C75.7987 48.2112 75.7687 48.1962 75.7262 48.1962C75.6975 48.1962 75.6712 48.2087 75.6475 48.2325C75.6237 48.2562 75.6062 48.2925 75.5975 48.3412L74.6025 51.8037C74.5587 51.9475 74.4862 52.0562 74.3825 52.1287C74.2787 52.2013 74.1575 52.2375 74.0175 52.2375C73.8875 52.2375 73.7675 52.2013 73.6562 52.1287C73.545 52.0562 73.4712 51.9537 73.4325 51.8187L72.4437 48.3337C72.4287 48.2812 72.4125 48.2437 72.3937 48.2225C72.3737 48.2012 72.3475 48.19 72.3137 48.19C72.28 48.19 72.2525 48.2037 72.2312 48.23C72.21 48.2562 72.1937 48.2987 72.1837 48.3562L71.585 52.3962L71.5837 52.3975Z" fill="#333333"/>
<path d="M82.3775 52.39H79.6725C79.4225 52.39 79.2462 52.33 79.1462 52.21C79.045 52.09 78.995 51.9287 78.995 51.7262V48.22C78.995 48.0137 79.045 47.8512 79.1462 47.7325C79.2475 47.6137 79.4225 47.555 79.6725 47.555H82.3275V48.2262H79.73V51.7187H82.3775V52.39ZM82.1825 50.305H79.535L79.4487 49.6337H82.1825V50.305Z" fill="#333333"/>
<path d="M85.04 52.39H84.3187V47.5562H86C86.3412 47.5562 86.65 47.6087 86.9275 47.715C87.2037 47.8212 87.4225 47.9825 87.5837 48.1987C87.745 48.415 87.825 48.69 87.825 49.0212C87.825 49.2912 87.7612 49.5287 87.6337 49.735C87.5062 49.9412 87.33 50.1025 87.1037 50.2187C86.8775 50.335 86.6112 50.3925 86.3025 50.3925L86.1 50.2262C86.3787 50.2262 86.605 50.275 86.7787 50.3737C86.9525 50.4725 87.1012 50.6162 87.2262 50.8062C87.3512 50.9962 87.4787 51.2287 87.6087 51.5025L88.0487 52.39H87.255L86.8512 51.575C86.755 51.3875 86.6575 51.2225 86.5587 51.0812C86.46 50.94 86.34 50.8287 86.1975 50.75C86.0562 50.67 85.8712 50.6312 85.6462 50.6312H84.9537V49.975H85.9925C86.1987 49.975 86.3837 49.9412 86.5475 49.8737C86.7112 49.8062 86.8387 49.7062 86.93 49.5737C87.0212 49.4412 87.0675 49.2787 87.0675 49.0862C87.0675 48.8837 87.0212 48.7212 86.9275 48.5987C86.8337 48.4762 86.7062 48.385 86.545 48.325C86.3837 48.265 86.205 48.235 86.0075 48.235H85.055L85.04 52.3912V52.39Z" fill="#333333"/>
<path d="M90.2637 53.74H89.7875L90.055 52.0162L90.7187 52.1237L90.2637 53.74ZM90.27 52.455C90.1887 52.455 90.1112 52.435 90.0387 52.3937C89.9662 52.3525 89.9087 52.2962 89.865 52.2237C89.8212 52.1512 89.8 52.0725 89.8 51.985C89.8 51.8937 89.8212 51.8137 89.865 51.7475C89.9087 51.68 89.9662 51.6262 90.0387 51.585C90.1112 51.5437 90.1875 51.5237 90.27 51.5237C90.3562 51.5237 90.435 51.545 90.505 51.585C90.575 51.6262 90.6312 51.68 90.675 51.7475C90.7187 51.815 90.74 51.895 90.74 51.985C90.74 52.075 90.7187 52.1512 90.675 52.2237C90.6312 52.2962 90.575 52.3525 90.505 52.3937C90.435 52.435 90.3575 52.455 90.27 52.455Z" fill="#333333"/>
<path d="M97.5424 47.47C98.2012 47.47 98.6924 47.6663 99.0137 48.0588C99.3362 48.4513 99.4974 48.9813 99.4974 49.65V52.3913H98.7537V49.6925C98.7537 49.2113 98.6524 48.8375 98.4512 48.5713C98.2487 48.305 97.9462 48.1713 97.5424 48.1713C97.1387 48.1713 96.8287 48.305 96.6262 48.5713C96.4237 48.8388 96.3224 49.2125 96.3224 49.6925V52.3913H95.5862V49.65C95.5862 48.9813 95.7462 48.4513 96.0662 48.0588C96.3862 47.6663 96.8774 47.47 97.5412 47.47H97.5424ZM98.9787 50.875H95.9562V50.19H98.9787V50.875Z" fill="#333333"/>
<path d="M103.07 52.47C102.661 52.47 102.298 52.3812 101.98 52.2037C101.663 52.0262 101.429 51.7712 101.28 51.4387L101.9 51.1362C101.991 51.3425 102.138 51.5012 102.34 51.6125C102.543 51.7237 102.785 51.7787 103.069 51.7787C103.256 51.7787 103.425 51.7512 103.574 51.6962C103.723 51.6412 103.841 51.5562 103.931 51.4437C104.02 51.3312 104.065 51.195 104.065 51.0362C104.065 50.8587 104.018 50.7225 103.921 50.6287C103.825 50.535 103.696 50.465 103.535 50.42C103.374 50.3737 103.198 50.335 103.005 50.3012C102.823 50.2625 102.636 50.2162 102.446 50.1612C102.256 50.1062 102.08 50.0275 101.916 49.9262C101.753 49.825 101.621 49.6912 101.523 49.5262C101.424 49.36 101.375 49.15 101.375 48.895C101.375 48.6262 101.449 48.385 101.595 48.1737C101.741 47.9625 101.939 47.795 102.186 47.6725C102.434 47.55 102.711 47.4887 103.02 47.4887C103.39 47.4887 103.728 47.5737 104.03 47.745C104.334 47.9162 104.556 48.1675 104.701 48.4987L104.088 48.8162C103.996 48.6137 103.856 48.4562 103.669 48.3437C103.481 48.2312 103.255 48.1737 102.991 48.1737C102.828 48.1737 102.68 48.2037 102.548 48.2637C102.415 48.3237 102.309 48.405 102.226 48.5087C102.144 48.6125 102.104 48.7337 102.104 48.8725C102.104 49.0462 102.154 49.1787 102.255 49.2725C102.356 49.3662 102.49 49.4387 102.655 49.4887C102.821 49.5387 103.003 49.5837 103.2 49.6225C103.383 49.6612 103.568 49.7075 103.755 49.7625C103.943 49.8175 104.115 49.8962 104.271 49.9975C104.428 50.0987 104.555 50.2325 104.654 50.3975C104.753 50.5637 104.801 50.7737 104.801 51.0287C104.801 51.3125 104.724 51.5612 104.57 51.775C104.416 51.9887 104.208 52.1587 103.946 52.2837C103.684 52.4087 103.391 52.4712 103.07 52.4712V52.47Z" fill="#333333"/>
<path d="M108.177 52.47C107.769 52.47 107.405 52.3812 107.087 52.2037C106.77 52.0262 106.536 51.7712 106.387 51.4387L107.007 51.1362C107.099 51.3425 107.245 51.5012 107.447 51.6125C107.65 51.7237 107.892 51.7787 108.176 51.7787C108.364 51.7787 108.532 51.7512 108.681 51.6962C108.83 51.6412 108.949 51.5562 109.039 51.4437C109.127 51.3312 109.172 51.195 109.172 51.0362C109.172 50.8587 109.125 50.7225 109.029 50.6287C108.932 50.535 108.804 50.465 108.642 50.42C108.481 50.3737 108.305 50.335 108.112 50.3012C107.93 50.2625 107.744 50.2162 107.554 50.1612C107.364 50.1062 107.187 50.0275 107.024 49.9262C106.86 49.825 106.729 49.6912 106.63 49.5262C106.531 49.36 106.482 49.15 106.482 48.895C106.482 48.6262 106.556 48.385 106.702 48.1737C106.849 47.9625 107.046 47.795 107.294 47.6725C107.541 47.55 107.819 47.4887 108.127 47.4887C108.497 47.4887 108.835 47.5737 109.137 47.745C109.441 47.9162 109.664 48.1675 109.809 48.4987L109.195 48.8162C109.104 48.6137 108.964 48.4562 108.776 48.3437C108.589 48.2312 108.362 48.1737 108.099 48.1737C107.935 48.1737 107.787 48.2037 107.655 48.2637C107.522 48.3237 107.416 48.405 107.334 48.5087C107.251 48.6125 107.211 48.7337 107.211 48.8725C107.211 49.0462 107.261 49.1787 107.362 49.2725C107.464 49.3662 107.597 49.4387 107.762 49.4887C107.929 49.5387 108.11 49.5837 108.307 49.6225C108.49 49.6612 108.675 49.7075 108.862 49.7625C109.05 49.8175 109.222 49.8962 109.379 49.9975C109.535 50.0987 109.662 50.2325 109.761 50.3975C109.86 50.5637 109.909 50.7737 109.909 51.0287C109.909 51.3125 109.831 51.5612 109.677 51.775C109.524 51.9887 109.315 52.1587 109.054 52.2837C108.791 52.4087 108.499 52.4712 108.177 52.4712V52.47Z" fill="#333333"/>
<path d="M115.154 52.39H112.449C112.199 52.39 112.022 52.33 111.922 52.21C111.821 52.09 111.771 51.9287 111.771 51.7262V48.22C111.771 48.0137 111.821 47.8512 111.922 47.7325C112.024 47.6137 112.199 47.555 112.449 47.555H115.104V48.2262H112.506V51.7187H115.154V52.39ZM114.959 50.305H112.311L112.225 49.6337H114.959V50.305Z" fill="#333333"/>
<path d="M117.514 52.3975H116.764L117.443 48.1112C117.476 47.9 117.563 47.74 117.703 47.6312C117.841 47.5237 118.008 47.4688 118.2 47.4688C118.374 47.4688 118.529 47.5125 118.665 47.5987C118.801 47.685 118.898 47.825 118.95 48.0175L119.881 51.3862C119.896 51.4437 119.918 51.4725 119.946 51.4725C119.97 51.4725 119.986 51.4662 119.994 51.455C120.001 51.4425 120.01 51.42 120.019 51.3862L120.943 48.0312C120.995 47.8438 121.091 47.7037 121.231 47.6125C121.37 47.5212 121.528 47.475 121.7 47.475C121.893 47.475 122.058 47.53 122.194 47.6412C122.331 47.7525 122.414 47.915 122.443 48.1325L123.056 52.3887H122.313L121.779 48.3625C121.774 48.31 121.763 48.2687 121.746 48.24C121.729 48.2112 121.699 48.1962 121.656 48.1962C121.628 48.1962 121.601 48.2087 121.578 48.2325C121.554 48.2562 121.536 48.2925 121.528 48.3412L120.533 51.8037C120.489 51.9475 120.416 52.0562 120.313 52.1287C120.209 52.2013 120.088 52.2375 119.948 52.2375C119.818 52.2375 119.698 52.2013 119.586 52.1287C119.475 52.0562 119.401 51.9537 119.363 51.8187L118.374 48.3337C118.359 48.2812 118.343 48.2437 118.324 48.2225C118.304 48.2012 118.278 48.19 118.244 48.19C118.21 48.19 118.183 48.2037 118.161 48.23C118.14 48.2562 118.124 48.2987 118.114 48.3562L117.515 52.3962L117.514 52.3975Z" fill="#333333"/>
<path d="M126.655 52.39H124.995V47.5562H126.69C127.281 47.5562 127.747 47.6675 128.086 47.8912C128.425 48.115 128.595 48.4312 128.595 48.84C128.595 49.105 128.534 49.3287 128.411 49.5112C128.289 49.6937 128.119 49.8312 127.902 49.9225C127.686 50.0137 127.431 50.06 127.137 50.06V49.9087C127.441 49.9087 127.707 49.9462 127.939 50.02C128.17 50.095 128.349 50.2162 128.476 50.3837C128.604 50.5525 128.667 50.7762 128.667 51.055C128.667 51.305 128.616 51.5162 128.512 51.6862C128.409 51.8575 128.266 51.9937 128.084 52.0975C127.901 52.2012 127.687 52.2762 127.445 52.3212C127.202 52.3675 126.939 52.39 126.655 52.39ZM125.731 48.17V49.6775H126.712C127.116 49.6775 127.409 49.6137 127.589 49.4862C127.769 49.3587 127.859 49.16 127.859 48.8912C127.859 48.6512 127.76 48.47 127.562 48.35C127.365 48.23 127.086 48.17 126.725 48.17H125.73H125.731ZM125.731 50.2912V51.7775H126.691C126.86 51.7775 127.019 51.7662 127.167 51.745C127.316 51.7237 127.447 51.6862 127.561 51.6337C127.674 51.5812 127.764 51.5037 127.831 51.4025C127.899 51.3012 127.932 51.1687 127.932 51.0062C127.932 50.7462 127.832 50.5625 127.632 50.455C127.432 50.3475 127.126 50.2925 126.712 50.2925H125.731V50.2912Z" fill="#333333"/>
<path d="M131.359 47.5562V51.705H133.761V52.39H131.301C131.056 52.39 130.881 52.33 130.779 52.21C130.675 52.09 130.624 51.9287 130.624 51.7262V47.5562H131.36H131.359Z" fill="#333333"/>
<path d="M138.689 52.39H135.984C135.734 52.39 135.558 52.33 135.458 52.21C135.356 52.09 135.306 51.9287 135.306 51.7262V48.22C135.306 48.0137 135.356 47.8512 135.458 47.7325C135.559 47.615 135.734 47.555 135.984 47.555H138.639V48.2262H136.041V51.7187H138.689V52.39ZM138.494 50.305H135.846L135.76 49.6337H138.494V50.305Z" fill="#333333"/>
<path d="M141.351 52.39H140.63V47.5562H142.311C142.652 47.5562 142.961 47.6087 143.239 47.715C143.515 47.8212 143.734 47.9825 143.895 48.1987C144.056 48.415 144.136 48.69 144.136 49.0212C144.136 49.2912 144.073 49.5287 143.945 49.735C143.818 49.9412 143.641 50.1025 143.415 50.2187C143.189 50.335 142.923 50.3925 142.614 50.3925L142.411 50.2262C142.69 50.2262 142.916 50.275 143.09 50.3737C143.264 50.4725 143.413 50.6162 143.538 50.8062C143.663 50.9962 143.79 51.2287 143.92 51.5025L144.36 52.39H143.566L143.163 51.575C143.066 51.3875 142.969 51.2225 142.87 51.0812C142.771 50.94 142.651 50.8287 142.509 50.75C142.367 50.67 142.183 50.6312 141.958 50.6312H141.265V49.975H142.304C142.51 49.975 142.695 49.9412 142.859 49.8737C143.022 49.8062 143.15 49.7062 143.241 49.5737C143.333 49.4412 143.379 49.2787 143.379 49.0862C143.379 48.8837 143.333 48.7212 143.239 48.5987C143.145 48.4762 143.017 48.385 142.856 48.325C142.695 48.265 142.516 48.235 142.319 48.235H141.366L141.351 52.3912V52.39Z" fill="#333333"/>
<path d="M146.574 53.74H146.098L146.365 52.0162L147.029 52.1237L146.574 53.74ZM146.581 52.455C146.5 52.455 146.423 52.435 146.35 52.3937C146.278 52.3525 146.22 52.2962 146.176 52.2237C146.133 52.1512 146.111 52.0725 146.111 51.985C146.111 51.8937 146.133 51.8137 146.176 51.7475C146.22 51.68 146.278 51.6262 146.35 51.585C146.423 51.5437 146.499 51.5237 146.581 51.5237C146.668 51.5237 146.746 51.545 146.816 51.585C146.886 51.6262 146.943 51.68 146.986 51.7475C147.03 51.815 147.051 51.895 147.051 51.985C147.051 52.075 147.03 52.1512 146.986 52.2237C146.943 52.2962 146.886 52.3525 146.816 52.3937C146.746 52.435 146.669 52.455 146.581 52.455Z" fill="#333333"/>
<path d="M153.486 52.47C153.078 52.47 152.714 52.3812 152.396 52.2037C152.079 52.0262 151.845 51.7712 151.696 51.4387L152.316 51.1362C152.408 51.3425 152.554 51.5012 152.756 51.6125C152.959 51.7237 153.201 51.7787 153.485 51.7787C153.673 51.7787 153.841 51.7512 153.99 51.6962C154.139 51.6412 154.258 51.5562 154.348 51.4437C154.436 51.3312 154.481 51.195 154.481 51.0362C154.481 50.8587 154.434 50.7225 154.338 50.6287C154.241 50.535 154.113 50.465 153.951 50.42C153.79 50.3737 153.614 50.335 153.421 50.3012C153.239 50.2625 153.053 50.2162 152.863 50.1612C152.673 50.1062 152.496 50.0275 152.333 49.9262C152.169 49.825 152.038 49.6912 151.939 49.5262C151.84 49.36 151.791 49.15 151.791 48.895C151.791 48.6262 151.865 48.385 152.011 48.1737C152.158 47.9625 152.355 47.795 152.603 47.6725C152.85 47.55 153.128 47.4887 153.436 47.4887C153.806 47.4887 154.144 47.5737 154.446 47.745C154.75 47.9162 154.973 48.1675 155.118 48.4987L154.504 48.8162C154.413 48.6137 154.273 48.4562 154.085 48.3437C153.898 48.2312 153.671 48.1737 153.408 48.1737C153.244 48.1737 153.096 48.2037 152.964 48.2637C152.831 48.3237 152.725 48.405 152.643 48.5087C152.56 48.6125 152.52 48.7337 152.52 48.8725C152.52 49.0462 152.57 49.1787 152.671 49.2725C152.773 49.3662 152.906 49.4387 153.071 49.4887C153.238 49.5387 153.419 49.5837 153.616 49.6225C153.799 49.6612 153.984 49.7075 154.171 49.7625C154.359 49.8175 154.531 49.8962 154.688 49.9975C154.844 50.0987 154.971 50.2325 155.07 50.3975C155.169 50.5637 155.218 50.7737 155.218 51.0287C155.218 51.3125 155.14 51.5612 154.986 51.775C154.833 51.9887 154.624 52.1587 154.363 52.2837C154.1 52.4087 153.808 52.4712 153.486 52.4712V52.47Z" fill="#333333"/>
<path d="M159.2 52.4763C158.849 52.4763 158.522 52.4125 158.222 52.285C157.921 52.1575 157.659 51.9813 157.432 51.755C157.206 51.5288 157.03 51.2638 156.902 50.9575C156.775 50.6525 156.711 50.3213 156.711 49.965C156.711 49.6088 156.775 49.2875 156.902 48.9875C157.03 48.6863 157.206 48.4238 157.432 48.1975C157.659 47.9713 157.922 47.795 158.222 47.6675C158.524 47.54 158.849 47.4763 159.2 47.4763C159.551 47.4763 159.876 47.54 160.174 47.6675C160.472 47.795 160.734 47.9725 160.96 48.1975C161.186 48.4238 161.361 48.6875 161.486 48.9875C161.611 49.2888 161.674 49.6138 161.674 49.965C161.674 50.3163 161.611 50.6513 161.486 50.9575C161.361 51.2625 161.185 51.5288 160.96 51.755C160.734 51.9813 160.471 52.1575 160.174 52.285C159.875 52.4125 159.551 52.4763 159.2 52.4763ZM159.2 51.7775C159.435 51.7775 159.659 51.73 159.867 51.6363C160.076 51.5425 160.26 51.4138 160.419 51.25C160.577 51.0863 160.7 50.895 160.786 50.6763C160.872 50.4575 160.916 50.22 160.916 49.9663C160.916 49.7125 160.872 49.4825 160.786 49.2663C160.7 49.05 160.577 48.86 160.419 48.6963C160.26 48.5325 160.077 48.405 159.87 48.3138C159.662 48.2225 159.44 48.1763 159.199 48.1763C158.957 48.1763 158.732 48.2225 158.52 48.3138C158.309 48.405 158.125 48.5325 157.969 48.6963C157.812 48.86 157.69 49.05 157.601 49.2663C157.512 49.4825 157.467 49.7163 157.467 49.9663C157.467 50.2163 157.512 50.4575 157.601 50.6763C157.69 50.895 157.812 51.0863 157.969 51.25C158.125 51.4138 158.309 51.5425 158.52 51.6363C158.731 51.73 158.957 51.7775 159.199 51.7775H159.2Z" fill="#333333"/>
<path d="M165.376 52.455C164.698 52.455 164.196 52.2612 163.873 51.8737C163.548 51.4862 163.385 50.9587 163.385 50.29V47.555H164.121V50.2675C164.121 50.7487 164.225 51.1162 164.431 51.3712C164.638 51.6262 164.953 51.7537 165.376 51.7537C165.8 51.7537 166.12 51.6262 166.325 51.3712C166.53 51.1162 166.631 50.7487 166.631 50.2675V47.555H167.368V50.29C167.368 50.9587 167.205 51.4862 166.88 51.8737C166.555 52.2612 166.054 52.455 165.376 52.455Z" fill="#333333"/>
<path d="M173.774 49.9512C173.774 50.3312 173.708 50.6712 173.575 50.9725C173.443 51.2737 173.258 51.5287 173.02 51.7412C172.783 51.9525 172.504 52.1137 172.186 52.225C171.869 52.335 171.523 52.3912 171.148 52.3912H169.51V47.5575H171.184C171.704 47.5575 172.156 47.6575 172.544 47.8575C172.931 48.0575 173.233 48.3362 173.449 48.695C173.665 49.0537 173.774 49.4725 173.774 49.9537V49.9512ZM173.016 49.9512C173.016 49.61 172.939 49.31 172.785 49.0525C172.631 48.795 172.418 48.5937 172.143 48.45C171.869 48.3062 171.549 48.2337 171.183 48.2337H170.245V51.7187H171.148C171.411 51.7187 171.658 51.6775 171.884 51.5962C172.11 51.515 172.308 51.3987 172.479 51.25C172.65 51.1012 172.783 50.9162 172.875 50.695C172.969 50.4737 173.015 50.2262 173.015 49.9512H173.016Z" fill="#333333"/>
<path d="M178.997 52.39H176.292C176.042 52.39 175.866 52.33 175.766 52.21C175.665 52.09 175.615 51.9287 175.615 51.7262V48.22C175.615 48.0137 175.665 47.8512 175.766 47.7325C175.867 47.6137 176.042 47.555 176.292 47.555H178.947V48.2262H176.35V51.7187H178.997V52.39ZM178.802 50.305H176.155L176.069 49.6337H178.802V50.305Z" fill="#333333"/>
<path d="M181.66 52.39H180.939V47.5562H182.62C182.961 47.5562 183.27 47.6087 183.547 47.715C183.824 47.8212 184.042 47.9825 184.204 48.1987C184.365 48.415 184.445 48.69 184.445 49.0212C184.445 49.2912 184.381 49.5287 184.254 49.735C184.126 49.9412 183.95 50.1025 183.724 50.2187C183.497 50.335 183.231 50.3925 182.922 50.3925L182.72 50.2262C182.999 50.2262 183.225 50.275 183.399 50.3737C183.572 50.4725 183.721 50.6162 183.846 50.8062C183.971 50.9962 184.099 51.2287 184.229 51.5025L184.669 52.39H183.875L183.471 51.575C183.375 51.3875 183.277 51.2225 183.179 51.0812C183.08 50.94 182.96 50.8287 182.817 50.75C182.676 50.67 182.491 50.6312 182.266 50.6312H181.574V49.975H182.612C182.819 49.975 183.004 49.9412 183.167 49.8737C183.331 49.8062 183.459 49.7062 183.55 49.5737C183.641 49.4412 183.687 49.2787 183.687 49.0862C183.687 48.8837 183.641 48.7212 183.547 48.5987C183.454 48.4762 183.326 48.385 183.165 48.325C183.004 48.265 182.825 48.235 182.627 48.235H181.675L181.66 52.3912V52.39Z" fill="#333333"/>
<path d="M190.18 47.5562V51.705H192.582V52.39H190.122C189.877 52.39 189.702 52.33 189.6 52.21C189.496 52.09 189.445 51.9287 189.445 51.7262V47.5562H190.181H190.18Z" fill="#333333"/>
<path d="M194.069 49.4175H193.6L193.932 47.8662L194.575 48.0325L194.07 49.4175H194.069ZM194.155 48.3062C194.069 48.3062 193.989 48.2862 193.917 48.245C193.846 48.2037 193.787 48.1475 193.744 48.075C193.7 48.0025 193.679 47.9237 193.679 47.8375C193.679 47.7512 193.7 47.6725 193.744 47.6025C193.787 47.5325 193.845 47.4775 193.917 47.4362C193.99 47.395 194.069 47.375 194.155 47.375C194.241 47.375 194.32 47.395 194.39 47.4362C194.46 47.4775 194.515 47.5325 194.556 47.6025C194.597 47.6725 194.617 47.75 194.617 47.8375C194.617 47.925 194.597 48.0037 194.556 48.075C194.515 48.1475 194.46 48.2037 194.39 48.245C194.32 48.2862 194.242 48.3062 194.155 48.3062Z" fill="#333333"/>
<path d="M196.739 47.5562H197.475V52.39H196.739V47.5562Z" fill="#333333"/>
<path d="M200.381 52.39H199.681V48.1625C199.681 48.0137 199.71 47.8875 199.768 47.7837C199.825 47.68 199.905 47.6025 200.005 47.5487C200.105 47.495 200.216 47.4688 200.338 47.4688C200.486 47.4688 200.613 47.4975 200.716 47.555C200.82 47.6125 200.905 47.7062 200.973 47.8362L203.008 51.6387C203.023 51.6725 203.033 51.6962 203.04 51.7112C203.048 51.7262 203.063 51.7325 203.088 51.7325C203.103 51.7325 203.111 51.7275 203.116 51.7175C203.121 51.7075 203.124 51.6937 203.124 51.6737V47.5537H203.824V51.7888C203.824 51.9325 203.794 52.055 203.734 52.1563C203.674 52.2575 203.594 52.3362 203.495 52.3912C203.396 52.4462 203.291 52.4737 203.181 52.4737C203.046 52.4737 202.923 52.4437 202.81 52.3837C202.698 52.3237 202.605 52.2287 202.533 52.0987L200.505 48.2887C200.495 48.26 200.488 48.2387 200.48 48.2237C200.473 48.2087 200.46 48.2025 200.44 48.2025C200.42 48.2025 200.406 48.21 200.396 48.2237C200.386 48.2387 200.381 48.26 200.381 48.2887V52.3863V52.39Z" fill="#333333"/>
<path d="M210.301 49.9512C210.301 50.3312 210.235 50.6712 210.102 50.9725C209.97 51.2737 209.785 51.5287 209.547 51.7412C209.31 51.9525 209.031 52.1137 208.714 52.225C208.396 52.335 208.05 52.3912 207.675 52.3912H206.037V47.5575H207.711C208.231 47.5575 208.684 47.6575 209.071 47.8575C209.459 48.0575 209.76 48.3362 209.976 48.695C210.192 49.0537 210.301 49.4725 210.301 49.9537V49.9512ZM209.544 49.9512C209.544 49.61 209.466 49.31 209.312 49.0525C209.159 48.795 208.945 48.5937 208.67 48.45C208.396 48.3062 208.076 48.2337 207.71 48.2337H206.772V51.7187H207.675C207.939 51.7187 208.185 51.6775 208.411 51.5962C208.637 51.515 208.835 51.3987 209.006 51.25C209.177 51.1012 209.31 50.9162 209.402 50.695C209.496 50.4737 209.542 50.2262 209.542 49.9512H209.544Z" fill="#333333"/>
<path d="M214.075 52.455C213.396 52.455 212.895 52.2612 212.571 51.8737C212.246 51.4862 212.084 50.9587 212.084 50.29V47.555H212.82V50.2675C212.82 50.7487 212.924 51.1162 213.13 51.3712C213.336 51.6262 213.651 51.7537 214.075 51.7537C214.499 51.7537 214.819 51.6262 215.024 51.3712C215.229 51.1162 215.33 50.7487 215.33 50.2675V47.555H216.066V50.29C216.066 50.9587 215.904 51.4862 215.579 51.8737C215.254 52.2612 214.752 52.455 214.075 52.455Z" fill="#333333"/>
<path d="M219.653 52.47C219.244 52.47 218.88 52.3812 218.563 52.2037C218.245 52.0262 218.011 51.7712 217.863 51.4387L218.483 51.1362C218.574 51.3425 218.72 51.5012 218.923 51.6125C219.125 51.7237 219.368 51.7787 219.651 51.7787C219.839 51.7787 220.008 51.7512 220.156 51.6962C220.305 51.6412 220.424 51.5562 220.514 51.4437C220.603 51.3312 220.648 51.195 220.648 51.0362C220.648 50.8587 220.6 50.7225 220.504 50.6287C220.408 50.535 220.279 50.465 220.118 50.42C219.956 50.3737 219.78 50.335 219.588 50.3012C219.405 50.2625 219.219 50.2162 219.029 50.1612C218.839 50.1062 218.663 50.0275 218.499 49.9262C218.335 49.825 218.204 49.6912 218.105 49.5262C218.006 49.36 217.958 49.15 217.958 48.895C217.958 48.6262 218.031 48.385 218.178 48.1737C218.324 47.9625 218.521 47.795 218.769 47.6725C219.016 47.55 219.294 47.4887 219.603 47.4887C219.973 47.4887 220.31 47.5737 220.613 47.745C220.916 47.9162 221.139 48.1675 221.284 48.4987L220.67 48.8162C220.579 48.6137 220.439 48.4562 220.251 48.3437C220.064 48.2312 219.838 48.1737 219.574 48.1737C219.41 48.1737 219.263 48.2037 219.13 48.2637C218.998 48.3237 218.891 48.405 218.809 48.5087C218.726 48.6125 218.686 48.7337 218.686 48.8725C218.686 49.0462 218.736 49.1787 218.838 49.2725C218.939 49.3662 219.073 49.4387 219.238 49.4887C219.404 49.5387 219.585 49.5837 219.783 49.6225C219.965 49.6612 220.15 49.7075 220.338 49.7625C220.525 49.8175 220.698 49.8962 220.854 49.9975C221.01 50.0987 221.138 50.2325 221.236 50.3975C221.335 50.5637 221.384 50.7737 221.384 51.0287C221.384 51.3125 221.306 51.5612 221.153 51.775C220.999 51.9887 220.79 52.1587 220.529 52.2837C220.266 52.4087 219.974 52.4712 219.653 52.4712V52.47Z" fill="#333333"/>
<path d="M226.391 47.5562V48.235H222.69V47.5562H226.391ZM224.169 47.5562H224.905V52.39H224.169V47.5562Z" fill="#333333"/>
<path d="M228.758 52.39H228.036V47.5562H229.717C230.059 47.5562 230.368 47.6087 230.645 47.715C230.921 47.8212 231.14 47.9825 231.301 48.1987C231.463 48.415 231.542 48.69 231.542 49.0212C231.542 49.2912 231.479 49.5287 231.351 49.735C231.224 49.9412 231.047 50.1025 230.821 50.2187C230.595 50.3337 230.329 50.3925 230.02 50.3925L229.818 50.2262C230.096 50.2262 230.322 50.275 230.496 50.3737C230.67 50.4725 230.819 50.6162 230.944 50.8062C231.069 50.9962 231.196 51.2287 231.326 51.5025L231.766 52.39H230.973L230.569 51.575C230.473 51.3875 230.375 51.2225 230.276 51.0812C230.177 50.94 230.057 50.8287 229.915 50.75C229.774 50.67 229.589 50.6312 229.364 50.6312H228.671V49.975H229.71C229.916 49.975 230.101 49.9412 230.265 49.8737C230.429 49.8062 230.556 49.7062 230.648 49.5737C230.739 49.4412 230.785 49.2787 230.785 49.0862C230.785 48.8837 230.739 48.7212 230.645 48.5987C230.551 48.4762 230.424 48.385 230.262 48.325C230.101 48.265 229.923 48.235 229.725 48.235H228.773L228.758 52.3912V52.39Z" fill="#333333"/>
<path d="M233.67 47.5562H234.406V52.39H233.67V47.5562Z" fill="#333333"/>
<path d="M239.984 52.39H237.279C237.029 52.39 236.852 52.33 236.752 52.21C236.651 52.09 236.601 51.9287 236.601 51.7262V48.22C236.601 48.0137 236.651 47.8512 236.752 47.7325C236.854 47.615 237.029 47.555 237.279 47.555H239.934V48.2262H237.336V51.7187H239.984V52.39ZM239.789 50.305H237.141L237.055 49.6337H239.789V50.305Z" fill="#333333"/>
</g>
<defs>
<clipPath id="clip0_1786_845">
<rect width="240" height="53.48" fill="white" transform="translate(0 0.26001)"/>
</clipPath>
</defs>
</svg>
