<svg width="240" height="54" viewBox="0 0 240 54" fill="none" xmlns="http://www.w3.org/2000/svg">
<g clip-path="url(#clip0_208_544)">
<path d="M36.8213 13.7887L36.6363 13.6037L25.64 2.60874L25.455 2.42374C22.2238 -0.807507 16.9863 -0.807507 13.755 2.42374L8.08877 8.08999L2.42252 13.7562C-0.808728 16.9875 -0.808728 22.225 2.42252 25.4562L13.7713 36.805C17.0025 40.0362 22.24 40.0362 25.4713 36.805L25.6563 36.62L19.6375 30.6012L25.1175 25.1212L19.1038 19.1075L13.6238 24.5875L8.64252 19.6062L14.1225 14.1262L19.6025 8.64624L30.5975 19.6412L25.1175 25.1212L31.1525 31.1562L36.8188 25.49C40.05 22.2587 40.05 17.0212 36.8188 13.79L36.8213 13.7887Z" fill="#FF5500"/>
<path d="M57.1313 16.155H54.0438V4.58752C54.0438 3.77002 54.2551 3.12127 54.6788 2.64127C55.1013 2.16252 55.8001 1.92252 56.7726 1.92252H64.2588V4.77752H57.1313V16.155ZM63.7713 11.3338H56.4326L56.0313 8.50002H63.7713V11.3338Z" fill="white"/>
<path d="M69.7988 16.155H66.7538V1.92252H72.2313C73.3025 1.92252 74.2688 2.08877 75.1288 2.42002C75.9888 2.75127 76.6688 3.25252 77.17 3.92127C77.67 4.59127 77.9213 5.43377 77.9213 6.44877C77.9213 7.25252 77.7413 7.96127 77.3825 8.57377C77.0225 9.18752 76.5263 9.67002 75.8913 10.0225C75.2563 10.375 74.5025 10.5513 73.6288 10.5513L72.8038 9.93752C73.635 9.93752 74.2988 10.0575 74.7913 10.2975C75.285 10.5375 75.7038 10.9075 76.05 11.4075C76.395 11.9075 76.7588 12.5525 77.1388 13.3425L78.5138 16.155H75.1725L73.9038 13.6175C73.6925 13.1813 73.4663 12.8138 73.2275 12.5175C72.9875 12.2213 72.695 11.9963 72.35 11.8413C72.0038 11.6863 71.5638 11.6088 71.0275 11.6088H69.5263V8.86002H72.2338C72.7275 8.86002 73.1613 8.77877 73.535 8.61627C73.9088 8.45377 74.2038 8.21502 74.4238 7.89752C74.6425 7.58002 74.7513 7.20377 74.7513 6.76627C74.7513 6.28752 74.6425 5.90252 74.4238 5.61377C74.205 5.32502 73.9088 5.11377 73.535 4.97877C73.1613 4.84502 72.7413 4.77752 72.2763 4.77752H69.8438L69.8013 16.155H69.7988Z" fill="white"/>
<path d="M87.0138 1.64749C89.0863 1.64749 90.62 2.23249 91.6138 3.40249C92.6075 4.57249 93.105 6.17999 93.105 8.22499V16.1562H90.0175V8.39499C90.0175 7.15499 89.7675 6.20624 89.2663 5.54999C88.765 4.89499 88.015 4.56624 87.0138 4.56624C86.0125 4.56624 85.2825 4.89374 84.7825 5.54999C84.2813 6.20499 84.0313 7.15374 84.0313 8.39499V16.1562H80.9438V8.22499C80.9438 6.18124 81.4375 4.57374 82.4238 3.40249C83.41 2.23249 84.94 1.64749 87.0125 1.64749H87.0138ZM90.905 12.3062H82.5088V9.45124H90.905V12.3062Z" fill="white"/>
<path d="M99.28 16.155H96.34V3.86875C96.34 3.40375 96.4425 3.00125 96.6463 2.66375C96.85 2.325 97.1225 2.06875 97.46 1.89125C97.7988 1.715 98.1575 1.6275 98.5388 1.6275C99.0038 1.6275 99.42 1.71625 99.7863 1.89125C100.153 2.0675 100.449 2.35375 100.675 2.7475L106.745 13.1525C106.689 13.11 106.639 13.0863 106.596 13.0788C106.554 13.0713 106.519 13.0675 106.49 13.0675C106.448 13.0675 106.405 13.0888 106.364 13.1313C106.321 13.1738 106.3 13.2375 106.3 13.3213V1.9225H109.219V14.21C109.219 14.69 109.116 15.095 108.913 15.4263C108.708 15.7575 108.44 16.0075 108.109 16.1775C107.778 16.3463 107.429 16.4313 107.061 16.4313C106.61 16.4313 106.194 16.3425 105.814 16.1675C105.434 15.9913 105.13 15.7125 104.905 15.3325L98.8988 4.97C98.9413 4.99875 98.98 5.01625 99.015 5.0225C99.05 5.03 99.0888 5.0325 99.1313 5.0325C99.1738 5.0325 99.2088 5.01125 99.2375 4.96875C99.2663 4.92625 99.28 4.87 99.28 4.8V16.1563V16.155Z" fill="white"/>
<path d="M119.116 16.4512C118.073 16.4512 117.108 16.2612 116.219 15.88C115.33 15.5 114.548 14.97 113.871 14.2937C113.195 13.6175 112.669 12.8312 112.296 11.935C111.923 11.04 111.736 10.0775 111.736 9.04874C111.736 8.01999 111.923 7.03999 112.296 6.15124C112.67 5.26249 113.195 4.47999 113.871 3.80374C114.548 3.12749 115.33 2.59874 116.219 2.21749C117.108 1.83624 118.073 1.64624 119.116 1.64624C119.934 1.64624 120.73 1.78749 121.506 2.06874C122.281 2.35124 122.976 2.75249 123.59 3.27374C124.204 3.79499 124.679 4.42999 125.018 5.17749L122.501 6.59499C122.149 5.97499 121.69 5.48499 121.126 5.12499C120.563 4.76499 119.85 4.58624 118.99 4.58624C118.398 4.58624 117.851 4.69499 117.351 4.91374C116.85 5.13249 116.418 5.44249 116.051 5.84374C115.685 6.24499 115.403 6.71749 115.205 7.26124C115.008 7.80374 114.909 8.39999 114.909 9.04874C114.909 9.69749 115.008 10.275 115.205 10.825C115.403 11.375 115.681 11.8512 116.04 12.2525C116.4 12.6537 116.834 12.965 117.34 13.1825C117.848 13.4012 118.398 13.51 118.99 13.51C119.85 13.51 120.565 13.3275 121.136 12.96C121.708 12.5937 122.163 12.1075 122.5 11.5012L125.016 12.9187C124.678 13.6662 124.203 14.3 123.589 14.8225C122.975 15.3437 122.281 15.7462 121.505 16.0275C120.729 16.3087 119.933 16.45 119.115 16.45L119.116 16.4512Z" fill="white"/>
<path d="M137.389 16.155H129.733C128.76 16.155 128.061 15.915 127.639 15.4363C127.216 14.9575 127.004 14.315 127.004 13.5113V4.58752C127.004 3.77002 127.215 3.12127 127.639 2.64127C128.061 2.16252 128.76 1.92252 129.733 1.92252H137.261V4.69252H130.091V13.385H137.388V16.155H137.389ZM136.818 10.4238H129.374L128.973 7.65377H136.819V10.4238H136.818Z" fill="white"/>
<path d="M60.4088 37.6C59.3651 37.6 58.4001 37.41 57.5113 37.0288C56.6226 36.6488 55.8401 36.1188 55.1638 35.4425C54.4876 34.7663 53.9613 33.98 53.5888 33.0838C53.2151 32.1888 53.0288 31.2263 53.0288 30.1975C53.0288 29.1688 53.2151 28.1888 53.5888 27.3C53.9626 26.4113 54.4876 25.6288 55.1638 24.9525C55.8401 24.2763 56.6226 23.7475 57.5113 23.3663C58.4001 22.985 59.3651 22.795 60.4088 22.795C61.2263 22.795 62.0226 22.9363 62.7988 23.2175C63.5738 23.5 64.2688 23.9013 64.8826 24.4225C65.4963 24.9438 65.9713 25.5788 66.3101 26.3263L63.7938 27.7438C63.4413 27.1238 62.9826 26.6338 62.4188 26.2738C61.8551 25.9138 61.1426 25.735 60.2826 25.735C59.6901 25.735 59.1438 25.8438 58.6438 26.0625C58.1426 26.2813 57.7101 26.5913 57.3438 26.9925C56.9776 27.3938 56.6951 27.8663 56.4976 28.41C56.3001 28.9525 56.2013 29.5488 56.2013 30.1975C56.2013 30.8463 56.3001 31.4238 56.4976 31.9738C56.6951 32.5238 56.9738 33 57.3326 33.4013C57.6926 33.8025 58.1263 34.1138 58.6326 34.3313C59.1401 34.55 59.6901 34.6588 60.2826 34.6588C61.1426 34.6588 61.8576 34.4763 62.4288 34.1088C63.0001 33.7425 63.4551 33.2563 63.7926 32.65L66.3088 34.0675C65.9701 34.815 65.4951 35.4488 64.8813 35.9713C64.2676 36.4925 63.5738 36.895 62.7976 37.1763C62.0213 37.4575 61.2251 37.5988 60.4076 37.5988L60.4088 37.6Z" fill="white"/>
<path d="M71.5963 37.3038H68.5088V23.0713H71.5963V28.8025H78.0888V23.0713H81.1763V37.3038H78.0888V31.6363H71.5963V37.3038Z" fill="white"/>
<path d="M90.6301 22.7963C92.7026 22.7963 94.2363 23.3813 95.2301 24.5513C96.2238 25.7213 96.7213 27.3288 96.7213 29.3738V37.305H93.6338V29.5438C93.6338 28.3038 93.3838 27.355 92.8826 26.6988C92.3813 26.0438 91.6313 25.715 90.6301 25.715C89.6288 25.715 88.8988 26.0425 88.3988 26.6988C87.8976 27.3538 87.6476 28.3025 87.6476 29.5438V37.305H84.5601V29.3738C84.5601 27.33 85.0538 25.7225 86.0401 24.5513C87.0263 23.3813 88.5563 22.7963 90.6288 22.7963H90.6301ZM94.5213 33.455H86.1251V30.6H94.5213V33.455Z" fill="white"/>
<path d="M105.941 37.5363C103.813 37.5363 102.248 36.9588 101.246 35.8025C100.245 34.6463 99.7451 33.04 99.7451 30.98V23.07H102.833V30.9163C102.833 32.1575 103.09 33.08 103.605 33.6863C104.12 34.2925 104.899 34.5963 105.943 34.5963C106.986 34.5963 107.765 34.2925 108.28 33.6863C108.795 33.08 109.053 32.1563 109.053 30.9163V23.07H112.14V30.98C112.14 33.0388 111.636 34.6463 110.628 35.8025C109.619 36.9588 108.058 37.5363 105.943 37.5363H105.941Z" fill="white"/>
<path d="M128.57 30.1975C128.57 31.2838 128.38 32.2638 127.999 33.1375C127.618 34.0113 127.079 34.7588 126.381 35.3788C125.684 35.9988 124.865 36.475 123.929 36.8063C122.991 37.1375 121.959 37.3038 120.83 37.3038H115.585V23.0713H120.894C122.43 23.0713 123.774 23.3675 124.923 23.96C126.071 24.5525 126.966 25.38 127.609 26.445C128.25 27.51 128.571 28.76 128.571 30.1988L128.57 30.1975ZM125.398 30.1975C125.398 29.3375 125.21 28.59 124.838 27.9563C124.464 27.3213 123.939 26.825 123.263 26.465C122.586 26.105 121.796 25.9263 120.894 25.9263H118.674V34.5338H120.831C121.508 34.5338 122.121 34.4313 122.671 34.2275C123.221 34.0238 123.704 33.7338 124.12 33.36C124.536 32.9863 124.853 32.5325 125.071 31.9963C125.29 31.46 125.399 30.8613 125.399 30.1988L125.398 30.1975Z" fill="white"/>
<path d="M134.47 37.3038H131.425V23.0713H136.903C137.974 23.0713 138.94 23.2375 139.8 23.5688C140.66 23.9 141.34 24.4013 141.841 25.07C142.341 25.74 142.593 26.5825 142.593 27.5975C142.593 28.4013 142.413 29.11 142.054 29.7225C141.694 30.3363 141.198 30.8188 140.563 31.1713C139.928 31.5238 139.174 31.7 138.3 31.7L137.475 31.0863C138.306 31.0863 138.97 31.2063 139.463 31.4463C139.956 31.6863 140.375 32.0563 140.721 32.5563C141.066 33.0563 141.43 33.7013 141.81 34.4913L143.185 37.3038H139.844L138.575 34.7663C138.364 34.33 138.138 33.9625 137.899 33.6663C137.659 33.37 137.366 33.145 137.021 32.99C136.675 32.835 136.235 32.7575 135.699 32.7575H134.198V30.0088H136.905C137.399 30.0088 137.833 29.9275 138.206 29.765C138.58 29.6025 138.875 29.3638 139.095 29.0463C139.314 28.7288 139.423 28.3525 139.423 27.915C139.423 27.4363 139.314 27.0513 139.095 26.7625C138.876 26.4738 138.58 26.2625 138.206 26.1275C137.833 25.9938 137.413 25.9263 136.948 25.9263H134.515L134.473 37.3038H134.47Z" fill="white"/>
<path d="M152.278 37.5788C151.234 37.5788 150.261 37.395 149.359 37.0288C148.456 36.6625 147.67 36.1438 147 35.475C146.33 34.805 145.809 34.02 145.435 33.1163C145.061 32.2138 144.875 31.2413 144.875 30.1975C144.875 29.1538 145.061 28.1813 145.435 27.2788C145.809 26.3763 146.33 25.5938 147 24.9313C147.67 24.2688 148.455 23.75 149.359 23.3763C150.261 23.0025 151.234 22.8163 152.278 22.8163C153.321 22.8163 154.311 23.0038 155.206 23.3763C156.101 23.75 156.888 24.2688 157.565 24.9313C158.241 25.5938 158.766 26.3763 159.14 27.2788C159.514 28.1813 159.7 29.1538 159.7 30.1975C159.7 31.2413 159.513 32.2138 159.14 33.1163C158.766 34.0188 158.241 34.805 157.565 35.475C156.889 36.145 156.103 36.6625 155.206 37.0288C154.311 37.395 153.335 37.5788 152.278 37.5788ZM152.278 34.66C152.87 34.66 153.423 34.5475 153.938 34.3213C154.453 34.0963 154.903 33.7788 155.291 33.37C155.679 32.9613 155.979 32.485 156.19 31.9425C156.401 31.4 156.508 30.8188 156.508 30.1975C156.508 29.5763 156.401 28.9788 156.19 28.4425C155.979 27.9063 155.679 27.435 155.291 27.025C154.904 26.6163 154.453 26.2988 153.938 26.0738C153.423 25.8488 152.87 25.735 152.278 25.735C151.685 25.735 151.131 25.8475 150.618 26.0738C150.103 26.2988 149.651 26.6163 149.264 27.025C148.876 27.4338 148.576 27.9063 148.365 28.4425C148.154 28.9788 148.048 29.5638 148.048 30.1975C148.048 30.8313 148.154 31.4 148.365 31.9425C148.576 32.485 148.876 32.9613 149.264 33.37C149.651 33.7788 150.103 34.0963 150.618 34.3213C151.133 34.5475 151.685 34.66 152.278 34.66Z" fill="white"/>
<path d="M165.114 37.3037H162.174V25.0162C162.174 24.5512 162.276 24.1487 162.48 23.8112C162.684 23.4725 162.956 23.2162 163.294 23.0387C163.633 22.8625 163.991 22.775 164.373 22.775C164.838 22.775 165.254 22.8637 165.62 23.0387C165.986 23.215 166.283 23.5012 166.509 23.895L172.579 34.3C172.523 34.2575 172.473 34.2337 172.43 34.2262C172.388 34.2187 172.353 34.215 172.324 34.215C172.281 34.215 172.239 34.2362 172.198 34.2787C172.155 34.3212 172.134 34.385 172.134 34.4687V23.07H175.053V35.3575C175.053 35.8375 174.95 36.2425 174.746 36.5737C174.541 36.905 174.274 37.155 173.943 37.325C173.611 37.4937 173.263 37.5787 172.895 37.5787C172.444 37.5787 172.028 37.49 171.648 37.315C171.268 37.1387 170.964 36.86 170.739 36.48L164.733 26.1175C164.775 26.1462 164.814 26.1637 164.849 26.17C164.884 26.1775 164.923 26.18 164.965 26.18C165.008 26.18 165.043 26.1587 165.071 26.1162C165.1 26.0737 165.114 26.0175 165.114 25.9475V37.3037Z" fill="white"/>
<path d="M181.525 37.3037H178.585V25.0162C178.585 24.5512 178.688 24.1487 178.891 23.8112C179.095 23.4725 179.368 23.2162 179.705 23.0387C180.044 22.8625 180.403 22.775 180.784 22.775C181.249 22.775 181.665 22.8637 182.031 23.0387C182.398 23.215 182.694 23.5012 182.92 23.895L188.99 34.3C188.934 34.2575 188.884 34.2337 188.841 34.2262C188.799 34.2187 188.764 34.215 188.735 34.215C188.693 34.215 188.65 34.2362 188.609 34.2787C188.566 34.3212 188.545 34.385 188.545 34.4687V23.07H191.464V35.3575C191.464 35.8375 191.361 36.2425 191.158 36.5737C190.953 36.905 190.685 37.155 190.354 37.325C190.023 37.4937 189.674 37.5787 189.306 37.5787C188.855 37.5787 188.439 37.49 188.059 37.315C187.679 37.1387 187.375 36.86 187.15 36.48L181.144 26.1175C181.186 26.1462 181.225 26.1637 181.26 26.17C181.295 26.1775 181.334 26.18 181.376 26.18C181.419 26.18 181.454 26.1587 181.483 26.1162C181.511 26.0737 181.525 26.0175 181.525 25.9475V37.3037Z" fill="white"/>
<path d="M205.316 37.3038H197.66C196.688 37.3038 195.989 37.0638 195.566 36.585C195.144 36.1063 194.931 35.4638 194.931 34.66V25.735C194.931 24.9175 195.143 24.2688 195.566 23.7888C195.989 23.31 196.688 23.07 197.66 23.07H205.189V25.84H198.019V34.5325H205.315V37.3025L205.316 37.3038ZM204.746 31.5725H197.303L196.901 28.8025H204.748V31.5725H204.746Z" fill="white"/>
<path d="M211.386 37.3038H208.341V23.0713H213.819C214.89 23.0713 215.856 23.2375 216.716 23.5688C217.576 23.9 218.256 24.4013 218.758 25.07C219.258 25.74 219.509 26.5825 219.509 27.5975C219.509 28.4013 219.329 29.11 218.97 29.7225C218.61 30.3363 218.114 30.8188 217.479 31.1713C216.844 31.5238 216.09 31.7 215.216 31.7L214.391 31.0863C215.223 31.0863 215.886 31.2063 216.379 31.4463C216.873 31.6863 217.291 32.0563 217.638 32.5563C217.983 33.0563 218.346 33.7013 218.726 34.4913L220.101 37.3038H216.76L215.491 34.7663C215.28 34.33 215.054 33.9625 214.815 33.6663C214.575 33.37 214.283 33.145 213.938 32.99C213.591 32.835 213.151 32.7575 212.615 32.7575H211.114V30.0088H213.821C214.315 30.0088 214.749 29.9275 215.123 29.765C215.496 29.6025 215.791 29.3638 216.011 29.0463C216.23 28.7288 216.339 28.3525 216.339 27.915C216.339 27.4363 216.23 27.0513 216.011 26.7625C215.793 26.4738 215.496 26.2625 215.123 26.1275C214.749 25.9938 214.329 25.9263 213.864 25.9263H211.431L211.389 37.3038H211.386Z" fill="white"/>
<path d="M222.955 23.0713H226.043V37.3038H222.955V23.0713Z" fill="white"/>
<path d="M240 37.3038H232.344C231.371 37.3038 230.673 37.0638 230.25 36.585C229.828 36.1063 229.615 35.4638 229.615 34.66V25.735C229.615 24.9175 229.826 24.2688 230.25 23.7888C230.673 23.31 231.371 23.07 232.344 23.07H239.873V25.84H232.703V34.5325H239.999V37.3025L240 37.3038ZM239.429 31.5725H231.985L231.584 28.8025H239.43V31.5725H239.429Z" fill="white"/>
<path d="M54.7887 52.13H54.0525V47.96C54.0525 47.7537 54.1037 47.5912 54.2075 47.4725C54.3112 47.355 54.485 47.295 54.73 47.295H57.385V47.9737H54.7875V52.13H54.7887ZM57.22 50.29H54.6012L54.5075 49.6112H57.22V50.29Z" fill="white"/>
<path d="M61.2162 52.2162C60.865 52.2162 60.5387 52.1525 60.2387 52.025C59.9375 51.8975 59.675 51.7212 59.4487 51.495C59.2225 51.2687 59.0462 51.0037 58.9187 50.6975C58.7912 50.3925 58.7275 50.0612 58.7275 49.705C58.7275 49.3487 58.7912 49.0275 58.9187 48.7275C59.0462 48.4262 59.2225 48.1637 59.4487 47.9375C59.675 47.7112 59.9387 47.535 60.2387 47.4075C60.54 47.28 60.865 47.2162 61.2162 47.2162C61.5675 47.2162 61.8925 47.28 62.19 47.4075C62.4887 47.535 62.75 47.7125 62.9762 47.9375C63.2025 48.1637 63.3775 48.4275 63.5025 48.7275C63.6275 49.0287 63.69 49.3537 63.69 49.705C63.69 50.0562 63.6275 50.3912 63.5025 50.6975C63.3775 51.0025 63.2012 51.2687 62.9762 51.495C62.75 51.7212 62.4875 51.8975 62.19 52.025C61.8912 52.1525 61.5675 52.2162 61.2162 52.2162ZM61.2162 51.5175C61.4512 51.5175 61.675 51.47 61.8837 51.3762C62.0925 51.2825 62.2762 51.1537 62.435 50.99C62.5937 50.8262 62.7162 50.635 62.8025 50.4162C62.8887 50.1975 62.9325 49.96 62.9325 49.7062C62.9325 49.4525 62.8887 49.2225 62.8025 49.0062C62.7162 48.79 62.5937 48.6 62.435 48.4362C62.2762 48.2725 62.0937 48.145 61.8862 48.0537C61.6787 47.9625 61.4562 47.9162 61.215 47.9162C60.9737 47.9162 60.7487 47.9625 60.5362 48.0537C60.325 48.145 60.1412 48.2725 59.985 48.4362C59.8287 48.6 59.7062 48.79 59.6175 49.0062C59.5287 49.2225 59.4837 49.4562 59.4837 49.7062C59.4837 49.9562 59.5287 50.1975 59.6175 50.4162C59.7062 50.635 59.8287 50.8262 59.985 50.99C60.1412 51.1537 60.325 51.2825 60.5362 51.3762C60.7475 51.47 60.9737 51.5175 61.215 51.5175H61.2162Z" fill="white"/>
<path d="M66.2525 52.13H65.5312V47.2962H67.2125C67.5538 47.2962 67.8625 47.3487 68.14 47.455C68.4162 47.5612 68.635 47.7225 68.7962 47.9387C68.9575 48.155 69.0375 48.43 69.0375 48.7612C69.0375 49.0312 68.9738 49.2687 68.8463 49.475C68.7188 49.6812 68.5425 49.8425 68.3163 49.9587C68.09 50.075 67.8237 50.1325 67.515 50.1325L67.3125 49.9662C67.5912 49.9662 67.8175 50.015 67.9912 50.1137C68.165 50.2125 68.3138 50.3562 68.4388 50.5462C68.5638 50.7362 68.6913 50.9687 68.8213 51.2425L69.2613 52.13H68.4675L68.0638 51.315C67.9675 51.1275 67.87 50.9625 67.7712 50.8212C67.6725 50.68 67.5525 50.5687 67.41 50.49C67.2688 50.41 67.0837 50.3712 66.8587 50.3712H66.1663V49.715H67.205C67.4113 49.715 67.5963 49.6812 67.76 49.6137C67.9238 49.5462 68.0513 49.4462 68.1425 49.3137C68.2338 49.1812 68.28 49.0187 68.28 48.8262C68.28 48.6237 68.2337 48.4612 68.14 48.3387C68.0462 48.2162 67.9187 48.125 67.7575 48.065C67.5962 48.005 67.4175 47.975 67.22 47.975H66.2675L66.2525 52.1312V52.13Z" fill="white"/>
<path d="M71.5837 52.1375H70.8337L71.5125 47.8512C71.5462 47.64 71.6325 47.48 71.7725 47.3712C71.9112 47.2637 72.0775 47.2087 72.27 47.2087C72.4437 47.2087 72.5987 47.2525 72.735 47.3387C72.8712 47.425 72.9675 47.565 73.02 47.7575L73.9512 51.1262C73.9662 51.1837 73.9875 51.2125 74.0162 51.2125C74.04 51.2125 74.0562 51.2062 74.0637 51.195C74.0712 51.1825 74.08 51.16 74.0887 51.1262L75.0125 47.7712C75.065 47.5837 75.1612 47.4437 75.3012 47.3525C75.44 47.2612 75.5975 47.215 75.77 47.215C75.9625 47.215 76.1275 47.27 76.2637 47.3812C76.4012 47.4925 76.4837 47.655 76.5125 47.8725L77.1262 52.1287H76.3825L75.8487 48.1025C75.8437 48.05 75.8325 48.0087 75.8162 47.98C75.7987 47.9512 75.7687 47.9362 75.7262 47.9362C75.6975 47.9362 75.6712 47.9487 75.6475 47.9725C75.6237 47.9962 75.6062 48.0325 75.5975 48.0812L74.6025 51.5437C74.5587 51.6875 74.4862 51.7962 74.3825 51.8687C74.2787 51.9412 74.1575 51.9775 74.0175 51.9775C73.8875 51.9775 73.7675 51.9412 73.6562 51.8687C73.545 51.7962 73.4712 51.6937 73.4325 51.5587L72.4437 48.0737C72.4287 48.0212 72.4125 47.9837 72.3937 47.9625C72.3737 47.9412 72.3475 47.93 72.3137 47.93C72.28 47.93 72.2525 47.9437 72.2312 47.97C72.21 47.9962 72.1937 48.0387 72.1837 48.0962L71.585 52.1362L71.5837 52.1375Z" fill="white"/>
<path d="M82.3775 52.13H79.6725C79.4225 52.13 79.2462 52.07 79.1462 51.95C79.045 51.83 78.995 51.6687 78.995 51.4662V47.96C78.995 47.7537 79.045 47.5912 79.1462 47.4725C79.2475 47.3537 79.4225 47.295 79.6725 47.295H82.3275V47.9662H79.73V51.4587H82.3775V52.13ZM82.1825 50.045H79.535L79.4487 49.3737H82.1825V50.045Z" fill="white"/>
<path d="M85.04 52.13H84.3187V47.2962H86C86.3412 47.2962 86.65 47.3487 86.9275 47.455C87.2037 47.5612 87.4225 47.7225 87.5837 47.9387C87.745 48.155 87.825 48.43 87.825 48.7612C87.825 49.0312 87.7612 49.2687 87.6337 49.475C87.5062 49.6812 87.33 49.8425 87.1037 49.9587C86.8775 50.075 86.6112 50.1325 86.3025 50.1325L86.1 49.9662C86.3787 49.9662 86.605 50.015 86.7787 50.1137C86.9525 50.2125 87.1012 50.3562 87.2262 50.5462C87.3512 50.7362 87.4787 50.9687 87.6087 51.2425L88.0487 52.13H87.255L86.8512 51.315C86.755 51.1275 86.6575 50.9625 86.5587 50.8212C86.46 50.68 86.34 50.5687 86.1975 50.49C86.0562 50.41 85.8712 50.3712 85.6462 50.3712H84.9537V49.715H85.9925C86.1987 49.715 86.3837 49.6812 86.5475 49.6137C86.7112 49.5462 86.8387 49.4462 86.93 49.3137C87.0212 49.1812 87.0675 49.0187 87.0675 48.8262C87.0675 48.6237 87.0212 48.4612 86.9275 48.3387C86.8337 48.2162 86.7062 48.125 86.545 48.065C86.3837 48.005 86.205 47.975 86.0075 47.975H85.055L85.04 52.1312V52.13Z" fill="white"/>
<path d="M90.2637 53.48H89.7875L90.055 51.7562L90.7187 51.8637L90.2637 53.48ZM90.27 52.195C90.1887 52.195 90.1112 52.175 90.0387 52.1337C89.9662 52.0925 89.9087 52.0362 89.865 51.9637C89.8212 51.8912 89.8 51.8125 89.8 51.725C89.8 51.6337 89.8212 51.5537 89.865 51.4875C89.9087 51.42 89.9662 51.3662 90.0387 51.325C90.1112 51.2837 90.1875 51.2637 90.27 51.2637C90.3562 51.2637 90.435 51.285 90.505 51.325C90.575 51.3662 90.6312 51.42 90.675 51.4875C90.7187 51.555 90.74 51.635 90.74 51.725C90.74 51.815 90.7187 51.8912 90.675 51.9637C90.6312 52.0362 90.575 52.0925 90.505 52.1337C90.435 52.175 90.3575 52.195 90.27 52.195Z" fill="white"/>
<path d="M97.5425 47.21C98.2012 47.21 98.6925 47.4062 99.0137 47.7987C99.3362 48.1912 99.4975 48.7212 99.4975 49.39V52.1312H98.7537V49.4325C98.7537 48.9512 98.6525 48.5775 98.4512 48.3112C98.2487 48.045 97.9462 47.9112 97.5425 47.9112C97.1387 47.9112 96.8287 48.045 96.6262 48.3112C96.4237 48.5787 96.3225 48.9525 96.3225 49.4325V52.1312H95.5862V49.39C95.5862 48.7212 95.7462 48.1912 96.0662 47.7987C96.3862 47.4062 96.8775 47.21 97.5412 47.21H97.5425ZM98.9787 50.615H95.9562V49.93H98.9787V50.615Z" fill="white"/>
<path d="M103.07 52.21C102.661 52.21 102.297 52.1212 101.98 51.9437C101.662 51.7662 101.429 51.5112 101.28 51.1787L101.9 50.8762C101.991 51.0825 102.137 51.2412 102.34 51.3525C102.542 51.4637 102.785 51.5187 103.069 51.5187C103.256 51.5187 103.425 51.4912 103.574 51.4362C103.722 51.3812 103.841 51.2962 103.931 51.1837C104.02 51.0712 104.065 50.935 104.065 50.7762C104.065 50.5987 104.017 50.4625 103.921 50.3687C103.825 50.275 103.696 50.205 103.535 50.16C103.374 50.1137 103.197 50.075 103.005 50.0412C102.822 50.0025 102.636 49.9562 102.446 49.9012C102.256 49.8462 102.08 49.7675 101.916 49.6662C101.752 49.565 101.621 49.4312 101.522 49.2662C101.424 49.1 101.375 48.89 101.375 48.635C101.375 48.3662 101.449 48.125 101.595 47.9137C101.741 47.7025 101.939 47.535 102.186 47.4125C102.434 47.29 102.711 47.2287 103.02 47.2287C103.39 47.2287 103.727 47.3137 104.03 47.485C104.334 47.6562 104.556 47.9075 104.701 48.2387L104.087 48.5562C103.996 48.3537 103.856 48.1962 103.669 48.0837C103.481 47.9712 103.255 47.9137 102.991 47.9137C102.827 47.9137 102.68 47.9437 102.547 48.0037C102.415 48.0637 102.309 48.145 102.226 48.2487C102.144 48.3525 102.104 48.4737 102.104 48.6125C102.104 48.7862 102.154 48.9187 102.255 49.0125C102.356 49.1062 102.49 49.1787 102.655 49.2287C102.821 49.2787 103.002 49.3237 103.2 49.3625C103.382 49.4012 103.567 49.4475 103.755 49.5025C103.942 49.5575 104.115 49.6362 104.271 49.7375C104.427 49.8387 104.555 49.9725 104.654 50.1375C104.752 50.3037 104.801 50.5137 104.801 50.7687C104.801 51.0525 104.724 51.3012 104.57 51.515C104.416 51.7287 104.207 51.8987 103.946 52.0237C103.684 52.1487 103.391 52.2112 103.07 52.2112V52.21Z" fill="white"/>
<path d="M108.178 52.21C107.769 52.21 107.405 52.1212 107.088 51.9437C106.77 51.7662 106.536 51.5112 106.388 51.1787L107.008 50.8762C107.099 51.0825 107.245 51.2412 107.448 51.3525C107.65 51.4637 107.893 51.5187 108.176 51.5187C108.364 51.5187 108.533 51.4912 108.681 51.4362C108.83 51.3812 108.949 51.2962 109.039 51.1837C109.128 51.0712 109.173 50.935 109.173 50.7762C109.173 50.5987 109.125 50.4625 109.029 50.3687C108.933 50.275 108.804 50.205 108.643 50.16C108.481 50.1137 108.305 50.075 108.113 50.0412C107.93 50.0025 107.744 49.9562 107.554 49.9012C107.364 49.8462 107.188 49.7675 107.024 49.6662C106.86 49.565 106.729 49.4312 106.63 49.2662C106.531 49.1 106.483 48.89 106.483 48.635C106.483 48.3662 106.556 48.125 106.703 47.9137C106.849 47.7025 107.046 47.535 107.294 47.4125C107.541 47.29 107.819 47.2287 108.128 47.2287C108.498 47.2287 108.835 47.3137 109.138 47.485C109.441 47.6562 109.664 47.9075 109.809 48.2387L109.195 48.5562C109.104 48.3537 108.964 48.1962 108.776 48.0837C108.589 47.9712 108.363 47.9137 108.099 47.9137C107.935 47.9137 107.788 47.9437 107.655 48.0037C107.523 48.0637 107.416 48.145 107.334 48.2487C107.251 48.3525 107.211 48.4737 107.211 48.6125C107.211 48.7862 107.261 48.9187 107.363 49.0125C107.464 49.1062 107.598 49.1787 107.763 49.2287C107.929 49.2787 108.11 49.3237 108.308 49.3625C108.49 49.4012 108.675 49.4475 108.863 49.5025C109.05 49.5575 109.223 49.6362 109.379 49.7375C109.535 49.8387 109.663 49.9725 109.761 50.1375C109.86 50.3037 109.909 50.5137 109.909 50.7687C109.909 51.0525 109.831 51.3012 109.678 51.515C109.524 51.7287 109.315 51.8987 109.054 52.0237C108.791 52.1487 108.499 52.2112 108.178 52.2112V52.21Z" fill="white"/>
<path d="M115.154 52.13H112.449C112.199 52.13 112.022 52.07 111.922 51.95C111.821 51.83 111.771 51.6687 111.771 51.4662V47.96C111.771 47.7537 111.821 47.5912 111.922 47.4725C112.024 47.3537 112.199 47.295 112.449 47.295H115.104V47.9662H112.506V51.4587H115.154V52.13ZM114.959 50.045H112.311L112.225 49.3737H114.959V50.045Z" fill="white"/>
<path d="M117.514 52.1375H116.764L117.442 47.8512C117.476 47.64 117.562 47.48 117.702 47.3712C117.841 47.2637 118.007 47.2087 118.2 47.2087C118.374 47.2087 118.529 47.2525 118.665 47.3387C118.801 47.425 118.897 47.565 118.95 47.7575L119.881 51.1262C119.896 51.1837 119.917 51.2125 119.946 51.2125C119.97 51.2125 119.986 51.2062 119.994 51.195C120.001 51.1825 120.01 51.16 120.019 51.1262L120.942 47.7712C120.995 47.5837 121.091 47.4437 121.231 47.3525C121.37 47.2612 121.527 47.215 121.7 47.215C121.892 47.215 122.057 47.27 122.194 47.3812C122.331 47.4925 122.414 47.655 122.442 47.8725L123.056 52.1287H122.312L121.779 48.1025C121.774 48.05 121.762 48.0087 121.746 47.98C121.729 47.9512 121.699 47.9362 121.656 47.9362C121.627 47.9362 121.601 47.9487 121.577 47.9725C121.554 47.9962 121.536 48.0325 121.527 48.0812L120.532 51.5437C120.489 51.6875 120.416 51.7962 120.312 51.8687C120.209 51.9412 120.087 51.9775 119.947 51.9775C119.817 51.9775 119.697 51.9412 119.586 51.8687C119.475 51.7962 119.401 51.6937 119.362 51.5587L118.374 48.0737C118.359 48.0212 118.342 47.9837 118.324 47.9625C118.304 47.9412 118.277 47.93 118.244 47.93C118.21 47.93 118.182 47.9437 118.161 47.97C118.14 47.9962 118.124 48.0387 118.114 48.0962L117.515 52.1362L117.514 52.1375Z" fill="white"/>
<path d="M126.655 52.13H124.995V47.2962H126.69C127.281 47.2962 127.747 47.4075 128.086 47.6312C128.425 47.855 128.595 48.1712 128.595 48.58C128.595 48.845 128.534 49.0687 128.411 49.2512C128.289 49.4337 128.119 49.5712 127.902 49.6625C127.686 49.7537 127.431 49.8 127.137 49.8V49.6487C127.441 49.6487 127.707 49.6862 127.939 49.76C128.17 49.835 128.349 49.9562 128.476 50.1237C128.604 50.2925 128.667 50.5162 128.667 50.795C128.667 51.045 128.616 51.2562 128.512 51.4262C128.409 51.5975 128.266 51.7337 128.084 51.8375C127.901 51.9412 127.687 52.0162 127.445 52.0612C127.202 52.1075 126.939 52.13 126.655 52.13ZM125.731 47.91V49.4175H126.712C127.116 49.4175 127.409 49.3537 127.589 49.2262C127.769 49.0987 127.859 48.9 127.859 48.6312C127.859 48.3912 127.76 48.21 127.562 48.09C127.365 47.97 127.086 47.91 126.725 47.91H125.73H125.731ZM125.731 50.0312V51.5175H126.691C126.86 51.5175 127.019 51.5062 127.167 51.485C127.316 51.4637 127.447 51.4262 127.561 51.3737C127.674 51.3212 127.764 51.2437 127.831 51.1425C127.899 51.0412 127.932 50.9087 127.932 50.7462C127.932 50.4862 127.832 50.3025 127.632 50.195C127.432 50.0875 127.126 50.0325 126.712 50.0325H125.731V50.0312Z" fill="white"/>
<path d="M131.359 47.2962V51.445H133.761V52.13H131.301C131.056 52.13 130.881 52.07 130.779 51.95C130.675 51.83 130.624 51.6687 130.624 51.4662V47.2962H131.36H131.359Z" fill="white"/>
<path d="M138.689 52.13H135.984C135.734 52.13 135.557 52.07 135.457 51.95C135.356 51.83 135.306 51.6687 135.306 51.4662V47.96C135.306 47.7537 135.356 47.5912 135.457 47.4725C135.559 47.355 135.734 47.295 135.984 47.295H138.639V47.9662H136.041V51.4587H138.689V52.13ZM138.494 50.045H135.846L135.76 49.3737H138.494V50.045Z" fill="white"/>
<path d="M141.351 52.13H140.63V47.2962H142.311C142.652 47.2962 142.961 47.3487 143.239 47.455C143.515 47.5612 143.734 47.7225 143.895 47.9387C144.056 48.155 144.136 48.43 144.136 48.7612C144.136 49.0312 144.073 49.2687 143.945 49.475C143.818 49.6812 143.641 49.8425 143.415 49.9587C143.189 50.075 142.923 50.1325 142.614 50.1325L142.411 49.9662C142.69 49.9662 142.916 50.015 143.09 50.1137C143.264 50.2125 143.413 50.3562 143.538 50.5462C143.663 50.7362 143.79 50.9687 143.92 51.2425L144.36 52.13H143.566L143.163 51.315C143.066 51.1275 142.969 50.9625 142.87 50.8212C142.771 50.68 142.651 50.5687 142.509 50.49C142.367 50.41 142.183 50.3712 141.958 50.3712H141.265V49.715H142.304C142.51 49.715 142.695 49.6812 142.859 49.6137C143.022 49.5462 143.15 49.4462 143.241 49.3137C143.333 49.1812 143.379 49.0187 143.379 48.8262C143.379 48.6237 143.333 48.4612 143.239 48.3387C143.145 48.2162 143.017 48.125 142.856 48.065C142.695 48.005 142.516 47.975 142.319 47.975H141.366L141.351 52.1312V52.13Z" fill="white"/>
<path d="M146.574 53.48H146.097L146.365 51.7562L147.029 51.8637L146.574 53.48ZM146.581 52.195C146.5 52.195 146.422 52.175 146.35 52.1337C146.277 52.0925 146.22 52.0362 146.176 51.9637C146.132 51.8912 146.111 51.8125 146.111 51.725C146.111 51.6337 146.132 51.5537 146.176 51.4875C146.22 51.42 146.277 51.3662 146.35 51.325C146.422 51.2837 146.499 51.2637 146.581 51.2637C146.667 51.2637 146.746 51.285 146.816 51.325C146.886 51.3662 146.942 51.42 146.986 51.4875C147.03 51.555 147.051 51.635 147.051 51.725C147.051 51.815 147.03 51.8912 146.986 51.9637C146.942 52.0362 146.886 52.0925 146.816 52.1337C146.746 52.175 146.669 52.195 146.581 52.195Z" fill="white"/>
<path d="M153.486 52.21C153.077 52.21 152.714 52.1212 152.396 51.9437C152.079 51.7662 151.845 51.5112 151.696 51.1787L152.316 50.8762C152.407 51.0825 152.554 51.2412 152.756 51.3525C152.959 51.4637 153.201 51.5187 153.485 51.5187C153.672 51.5187 153.841 51.4912 153.99 51.4362C154.139 51.3812 154.257 51.2962 154.347 51.1837C154.436 51.0712 154.481 50.935 154.481 50.7762C154.481 50.5987 154.434 50.4625 154.337 50.3687C154.241 50.275 154.112 50.205 153.951 50.16C153.79 50.1137 153.614 50.075 153.421 50.0412C153.239 50.0025 153.052 49.9562 152.862 49.9012C152.672 49.8462 152.496 49.7675 152.332 49.6662C152.169 49.565 152.037 49.4312 151.939 49.2662C151.84 49.1 151.791 48.89 151.791 48.635C151.791 48.3662 151.865 48.125 152.011 47.9137C152.157 47.7025 152.355 47.535 152.602 47.4125C152.85 47.29 153.127 47.2287 153.436 47.2287C153.806 47.2287 154.144 47.3137 154.446 47.485C154.75 47.6562 154.972 47.9075 155.117 48.2387L154.504 48.5562C154.412 48.3537 154.272 48.1962 154.085 48.0837C153.897 47.9712 153.671 47.9137 153.407 47.9137C153.244 47.9137 153.096 47.9437 152.964 48.0037C152.831 48.0637 152.725 48.145 152.642 48.2487C152.56 48.3525 152.52 48.4737 152.52 48.6125C152.52 48.7862 152.57 48.9187 152.671 49.0125C152.772 49.1062 152.906 49.1787 153.071 49.2287C153.237 49.2787 153.419 49.3237 153.616 49.3625C153.799 49.4012 153.984 49.4475 154.171 49.5025C154.359 49.5575 154.531 49.6362 154.687 49.7375C154.844 49.8387 154.971 49.9725 155.07 50.1375C155.169 50.3037 155.217 50.5137 155.217 50.7687C155.217 51.0525 155.14 51.3012 154.986 51.515C154.832 51.7287 154.624 51.8987 154.362 52.0237C154.1 52.1487 153.807 52.2112 153.486 52.2112V52.21Z" fill="white"/>
<path d="M159.2 52.2162C158.849 52.2162 158.523 52.1525 158.223 52.025C157.921 51.8975 157.659 51.7212 157.432 51.495C157.206 51.2687 157.03 51.0037 156.902 50.6975C156.775 50.3925 156.711 50.0612 156.711 49.705C156.711 49.3487 156.775 49.0275 156.902 48.7275C157.03 48.4262 157.206 48.1637 157.432 47.9375C157.659 47.7112 157.923 47.535 158.223 47.4075C158.524 47.28 158.849 47.2162 159.2 47.2162C159.551 47.2162 159.876 47.28 160.174 47.4075C160.473 47.535 160.734 47.7125 160.96 47.9375C161.186 48.1637 161.361 48.4275 161.486 48.7275C161.611 49.0287 161.674 49.3537 161.674 49.705C161.674 50.0562 161.611 50.3912 161.486 50.6975C161.361 51.0025 161.185 51.2687 160.96 51.495C160.734 51.7212 160.471 51.8975 160.174 52.025C159.875 52.1525 159.551 52.2162 159.2 52.2162ZM159.2 51.5175C159.435 51.5175 159.659 51.47 159.867 51.3762C160.076 51.2825 160.26 51.1537 160.419 50.99C160.577 50.8262 160.7 50.635 160.786 50.4162C160.873 50.1975 160.916 49.96 160.916 49.7062C160.916 49.4525 160.873 49.2225 160.786 49.0062C160.7 48.79 160.577 48.6 160.419 48.4362C160.26 48.2725 160.077 48.145 159.87 48.0537C159.662 47.9625 159.44 47.9162 159.199 47.9162C158.957 47.9162 158.733 47.9625 158.52 48.0537C158.309 48.145 158.125 48.2725 157.969 48.4362C157.812 48.6 157.69 48.79 157.601 49.0062C157.513 49.2225 157.467 49.4562 157.467 49.7062C157.467 49.9562 157.513 50.1975 157.601 50.4162C157.69 50.635 157.812 50.8262 157.969 50.99C158.125 51.1537 158.309 51.2825 158.52 51.3762C158.731 51.47 158.957 51.5175 159.199 51.5175H159.2Z" fill="white"/>
<path d="M165.376 52.195C164.697 52.195 164.196 52.0012 163.872 51.6137C163.547 51.2262 163.385 50.6987 163.385 50.03V47.295H164.121V50.0075C164.121 50.4887 164.225 50.8562 164.431 51.1112C164.637 51.3662 164.952 51.4937 165.376 51.4937C165.8 51.4937 166.12 51.3662 166.325 51.1112C166.53 50.8562 166.631 50.4887 166.631 50.0075V47.295H167.367V50.03C167.367 50.6987 167.205 51.2262 166.88 51.6137C166.555 52.0012 166.054 52.195 165.376 52.195Z" fill="white"/>
<path d="M173.774 49.6912C173.774 50.0712 173.707 50.4112 173.575 50.7125C173.442 51.0137 173.257 51.2687 173.02 51.4812C172.782 51.6925 172.504 51.8537 172.186 51.965C171.869 52.075 171.522 52.1312 171.147 52.1312H169.51V47.2975H171.184C171.704 47.2975 172.156 47.3975 172.544 47.5975C172.931 47.7975 173.232 48.0762 173.449 48.435C173.665 48.7937 173.774 49.2125 173.774 49.6937V49.6912ZM173.016 49.6912C173.016 49.35 172.939 49.05 172.785 48.7925C172.631 48.535 172.417 48.3337 172.142 48.19C171.869 48.0462 171.549 47.9737 171.182 47.9737H170.245V51.4587H171.147C171.411 51.4587 171.657 51.4175 171.884 51.3362C172.11 51.255 172.307 51.1387 172.479 50.99C172.65 50.8412 172.782 50.6562 172.875 50.435C172.969 50.2137 173.015 49.9662 173.015 49.6912H173.016Z" fill="white"/>
<path d="M178.997 52.13H176.292C176.042 52.13 175.866 52.07 175.766 51.95C175.665 51.83 175.615 51.6687 175.615 51.4662V47.96C175.615 47.7537 175.665 47.5912 175.766 47.4725C175.867 47.3537 176.042 47.295 176.292 47.295H178.947V47.9662H176.35V51.4587H178.997V52.13ZM178.802 50.045H176.155L176.069 49.3737H178.802V50.045Z" fill="white"/>
<path d="M181.66 52.13H180.939V47.2962H182.62C182.961 47.2962 183.27 47.3487 183.547 47.455C183.824 47.5612 184.042 47.7225 184.204 47.9387C184.365 48.155 184.445 48.43 184.445 48.7612C184.445 49.0312 184.381 49.2687 184.254 49.475C184.126 49.6812 183.95 49.8425 183.724 49.9587C183.497 50.075 183.231 50.1325 182.922 50.1325L182.72 49.9662C182.999 49.9662 183.225 50.015 183.399 50.1137C183.572 50.2125 183.721 50.3562 183.846 50.5462C183.971 50.7362 184.099 50.9687 184.229 51.2425L184.669 52.13H183.875L183.471 51.315C183.375 51.1275 183.277 50.9625 183.179 50.8212C183.08 50.68 182.96 50.5687 182.817 50.49C182.676 50.41 182.491 50.3712 182.266 50.3712H181.574V49.715H182.612C182.819 49.715 183.004 49.6812 183.167 49.6137C183.331 49.5462 183.459 49.4462 183.55 49.3137C183.641 49.1812 183.687 49.0187 183.687 48.8262C183.687 48.6237 183.641 48.4612 183.547 48.3387C183.454 48.2162 183.326 48.125 183.165 48.065C183.004 48.005 182.825 47.975 182.627 47.975H181.675L181.66 52.1312V52.13Z" fill="white"/>
<path d="M190.18 47.2962V51.445H192.583V52.13H190.122C189.877 52.13 189.703 52.07 189.6 51.95C189.496 51.83 189.445 51.6687 189.445 51.4662V47.2962H190.181H190.18Z" fill="white"/>
<path d="M194.069 49.1575H193.6L193.932 47.6062L194.575 47.7725L194.07 49.1575H194.069ZM194.155 48.0462C194.069 48.0462 193.989 48.0262 193.917 47.985C193.846 47.9437 193.787 47.8875 193.744 47.815C193.7 47.7425 193.679 47.6637 193.679 47.5775C193.679 47.4912 193.7 47.4125 193.744 47.3425C193.787 47.2725 193.845 47.2175 193.917 47.1762C193.99 47.135 194.069 47.115 194.155 47.115C194.241 47.115 194.32 47.135 194.39 47.1762C194.46 47.2175 194.515 47.2725 194.556 47.3425C194.597 47.4125 194.617 47.49 194.617 47.5775C194.617 47.665 194.597 47.7437 194.556 47.815C194.515 47.8875 194.46 47.9437 194.39 47.985C194.32 48.0262 194.242 48.0462 194.155 48.0462Z" fill="white"/>
<path d="M196.739 47.2962H197.475V52.13H196.739V47.2962Z" fill="white"/>
<path d="M200.381 52.13H199.681V47.9025C199.681 47.7537 199.71 47.6275 199.767 47.5237C199.825 47.42 199.905 47.3425 200.005 47.2887C200.105 47.235 200.216 47.2087 200.337 47.2087C200.486 47.2087 200.612 47.2375 200.716 47.295C200.82 47.3525 200.905 47.4462 200.972 47.5762L203.007 51.3787C203.022 51.4125 203.032 51.4362 203.04 51.4512C203.047 51.4662 203.062 51.4725 203.087 51.4725C203.102 51.4725 203.111 51.4675 203.116 51.4575C203.121 51.4475 203.124 51.4337 203.124 51.4137V47.2937H203.824V51.5287C203.824 51.6725 203.794 51.795 203.734 51.8962C203.674 51.9975 203.594 52.0762 203.495 52.1312C203.396 52.1862 203.291 52.2137 203.181 52.2137C203.046 52.2137 202.922 52.1837 202.81 52.1237C202.697 52.0637 202.605 51.9687 202.532 51.8387L200.505 48.0287C200.495 48 200.487 47.9787 200.48 47.9637C200.472 47.9487 200.46 47.9425 200.44 47.9425C200.42 47.9425 200.406 47.95 200.396 47.9637C200.386 47.9787 200.381 48 200.381 48.0287V52.1262V52.13Z" fill="white"/>
<path d="M210.301 49.6912C210.301 50.0712 210.235 50.4112 210.102 50.7125C209.97 51.0137 209.785 51.2687 209.547 51.4812C209.31 51.6925 209.031 51.8537 208.714 51.965C208.396 52.075 208.05 52.1312 207.675 52.1312H206.037V47.2975H207.711C208.231 47.2975 208.684 47.3975 209.071 47.5975C209.459 47.7975 209.76 48.0762 209.976 48.435C210.192 48.7937 210.301 49.2125 210.301 49.6937V49.6912ZM209.544 49.6912C209.544 49.35 209.466 49.05 209.312 48.7925C209.159 48.535 208.945 48.3337 208.67 48.19C208.396 48.0462 208.076 47.9737 207.71 47.9737H206.772V51.4587H207.675C207.939 51.4587 208.185 51.4175 208.411 51.3362C208.637 51.255 208.835 51.1387 209.006 50.99C209.177 50.8412 209.31 50.6562 209.402 50.435C209.496 50.2137 209.542 49.9662 209.542 49.6912H209.544Z" fill="white"/>
<path d="M214.075 52.195C213.396 52.195 212.895 52.0012 212.571 51.6137C212.246 51.2262 212.084 50.6987 212.084 50.03V47.295H212.82V50.0075C212.82 50.4887 212.924 50.8562 213.13 51.1112C213.336 51.3662 213.651 51.4937 214.075 51.4937C214.499 51.4937 214.819 51.3662 215.024 51.1112C215.229 50.8562 215.33 50.4887 215.33 50.0075V47.295H216.066V50.03C216.066 50.6987 215.904 51.2262 215.579 51.6137C215.254 52.0012 214.752 52.195 214.075 52.195Z" fill="white"/>
<path d="M219.652 52.21C219.244 52.21 218.88 52.1212 218.562 51.9437C218.245 51.7662 218.011 51.5112 217.862 51.1787L218.482 50.8762C218.574 51.0825 218.72 51.2412 218.922 51.3525C219.125 51.4637 219.367 51.5187 219.651 51.5187C219.839 51.5187 220.007 51.4912 220.156 51.4362C220.305 51.3812 220.424 51.2962 220.514 51.1837C220.602 51.0712 220.647 50.935 220.647 50.7762C220.647 50.5987 220.6 50.4625 220.504 50.3687C220.407 50.275 220.279 50.205 220.117 50.16C219.956 50.1137 219.78 50.075 219.587 50.0412C219.405 50.0025 219.219 49.9562 219.029 49.9012C218.839 49.8462 218.662 49.7675 218.499 49.6662C218.335 49.565 218.204 49.4312 218.105 49.2662C218.006 49.1 217.957 48.89 217.957 48.635C217.957 48.3662 218.031 48.125 218.177 47.9137C218.324 47.7025 218.521 47.535 218.769 47.4125C219.016 47.29 219.294 47.2287 219.602 47.2287C219.972 47.2287 220.31 47.3137 220.612 47.485C220.916 47.6562 221.139 47.9075 221.284 48.2387L220.67 48.5562C220.579 48.3537 220.439 48.1962 220.251 48.0837C220.064 47.9712 219.837 47.9137 219.574 47.9137C219.41 47.9137 219.262 47.9437 219.13 48.0037C218.997 48.0637 218.891 48.145 218.809 48.2487C218.726 48.3525 218.686 48.4737 218.686 48.6125C218.686 48.7862 218.736 48.9187 218.837 49.0125C218.939 49.1062 219.072 49.1787 219.237 49.2287C219.404 49.2787 219.585 49.3237 219.782 49.3625C219.965 49.4012 220.15 49.4475 220.337 49.5025C220.525 49.5575 220.697 49.6362 220.854 49.7375C221.01 49.8387 221.137 49.9725 221.236 50.1375C221.335 50.3037 221.384 50.5137 221.384 50.7687C221.384 51.0525 221.306 51.3012 221.152 51.515C220.999 51.7287 220.79 51.8987 220.529 52.0237C220.266 52.1487 219.974 52.2112 219.652 52.2112V52.21Z" fill="white"/>
<path d="M226.391 47.2962V47.975H222.69V47.2962H226.391ZM224.169 47.2962H224.905V52.13H224.169V47.2962Z" fill="white"/>
<path d="M228.758 52.13H228.036V47.2962H229.717C230.059 47.2962 230.368 47.3487 230.645 47.455C230.921 47.5612 231.14 47.7225 231.301 47.9387C231.463 48.155 231.542 48.43 231.542 48.7612C231.542 49.0312 231.479 49.2687 231.351 49.475C231.224 49.6812 231.047 49.8425 230.821 49.9587C230.595 50.0737 230.329 50.1325 230.02 50.1325L229.818 49.9662C230.096 49.9662 230.322 50.015 230.496 50.1137C230.67 50.2125 230.819 50.3562 230.944 50.5462C231.069 50.7362 231.196 50.9687 231.326 51.2425L231.766 52.13H230.973L230.569 51.315C230.473 51.1275 230.375 50.9625 230.276 50.8212C230.177 50.68 230.057 50.5687 229.915 50.49C229.774 50.41 229.589 50.3712 229.364 50.3712H228.671V49.715H229.71C229.916 49.715 230.101 49.6812 230.265 49.6137C230.429 49.5462 230.556 49.4462 230.648 49.3137C230.739 49.1812 230.785 49.0187 230.785 48.8262C230.785 48.6237 230.739 48.4612 230.645 48.3387C230.551 48.2162 230.424 48.125 230.262 48.065C230.101 48.005 229.923 47.975 229.725 47.975H228.773L228.758 52.1312V52.13Z" fill="white"/>
<path d="M233.67 47.2962H234.406V52.13H233.67V47.2962Z" fill="white"/>
<path d="M239.984 52.13H237.279C237.029 52.13 236.853 52.07 236.753 51.95C236.651 51.83 236.601 51.6687 236.601 51.4662V47.96C236.601 47.7537 236.651 47.5912 236.753 47.4725C236.854 47.355 237.029 47.295 237.279 47.295H239.934V47.9662H237.336V51.4587H239.984V52.13ZM239.789 50.045H237.141L237.055 49.3737H239.789V50.045Z" fill="white"/>
</g>
<defs>
<clipPath id="clip0_208_544">
<rect width="240" height="53.48" fill="white"/>
</clipPath>
</defs>
</svg>
