<?xml version="1.0" encoding="UTF-8"?>
<svg xmlns="http://www.w3.org/2000/svg" width="72" height="72" viewBox="0 0 72 72" fill="none">
  <path fill-rule="evenodd" clip-rule="evenodd" d="M67.2188 24.968L67.5583 25.3075L67.5537 25.3098C73.4821 31.2405 73.4821 40.8535 67.5537 46.7842L57.1577 57.1842L47.0737 67.2124L46.7342 67.552C40.8058 73.4827 31.1965 73.4827 25.2681 67.552L4.44632 46.7223C-1.48211 40.7916 -1.48211 31.1786 4.44632 25.2479L14.8423 14.848L25.2382 4.44802C31.1667 -1.48267 40.776 -1.48267 46.7044 4.44802L47.0438 4.78757L67.2188 24.968ZM38.1333 43.76L40 45.6667V45.6933L48 37.6933L40 29.6933L38.1333 31.56L42.9067 36.36H30C29.0667 36.36 28.2667 36.0267 27.6267 35.3867C26.9733 34.7333 26.6533 33.9467 26.6533 33.0133C26.6533 32.08 26.9733 31.2933 27.6267 30.64C28.28 29.9867 29.0667 29.6667 30 29.6667H30.6667V27H30C28.3333 27 26.9067 27.5733 25.7467 28.7467C24.5867 29.92 24 31.32 24 32.9867C24 34.6533 24.5733 36.08 25.7467 37.24C26.92 38.4 28.3333 38.9867 30 38.9867H42.9067L38.1333 43.76Z" fill="#FF5500"></path>
</svg>
