<?xml version="1.0" encoding="UTF-8"?>
<svg xmlns="http://www.w3.org/2000/svg" width="72" height="72" viewBox="0 0 72 72" fill="none">
  <path fill-rule="evenodd" clip-rule="evenodd" d="M67.2188 24.968L67.5583 25.3075L67.5537 25.3098C73.4821 31.2405 73.4821 40.8535 67.5537 46.7842L57.1577 57.1842L47.0737 67.2124L46.7342 67.552C40.8058 73.4827 31.1965 73.4827 25.2681 67.552L4.44632 46.7223C-1.48211 40.7916 -1.48211 31.1786 4.44632 25.2479L14.8423 14.848L25.2382 4.44802C31.1667 -1.48267 40.776 -1.48267 46.7044 4.44802L47.0438 4.78757L67.2188 24.968ZM34.6 36.696V44.916L27.4 40.74V32.52L34.6 36.696ZM44.2 40.74L37 44.916V36.696L44.2 32.52V40.74ZM42.916 30.504L35.8 34.62L28.684 30.504L35.8 26.388L42.916 30.504ZM25.312 41.964C25.528 42.324 25.816 42.624 26.2 42.84L34.6 47.7C34.984 47.928 35.38 48.036 35.8 48.036C36.22 48.036 36.616 47.916 37 47.7L45.4 42.864C45.784 42.636 46.084 42.348 46.288 41.988C46.492 41.628 46.6 41.232 46.6 40.788V31.248C46.6 30.804 46.504 30.408 46.288 30.048C46.072 29.688 45.784 29.388 45.4 29.172L37 24.336C36.616 24.108 36.22 24 35.8 24C35.38 24 34.984 24.12 34.6 24.336L26.2 29.148C25.816 29.376 25.516 29.664 25.312 30.024C25.108 30.384 25 30.78 25 31.224V40.764C25 41.208 25.096 41.604 25.312 41.964Z" fill="#FF5500"></path>
</svg>
