<?xml version="1.0" encoding="UTF-8"?>
<svg xmlns="http://www.w3.org/2000/svg" width="72" height="72" viewBox="0 0 72 72" fill="none">
  <path fill-rule="evenodd" clip-rule="evenodd" d="M67.2188 24.968L67.5583 25.3075L67.5537 25.3098C73.4821 31.2405 73.4821 40.8535 67.5537 46.7842L57.1577 57.1842L47.0737 67.2124L46.7342 67.552C40.8058 73.4827 31.1965 73.4827 25.2681 67.552L4.44632 46.7223C-1.48211 40.7916 -1.48211 31.1786 4.44632 25.2479L14.8423 14.848L25.2382 4.44802C31.1667 -1.48267 40.776 -1.48267 46.7044 4.44802L47.0438 4.78757L67.2188 24.968ZM24 45.3333V48H45.3333C46.0667 48 46.6933 47.7333 47.2133 47.2133C47.7333 46.6933 48 46.0667 48 45.3333V24H45.3333V45.3333H24ZM38.12 41.88C38.64 42.4 39.2667 42.6667 40 42.6667C40.7333 42.6667 41.36 42.4 41.88 41.88C42.4 41.36 42.6667 40.7333 42.6667 40C42.6667 39.2667 42.4 38.64 41.88 38.12C41.36 37.6 40.7333 37.3333 40 37.3333C39.2667 37.3333 38.64 37.6 38.12 38.12C37.6 38.64 37.3333 39.2667 37.3333 40C37.3333 40.7333 37.6 41.36 38.12 41.88ZM26.6667 33.3333V36H36V26.6667H33.3333V31.4667L25.8667 24L24 25.8667L31.4667 33.3333H26.6667Z" fill="#FF5500"></path>
</svg>
