<?xml version="1.0" encoding="UTF-8"?>
<svg xmlns="http://www.w3.org/2000/svg" width="72" height="72" viewBox="0 0 72 72" fill="none">
  <path fill-rule="evenodd" clip-rule="evenodd" d="M67.2188 24.968L67.5583 25.3075L67.5537 25.3098C73.4821 31.2405 73.4821 40.8535 67.5537 46.7842L57.1577 57.1842L47.0737 67.2124L46.7342 67.552C40.8058 73.4827 31.1965 73.4827 25.2681 67.552L4.44632 46.7223C-1.48211 40.7916 -1.48211 31.1786 4.44632 25.2479L14.8423 14.848L25.2382 4.44802C31.1667 -1.48267 40.776 -1.48267 46.7044 4.44802L47.0438 4.78757L67.2188 24.968ZM31.32 47.052C32.784 47.688 34.344 48 36 48C37.656 48 39.216 47.688 40.68 47.052C42.144 46.416 43.416 45.564 44.496 44.484C45.576 43.404 46.428 42.132 47.064 40.668C47.7 39.204 48.012 37.644 48.012 35.988C48.012 34.332 47.7 32.772 47.064 31.308C46.428 29.844 45.576 28.572 44.496 27.492C43.416 26.412 42.144 25.56 40.68 24.924C39.216 24.288 37.656 23.976 36 23.976C34.344 23.976 32.784 24.288 31.32 24.924C29.856 25.56 28.584 26.412 27.504 27.492C26.424 28.572 25.572 29.844 24.936 31.308C24.3 32.772 23.988 34.332 23.988 35.988C23.988 37.644 24.3 39.204 24.936 40.668C25.572 42.132 26.424 43.404 27.504 44.484C28.584 45.564 29.856 46.416 31.32 47.052ZM34.8 43.2V45.54C32.388 45.24 30.384 44.184 28.788 42.36C27.192 40.536 26.4 38.424 26.4 36C26.4 35.64 26.424 35.28 26.472 34.92C26.52 34.56 26.58 34.2 26.64 33.84L32.4 39.6V40.8C32.4 41.46 32.64 42.024 33.108 42.492C33.576 42.96 34.14 43.2 34.8 43.2ZM44.16 41.052C43.836 41.568 43.476 42.036 43.08 42.48L43.092 42.456C42.924 41.964 42.636 41.556 42.216 41.244C41.796 40.932 41.316 40.776 40.8 40.776H39.6V37.176C39.6 36.84 39.48 36.552 39.252 36.324C39.024 36.096 38.736 35.976 38.4 35.976H31.2V33.576H33.6C33.936 33.576 34.224 33.456 34.452 33.228C34.68 33 34.8 32.712 34.8 32.376V29.976H37.2C37.86 29.976 38.424 29.736 38.892 29.268C39.36 28.8 39.6 28.236 39.6 27.576V27.096C41.424 27.816 42.876 28.992 43.968 30.612C45.06 32.232 45.6 34.032 45.6 35.988C45.6 36.588 45.54 37.188 45.432 37.764C45.324 38.34 45.156 38.904 44.952 39.456C44.748 40.008 44.484 40.536 44.16 41.052Z" fill="#FF5500"></path>
</svg>
