<?xml version="1.0" encoding="UTF-8"?>
<svg xmlns="http://www.w3.org/2000/svg" width="72" height="72" viewBox="0 0 72 72" fill="none">
  <path fill-rule="evenodd" clip-rule="evenodd" d="M67.2188 24.968L67.5583 25.3075L67.5537 25.3098C73.4821 31.2405 73.4821 40.8535 67.5537 46.7842L57.1577 57.1842L47.0737 67.2124L46.7342 67.552C40.8058 73.4827 31.1965 73.4827 25.2681 67.552L4.44632 46.7223C-1.48211 40.7916 -1.48211 31.1786 4.44632 25.2479L14.8423 14.848L25.2382 4.44802C31.1667 -1.48267 40.776 -1.48267 46.7044 4.44802L47.0438 4.78757L67.2188 24.968ZM24.9466 31.321C24.3115 32.7828 24 34.3405 24 35.994L24.012 36.006C24.012 37.6595 24.3235 39.2172 24.9586 40.679C25.5936 42.1408 26.4443 43.4109 27.5227 44.4893C28.6011 45.5676 29.8712 46.4184 31.333 47.0534C32.7948 47.6885 34.3525 48 36.006 48C37.6595 48 39.2172 47.6885 40.679 47.0534C42.1408 46.4184 43.4109 45.5676 44.4893 44.4893C45.5676 43.4109 46.4184 42.1408 47.0534 40.679C47.6885 39.2172 48 37.6595 48 36.006C48 35.4668 47.9641 34.9396 47.8922 34.4124C47.8203 33.8852 47.7244 33.3819 47.5806 32.8787C47.2811 33.1902 46.9456 33.4778 46.5861 33.7294C46.2267 33.981 45.8432 34.1847 45.4478 34.3405C45.4798 34.5322 45.5011 34.7133 45.5224 34.8943C45.533 34.9849 45.5437 35.0754 45.5557 35.1672C45.5916 35.4428 45.6036 35.7184 45.6036 35.994C45.6036 38.678 44.669 40.9426 42.8118 42.7998C40.9546 44.657 38.69 45.5916 36.006 45.5916C33.322 45.5916 31.0574 44.657 29.2002 42.7998C27.343 40.9426 26.4084 38.678 26.4084 35.994C26.4084 33.31 27.343 31.0454 29.2002 29.1882C31.0574 27.331 33.334 26.3964 36.006 26.3964C36.2936 26.3964 36.5572 26.4084 36.8327 26.4443L37.6595 26.5522C37.8153 26.1568 38.019 25.7733 38.2706 25.4139C38.5222 25.0544 38.7978 24.7189 39.1213 24.4194C38.6181 24.2876 38.1148 24.1797 37.5876 24.1078C37.0604 24.0359 36.5332 24 35.994 24C34.3405 24 32.7828 24.3115 31.321 24.9466C29.8592 25.5816 28.5891 26.4324 27.5107 27.5107C26.4324 28.5891 25.5816 29.8592 24.9466 31.321ZM40.6191 31.345C41.326 32.0519 42.1767 32.3994 43.1712 32.3994C44.1777 32.3994 45.0165 32.0519 45.7234 31.345C46.4304 30.638 46.7778 29.7993 46.7778 28.7928C46.7778 27.7863 46.4304 26.9476 45.7234 26.2406C45.0165 25.5337 44.1777 25.1862 43.1712 25.1862C42.1647 25.1862 41.326 25.5337 40.6191 26.2406C39.9121 26.9476 39.5647 27.7863 39.5647 28.7928C39.5647 29.7993 39.9121 30.638 40.6191 31.345Z" fill="#FF5500"></path>
</svg>
