<?xml version="1.0" encoding="UTF-8"?>
<svg xmlns="http://www.w3.org/2000/svg" width="72" height="72" viewBox="0 0 72 72" fill="none">
  <path fill-rule="evenodd" clip-rule="evenodd" d="M67.2188 24.968L67.5583 25.3075L67.5537 25.3098C73.4821 31.2405 73.4821 40.8535 67.5537 46.7842L57.1577 57.1842L47.0737 67.2124L46.7342 67.552C40.8058 73.4827 31.1965 73.4827 25.2681 67.552L4.44632 46.7223C-1.48211 40.7916 -1.48211 31.1786 4.44632 25.2479L14.8423 14.848L25.2382 4.44802C31.1667 -1.48267 40.776 -1.48267 46.7044 4.44802L47.0438 4.78757L67.2188 24.968ZM29.3333 29.3333V42.6667H42.6667V29.3333H29.3333ZM40 40H32V32H40V40ZM24 40V42.6667H26.6667V40H24ZM24 29.3333V32H26.6667V29.3333H24ZM29.3333 45.3333V48H32V45.3333H29.3333ZM29.3333 24V26.6667H32V24H29.3333ZM40 45.3333V48H42.6667V45.3333H40ZM40 24V26.6667H42.6667V24H40ZM45.3333 40V42.6667H48V40H45.3333ZM45.3333 29.3333V32H48V29.3333H45.3333Z" fill="#FF5500"></path>
</svg>
